M48
; DRILL file {KiCad (5.1.2-1)-1} date 2019 May 13, Monday 23:42:10
; FORMAT={-:-/ absolute / inch / decimal}
; #@! TF.CreationDate,2019-05-13T23:42:10-03:00
; #@! TF.GenerationSoftware,Kicad,Pcbnew,(5.1.2-1)-1
FMAT,2
INCH
T1C0.0157
T2C0.0315
T3C0.0320
T4C0.0394
T5C0.0433
T6C0.0866
%
G90
G05
T1
X1.32Y-2.43
X1.32Y-2.53
X1.3925Y-2.3925
X1.435Y-2.6575
X1.485Y-1.9775
X1.5128Y-1.9497
X1.5725Y-1.9025
X1.6325Y-2.4475
X1.6325Y-2.5225
X1.635Y-2.485
X1.635Y-2.96
X1.6675Y-2.0825
X1.6975Y-2.1025
X1.725Y-2.1225
X1.7625Y-3.32
X1.765Y-2.3425
X1.815Y-2.075
X1.815Y-2.3975
X1.8775Y-3.02
X2.025Y-2.575
X2.0375Y-3.3625
X2.0744Y-2.2576
X2.1Y-2.2875
X2.1Y-2.3269
X2.2025Y-1.995
X2.21Y-2.4725
X2.2125Y-2.4075
X2.2475Y-1.9975
X2.2475Y-2.8875
X2.255Y-2.4725
X2.395Y-2.9525
X2.4Y-1.975
X2.445Y-2.9075
X2.47Y-1.975
X2.4725Y-2.72
X2.475Y-2.8675
X2.4775Y-2.8175
X2.4825Y-3.1
X2.4825Y-3.1525
X2.556Y-2.0325
X2.595Y-2.345
X2.635Y-2.2115
X2.685Y-2.5025
X2.695Y-2.21
X2.75Y-2.21
X2.75Y-2.55
X2.895Y-3.0275
T3
X2.8975Y-2.1725
X2.8975Y-2.3625
T4
X2.0575Y-1.86
X2.1575Y-1.86
X2.2575Y-1.86
X2.3575Y-1.86
X2.4575Y-1.86
X2.5575Y-1.86
X2.155Y-2.6225
X2.255Y-2.6225
X2.355Y-2.6225
X2.455Y-2.6225
X1.92Y-1.86
X1.92Y-1.96
T5
X3.005Y-2.9425
X3.005Y-3.0425
X3.005Y-3.1425
X3.005Y-3.2425
X3.005Y-3.3425
X3.005Y-3.4425
X1.245Y-2.9425
X1.245Y-3.0425
X1.245Y-3.1425
X1.245Y-3.2425
X1.245Y-3.3425
X1.245Y-3.4425
T6
X1.225Y-2.7453
X2.9967Y-2.7453
T2
G00X1.2296Y-1.8093
M15
G01X1.1863Y-1.8093
M16
G05
G00X1.2296Y-2.1007
M15
G01X1.1863Y-2.1007
M16
G05
G00X1.4166Y-1.8093
M15
G01X1.3733Y-1.8093
M16
G05
G00X1.4166Y-2.1007
M15
G01X1.3733Y-2.1007
M16
G05
T0
M30
