G04 #@! TF.GenerationSoftware,KiCad,Pcbnew,(5.1.2-1)-1*
G04 #@! TF.CreationDate,2019-05-13T23:44:12-03:00*
G04 #@! TF.ProjectId,Capivara,43617069-7661-4726-912e-6b696361645f,rev?*
G04 #@! TF.SameCoordinates,Original*
G04 #@! TF.FileFunction,Soldermask,Bot*
G04 #@! TF.FilePolarity,Negative*
%FSLAX46Y46*%
G04 Gerber Fmt 4.6, Leading zero omitted, Abs format (unit mm)*
G04 Created by KiCad (PCBNEW (5.1.2-1)-1) date 2019-05-13 23:44:12*
%MOMM*%
%LPD*%
G04 APERTURE LIST*
%ADD10C,0.100000*%
G04 APERTURE END LIST*
D10*
G36*
X77478000Y-75890500D02*
G01*
X76512993Y-75890500D01*
X76488607Y-75892902D01*
X76465158Y-75900015D01*
X76443547Y-75911566D01*
X76424605Y-75927111D01*
X76409060Y-75946053D01*
X76397509Y-75967664D01*
X76390396Y-75991113D01*
X76387994Y-76015499D01*
X76390396Y-76039885D01*
X76397509Y-76063334D01*
X76409060Y-76084945D01*
X76424605Y-76103887D01*
X76443547Y-76119432D01*
X76465158Y-76130983D01*
X76488608Y-76138096D01*
X76662734Y-76172732D01*
X76872203Y-76259497D01*
X77060720Y-76385460D01*
X77221040Y-76545780D01*
X77347003Y-76734297D01*
X77433768Y-76943766D01*
X77478000Y-77166136D01*
X77478000Y-77392864D01*
X77433768Y-77615234D01*
X77347003Y-77824703D01*
X77221040Y-78013220D01*
X77060720Y-78173540D01*
X76872203Y-78299503D01*
X76662734Y-78386268D01*
X76535161Y-78411644D01*
X76458448Y-78426903D01*
X76434999Y-78434016D01*
X76413388Y-78445567D01*
X76394446Y-78461112D01*
X76378901Y-78480054D01*
X76367350Y-78501665D01*
X76360237Y-78525114D01*
X76357835Y-78549500D01*
X76360237Y-78573886D01*
X76367350Y-78597335D01*
X76378901Y-78618946D01*
X76394446Y-78637888D01*
X76413388Y-78653433D01*
X76434999Y-78664984D01*
X76458448Y-78672097D01*
X76535161Y-78687356D01*
X76662734Y-78712732D01*
X76872203Y-78799497D01*
X77060720Y-78925460D01*
X77221040Y-79085780D01*
X77347003Y-79274297D01*
X77433768Y-79483766D01*
X77478000Y-79706136D01*
X77478000Y-79932864D01*
X77433768Y-80155234D01*
X77347003Y-80364703D01*
X77221040Y-80553220D01*
X77060720Y-80713540D01*
X76872203Y-80839503D01*
X76662734Y-80926268D01*
X76535161Y-80951644D01*
X76458448Y-80966903D01*
X76434999Y-80974016D01*
X76413388Y-80985567D01*
X76394446Y-81001112D01*
X76378901Y-81020054D01*
X76367350Y-81041665D01*
X76360237Y-81065114D01*
X76357835Y-81089500D01*
X76360237Y-81113886D01*
X76367350Y-81137335D01*
X76378901Y-81158946D01*
X76394446Y-81177888D01*
X76413388Y-81193433D01*
X76434999Y-81204984D01*
X76458448Y-81212097D01*
X76535161Y-81227356D01*
X76662734Y-81252732D01*
X76872203Y-81339497D01*
X77060720Y-81465460D01*
X77221040Y-81625780D01*
X77347003Y-81814297D01*
X77433768Y-82023766D01*
X77478000Y-82246136D01*
X77478000Y-82472864D01*
X77433768Y-82695234D01*
X77347003Y-82904703D01*
X77221040Y-83093220D01*
X77060720Y-83253540D01*
X76872203Y-83379503D01*
X76662734Y-83466268D01*
X76535161Y-83491644D01*
X76458448Y-83506903D01*
X76434999Y-83514016D01*
X76413388Y-83525567D01*
X76394446Y-83541112D01*
X76378901Y-83560054D01*
X76367350Y-83581665D01*
X76360237Y-83605114D01*
X76357835Y-83629500D01*
X76360237Y-83653886D01*
X76367350Y-83677335D01*
X76378901Y-83698946D01*
X76394446Y-83717888D01*
X76413388Y-83733433D01*
X76434999Y-83744984D01*
X76458448Y-83752097D01*
X76535161Y-83767356D01*
X76662734Y-83792732D01*
X76872203Y-83879497D01*
X77060720Y-84005460D01*
X77221040Y-84165780D01*
X77347003Y-84354297D01*
X77433768Y-84563766D01*
X77478000Y-84786136D01*
X77478000Y-85012864D01*
X77433768Y-85235234D01*
X77347003Y-85444703D01*
X77221040Y-85633220D01*
X77060720Y-85793540D01*
X76872203Y-85919503D01*
X76662734Y-86006268D01*
X76535161Y-86031644D01*
X76458448Y-86046903D01*
X76434999Y-86054016D01*
X76413388Y-86065567D01*
X76394446Y-86081112D01*
X76378901Y-86100054D01*
X76367350Y-86121665D01*
X76360237Y-86145114D01*
X76357835Y-86169500D01*
X76360237Y-86193886D01*
X76367350Y-86217335D01*
X76378901Y-86238946D01*
X76394446Y-86257888D01*
X76413388Y-86273433D01*
X76434999Y-86284984D01*
X76458448Y-86292097D01*
X76535161Y-86307356D01*
X76662734Y-86332732D01*
X76872203Y-86419497D01*
X77060720Y-86545460D01*
X77221040Y-86705780D01*
X77347003Y-86894297D01*
X77433768Y-87103766D01*
X77478000Y-87326136D01*
X77478000Y-87552864D01*
X77433768Y-87775234D01*
X77347003Y-87984703D01*
X77221040Y-88173220D01*
X77060720Y-88333540D01*
X76872203Y-88459503D01*
X76662734Y-88546268D01*
X76551549Y-88568384D01*
X76440365Y-88590500D01*
X76213635Y-88590500D01*
X76102451Y-88568384D01*
X75991266Y-88546268D01*
X75781797Y-88459503D01*
X75593280Y-88333540D01*
X75432960Y-88173220D01*
X75306997Y-87984703D01*
X75220232Y-87775234D01*
X75176000Y-87552864D01*
X75176000Y-87326136D01*
X75220232Y-87103766D01*
X75306997Y-86894297D01*
X75432960Y-86705780D01*
X75593280Y-86545460D01*
X75781797Y-86419497D01*
X75991266Y-86332732D01*
X76118839Y-86307356D01*
X76195552Y-86292097D01*
X76219001Y-86284984D01*
X76240612Y-86273433D01*
X76259554Y-86257888D01*
X76275099Y-86238946D01*
X76286650Y-86217335D01*
X76293763Y-86193886D01*
X76296165Y-86169500D01*
X76293763Y-86145114D01*
X76286650Y-86121665D01*
X76275099Y-86100054D01*
X76259554Y-86081112D01*
X76240612Y-86065567D01*
X76219001Y-86054016D01*
X76195552Y-86046903D01*
X76118839Y-86031644D01*
X75991266Y-86006268D01*
X75781797Y-85919503D01*
X75593280Y-85793540D01*
X75432960Y-85633220D01*
X75306997Y-85444703D01*
X75220232Y-85235234D01*
X75176000Y-85012864D01*
X75176000Y-84786136D01*
X75220232Y-84563766D01*
X75306997Y-84354297D01*
X75432960Y-84165780D01*
X75593280Y-84005460D01*
X75781797Y-83879497D01*
X75991266Y-83792732D01*
X76118839Y-83767356D01*
X76195552Y-83752097D01*
X76219001Y-83744984D01*
X76240612Y-83733433D01*
X76259554Y-83717888D01*
X76275099Y-83698946D01*
X76286650Y-83677335D01*
X76293763Y-83653886D01*
X76296165Y-83629500D01*
X76293763Y-83605114D01*
X76286650Y-83581665D01*
X76275099Y-83560054D01*
X76259554Y-83541112D01*
X76240612Y-83525567D01*
X76219001Y-83514016D01*
X76195552Y-83506903D01*
X76118839Y-83491644D01*
X75991266Y-83466268D01*
X75781797Y-83379503D01*
X75593280Y-83253540D01*
X75432960Y-83093220D01*
X75306997Y-82904703D01*
X75220232Y-82695234D01*
X75176000Y-82472864D01*
X75176000Y-82246136D01*
X75220232Y-82023766D01*
X75306997Y-81814297D01*
X75432960Y-81625780D01*
X75593280Y-81465460D01*
X75781797Y-81339497D01*
X75991266Y-81252732D01*
X76118839Y-81227356D01*
X76195552Y-81212097D01*
X76219001Y-81204984D01*
X76240612Y-81193433D01*
X76259554Y-81177888D01*
X76275099Y-81158946D01*
X76286650Y-81137335D01*
X76293763Y-81113886D01*
X76296165Y-81089500D01*
X76293763Y-81065114D01*
X76286650Y-81041665D01*
X76275099Y-81020054D01*
X76259554Y-81001112D01*
X76240612Y-80985567D01*
X76219001Y-80974016D01*
X76195552Y-80966903D01*
X76118839Y-80951644D01*
X75991266Y-80926268D01*
X75781797Y-80839503D01*
X75593280Y-80713540D01*
X75432960Y-80553220D01*
X75306997Y-80364703D01*
X75220232Y-80155234D01*
X75176000Y-79932864D01*
X75176000Y-79706136D01*
X75220232Y-79483766D01*
X75306997Y-79274297D01*
X75432960Y-79085780D01*
X75593280Y-78925460D01*
X75781797Y-78799497D01*
X75991266Y-78712732D01*
X76118839Y-78687356D01*
X76195552Y-78672097D01*
X76219001Y-78664984D01*
X76240612Y-78653433D01*
X76259554Y-78637888D01*
X76275099Y-78618946D01*
X76286650Y-78597335D01*
X76293763Y-78573886D01*
X76296165Y-78549500D01*
X76293763Y-78525114D01*
X76286650Y-78501665D01*
X76275099Y-78480054D01*
X76259554Y-78461112D01*
X76240612Y-78445567D01*
X76219001Y-78434016D01*
X76195552Y-78426903D01*
X76118839Y-78411644D01*
X75991266Y-78386268D01*
X75781797Y-78299503D01*
X75593280Y-78173540D01*
X75432960Y-78013220D01*
X75306997Y-77824703D01*
X75220232Y-77615234D01*
X75176000Y-77392864D01*
X75176000Y-77166136D01*
X75220232Y-76943766D01*
X75306997Y-76734297D01*
X75432960Y-76545780D01*
X75593280Y-76385460D01*
X75781797Y-76259497D01*
X75991266Y-76172732D01*
X76165392Y-76138096D01*
X76188842Y-76130983D01*
X76210453Y-76119432D01*
X76229395Y-76103887D01*
X76244940Y-76084945D01*
X76256491Y-76063334D01*
X76263604Y-76039885D01*
X76266006Y-76015499D01*
X76263604Y-75991113D01*
X76256491Y-75967664D01*
X76244940Y-75946053D01*
X76229395Y-75927111D01*
X76210453Y-75911566D01*
X76188842Y-75900015D01*
X76165393Y-75892902D01*
X76141007Y-75890500D01*
X75176000Y-75890500D01*
X75176000Y-73588500D01*
X77478000Y-73588500D01*
X77478000Y-75890500D01*
X77478000Y-75890500D01*
G37*
G36*
X32774000Y-75890500D02*
G01*
X31808993Y-75890500D01*
X31784607Y-75892902D01*
X31761158Y-75900015D01*
X31739547Y-75911566D01*
X31720605Y-75927111D01*
X31705060Y-75946053D01*
X31693509Y-75967664D01*
X31686396Y-75991113D01*
X31683994Y-76015499D01*
X31686396Y-76039885D01*
X31693509Y-76063334D01*
X31705060Y-76084945D01*
X31720605Y-76103887D01*
X31739547Y-76119432D01*
X31761158Y-76130983D01*
X31784608Y-76138096D01*
X31958734Y-76172732D01*
X32168203Y-76259497D01*
X32356720Y-76385460D01*
X32517040Y-76545780D01*
X32643003Y-76734297D01*
X32729768Y-76943766D01*
X32774000Y-77166136D01*
X32774000Y-77392864D01*
X32729768Y-77615234D01*
X32643003Y-77824703D01*
X32517040Y-78013220D01*
X32356720Y-78173540D01*
X32168203Y-78299503D01*
X31958734Y-78386268D01*
X31831161Y-78411644D01*
X31754448Y-78426903D01*
X31730999Y-78434016D01*
X31709388Y-78445567D01*
X31690446Y-78461112D01*
X31674901Y-78480054D01*
X31663350Y-78501665D01*
X31656237Y-78525114D01*
X31653835Y-78549500D01*
X31656237Y-78573886D01*
X31663350Y-78597335D01*
X31674901Y-78618946D01*
X31690446Y-78637888D01*
X31709388Y-78653433D01*
X31730999Y-78664984D01*
X31754448Y-78672097D01*
X31831161Y-78687356D01*
X31958734Y-78712732D01*
X32168203Y-78799497D01*
X32356720Y-78925460D01*
X32517040Y-79085780D01*
X32643003Y-79274297D01*
X32729768Y-79483766D01*
X32774000Y-79706136D01*
X32774000Y-79932864D01*
X32729768Y-80155234D01*
X32643003Y-80364703D01*
X32517040Y-80553220D01*
X32356720Y-80713540D01*
X32168203Y-80839503D01*
X31958734Y-80926268D01*
X31831161Y-80951644D01*
X31754448Y-80966903D01*
X31730999Y-80974016D01*
X31709388Y-80985567D01*
X31690446Y-81001112D01*
X31674901Y-81020054D01*
X31663350Y-81041665D01*
X31656237Y-81065114D01*
X31653835Y-81089500D01*
X31656237Y-81113886D01*
X31663350Y-81137335D01*
X31674901Y-81158946D01*
X31690446Y-81177888D01*
X31709388Y-81193433D01*
X31730999Y-81204984D01*
X31754448Y-81212097D01*
X31831161Y-81227356D01*
X31958734Y-81252732D01*
X32168203Y-81339497D01*
X32356720Y-81465460D01*
X32517040Y-81625780D01*
X32643003Y-81814297D01*
X32729768Y-82023766D01*
X32774000Y-82246136D01*
X32774000Y-82472864D01*
X32729768Y-82695234D01*
X32643003Y-82904703D01*
X32517040Y-83093220D01*
X32356720Y-83253540D01*
X32168203Y-83379503D01*
X31958734Y-83466268D01*
X31831161Y-83491644D01*
X31754448Y-83506903D01*
X31730999Y-83514016D01*
X31709388Y-83525567D01*
X31690446Y-83541112D01*
X31674901Y-83560054D01*
X31663350Y-83581665D01*
X31656237Y-83605114D01*
X31653835Y-83629500D01*
X31656237Y-83653886D01*
X31663350Y-83677335D01*
X31674901Y-83698946D01*
X31690446Y-83717888D01*
X31709388Y-83733433D01*
X31730999Y-83744984D01*
X31754448Y-83752097D01*
X31831161Y-83767356D01*
X31958734Y-83792732D01*
X32168203Y-83879497D01*
X32356720Y-84005460D01*
X32517040Y-84165780D01*
X32643003Y-84354297D01*
X32729768Y-84563766D01*
X32774000Y-84786136D01*
X32774000Y-85012864D01*
X32729768Y-85235234D01*
X32643003Y-85444703D01*
X32517040Y-85633220D01*
X32356720Y-85793540D01*
X32168203Y-85919503D01*
X31958734Y-86006268D01*
X31831161Y-86031644D01*
X31754448Y-86046903D01*
X31730999Y-86054016D01*
X31709388Y-86065567D01*
X31690446Y-86081112D01*
X31674901Y-86100054D01*
X31663350Y-86121665D01*
X31656237Y-86145114D01*
X31653835Y-86169500D01*
X31656237Y-86193886D01*
X31663350Y-86217335D01*
X31674901Y-86238946D01*
X31690446Y-86257888D01*
X31709388Y-86273433D01*
X31730999Y-86284984D01*
X31754448Y-86292097D01*
X31831161Y-86307356D01*
X31958734Y-86332732D01*
X32168203Y-86419497D01*
X32356720Y-86545460D01*
X32517040Y-86705780D01*
X32643003Y-86894297D01*
X32729768Y-87103766D01*
X32774000Y-87326136D01*
X32774000Y-87552864D01*
X32729768Y-87775234D01*
X32643003Y-87984703D01*
X32517040Y-88173220D01*
X32356720Y-88333540D01*
X32168203Y-88459503D01*
X31958734Y-88546268D01*
X31847549Y-88568384D01*
X31736365Y-88590500D01*
X31509635Y-88590500D01*
X31398451Y-88568384D01*
X31287266Y-88546268D01*
X31077797Y-88459503D01*
X30889280Y-88333540D01*
X30728960Y-88173220D01*
X30602997Y-87984703D01*
X30516232Y-87775234D01*
X30472000Y-87552864D01*
X30472000Y-87326136D01*
X30516232Y-87103766D01*
X30602997Y-86894297D01*
X30728960Y-86705780D01*
X30889280Y-86545460D01*
X31077797Y-86419497D01*
X31287266Y-86332732D01*
X31414839Y-86307356D01*
X31491552Y-86292097D01*
X31515001Y-86284984D01*
X31536612Y-86273433D01*
X31555554Y-86257888D01*
X31571099Y-86238946D01*
X31582650Y-86217335D01*
X31589763Y-86193886D01*
X31592165Y-86169500D01*
X31589763Y-86145114D01*
X31582650Y-86121665D01*
X31571099Y-86100054D01*
X31555554Y-86081112D01*
X31536612Y-86065567D01*
X31515001Y-86054016D01*
X31491552Y-86046903D01*
X31414839Y-86031644D01*
X31287266Y-86006268D01*
X31077797Y-85919503D01*
X30889280Y-85793540D01*
X30728960Y-85633220D01*
X30602997Y-85444703D01*
X30516232Y-85235234D01*
X30472000Y-85012864D01*
X30472000Y-84786136D01*
X30516232Y-84563766D01*
X30602997Y-84354297D01*
X30728960Y-84165780D01*
X30889280Y-84005460D01*
X31077797Y-83879497D01*
X31287266Y-83792732D01*
X31414839Y-83767356D01*
X31491552Y-83752097D01*
X31515001Y-83744984D01*
X31536612Y-83733433D01*
X31555554Y-83717888D01*
X31571099Y-83698946D01*
X31582650Y-83677335D01*
X31589763Y-83653886D01*
X31592165Y-83629500D01*
X31589763Y-83605114D01*
X31582650Y-83581665D01*
X31571099Y-83560054D01*
X31555554Y-83541112D01*
X31536612Y-83525567D01*
X31515001Y-83514016D01*
X31491552Y-83506903D01*
X31414839Y-83491644D01*
X31287266Y-83466268D01*
X31077797Y-83379503D01*
X30889280Y-83253540D01*
X30728960Y-83093220D01*
X30602997Y-82904703D01*
X30516232Y-82695234D01*
X30472000Y-82472864D01*
X30472000Y-82246136D01*
X30516232Y-82023766D01*
X30602997Y-81814297D01*
X30728960Y-81625780D01*
X30889280Y-81465460D01*
X31077797Y-81339497D01*
X31287266Y-81252732D01*
X31414839Y-81227356D01*
X31491552Y-81212097D01*
X31515001Y-81204984D01*
X31536612Y-81193433D01*
X31555554Y-81177888D01*
X31571099Y-81158946D01*
X31582650Y-81137335D01*
X31589763Y-81113886D01*
X31592165Y-81089500D01*
X31589763Y-81065114D01*
X31582650Y-81041665D01*
X31571099Y-81020054D01*
X31555554Y-81001112D01*
X31536612Y-80985567D01*
X31515001Y-80974016D01*
X31491552Y-80966903D01*
X31414839Y-80951644D01*
X31287266Y-80926268D01*
X31077797Y-80839503D01*
X30889280Y-80713540D01*
X30728960Y-80553220D01*
X30602997Y-80364703D01*
X30516232Y-80155234D01*
X30472000Y-79932864D01*
X30472000Y-79706136D01*
X30516232Y-79483766D01*
X30602997Y-79274297D01*
X30728960Y-79085780D01*
X30889280Y-78925460D01*
X31077797Y-78799497D01*
X31287266Y-78712732D01*
X31414839Y-78687356D01*
X31491552Y-78672097D01*
X31515001Y-78664984D01*
X31536612Y-78653433D01*
X31555554Y-78637888D01*
X31571099Y-78618946D01*
X31582650Y-78597335D01*
X31589763Y-78573886D01*
X31592165Y-78549500D01*
X31589763Y-78525114D01*
X31582650Y-78501665D01*
X31571099Y-78480054D01*
X31555554Y-78461112D01*
X31536612Y-78445567D01*
X31515001Y-78434016D01*
X31491552Y-78426903D01*
X31414839Y-78411644D01*
X31287266Y-78386268D01*
X31077797Y-78299503D01*
X30889280Y-78173540D01*
X30728960Y-78013220D01*
X30602997Y-77824703D01*
X30516232Y-77615234D01*
X30472000Y-77392864D01*
X30472000Y-77166136D01*
X30516232Y-76943766D01*
X30602997Y-76734297D01*
X30728960Y-76545780D01*
X30889280Y-76385460D01*
X31077797Y-76259497D01*
X31287266Y-76172732D01*
X31461392Y-76138096D01*
X31484842Y-76130983D01*
X31506453Y-76119432D01*
X31525395Y-76103887D01*
X31540940Y-76084945D01*
X31552491Y-76063334D01*
X31559604Y-76039885D01*
X31562006Y-76015499D01*
X31559604Y-75991113D01*
X31552491Y-75967664D01*
X31540940Y-75946053D01*
X31525395Y-75927111D01*
X31506453Y-75911566D01*
X31484842Y-75900015D01*
X31461393Y-75892902D01*
X31437007Y-75890500D01*
X30472000Y-75890500D01*
X30472000Y-73588500D01*
X32774000Y-73588500D01*
X32774000Y-75890500D01*
X32774000Y-75890500D01*
G37*
G36*
X76390880Y-67490776D02*
G01*
X76771593Y-67566504D01*
X77181249Y-67736189D01*
X77549929Y-67982534D01*
X77863466Y-68296071D01*
X78109811Y-68664751D01*
X78279496Y-69074407D01*
X78366000Y-69509296D01*
X78366000Y-69952704D01*
X78279496Y-70387593D01*
X78109811Y-70797249D01*
X77863466Y-71165929D01*
X77549929Y-71479466D01*
X77181249Y-71725811D01*
X76771593Y-71895496D01*
X76390880Y-71971224D01*
X76336705Y-71982000D01*
X75893295Y-71982000D01*
X75839120Y-71971224D01*
X75458407Y-71895496D01*
X75048751Y-71725811D01*
X74680071Y-71479466D01*
X74366534Y-71165929D01*
X74120189Y-70797249D01*
X73950504Y-70387593D01*
X73864000Y-69952704D01*
X73864000Y-69509296D01*
X73950504Y-69074407D01*
X74120189Y-68664751D01*
X74366534Y-68296071D01*
X74680071Y-67982534D01*
X75048751Y-67736189D01*
X75458407Y-67566504D01*
X75839120Y-67490776D01*
X75893295Y-67480000D01*
X76336705Y-67480000D01*
X76390880Y-67490776D01*
X76390880Y-67490776D01*
G37*
G36*
X31390880Y-67490776D02*
G01*
X31771593Y-67566504D01*
X32181249Y-67736189D01*
X32549929Y-67982534D01*
X32863466Y-68296071D01*
X33109811Y-68664751D01*
X33279496Y-69074407D01*
X33366000Y-69509296D01*
X33366000Y-69952704D01*
X33279496Y-70387593D01*
X33109811Y-70797249D01*
X32863466Y-71165929D01*
X32549929Y-71479466D01*
X32181249Y-71725811D01*
X31771593Y-71895496D01*
X31390880Y-71971224D01*
X31336705Y-71982000D01*
X30893295Y-71982000D01*
X30839120Y-71971224D01*
X30458407Y-71895496D01*
X30048751Y-71725811D01*
X29680071Y-71479466D01*
X29366534Y-71165929D01*
X29120189Y-70797249D01*
X28950504Y-70387593D01*
X28864000Y-69952704D01*
X28864000Y-69509296D01*
X28950504Y-69074407D01*
X29120189Y-68664751D01*
X29366534Y-68296071D01*
X29680071Y-67982534D01*
X30048751Y-67736189D01*
X30458407Y-67566504D01*
X30839120Y-67490776D01*
X30893295Y-67480000D01*
X31336705Y-67480000D01*
X31390880Y-67490776D01*
X31390880Y-67490776D01*
G37*
G36*
X57387442Y-65717018D02*
G01*
X57453627Y-65723537D01*
X57623466Y-65775057D01*
X57779991Y-65858722D01*
X57815729Y-65888052D01*
X57917186Y-65971314D01*
X58000448Y-66072771D01*
X58029778Y-66108509D01*
X58113443Y-66265034D01*
X58164963Y-66434873D01*
X58182359Y-66611500D01*
X58164963Y-66788127D01*
X58113443Y-66957966D01*
X58029778Y-67114491D01*
X58000448Y-67150229D01*
X57917186Y-67251686D01*
X57815729Y-67334948D01*
X57779991Y-67364278D01*
X57623466Y-67447943D01*
X57453627Y-67499463D01*
X57387442Y-67505982D01*
X57321260Y-67512500D01*
X57232740Y-67512500D01*
X57166558Y-67505982D01*
X57100373Y-67499463D01*
X56930534Y-67447943D01*
X56774009Y-67364278D01*
X56738271Y-67334948D01*
X56636814Y-67251686D01*
X56553552Y-67150229D01*
X56524222Y-67114491D01*
X56440557Y-66957966D01*
X56389037Y-66788127D01*
X56371641Y-66611500D01*
X56389037Y-66434873D01*
X56440557Y-66265034D01*
X56524222Y-66108509D01*
X56553552Y-66072771D01*
X56636814Y-65971314D01*
X56738271Y-65888052D01*
X56774009Y-65858722D01*
X56930534Y-65775057D01*
X57100373Y-65723537D01*
X57166558Y-65717018D01*
X57232740Y-65710500D01*
X57321260Y-65710500D01*
X57387442Y-65717018D01*
X57387442Y-65717018D01*
G37*
G36*
X62467442Y-65717018D02*
G01*
X62533627Y-65723537D01*
X62703466Y-65775057D01*
X62859991Y-65858722D01*
X62895729Y-65888052D01*
X62997186Y-65971314D01*
X63080448Y-66072771D01*
X63109778Y-66108509D01*
X63193443Y-66265034D01*
X63244963Y-66434873D01*
X63262359Y-66611500D01*
X63244963Y-66788127D01*
X63193443Y-66957966D01*
X63109778Y-67114491D01*
X63080448Y-67150229D01*
X62997186Y-67251686D01*
X62895729Y-67334948D01*
X62859991Y-67364278D01*
X62703466Y-67447943D01*
X62533627Y-67499463D01*
X62467442Y-67505982D01*
X62401260Y-67512500D01*
X62312740Y-67512500D01*
X62246558Y-67505982D01*
X62180373Y-67499463D01*
X62010534Y-67447943D01*
X61854009Y-67364278D01*
X61818271Y-67334948D01*
X61716814Y-67251686D01*
X61633552Y-67150229D01*
X61604222Y-67114491D01*
X61520557Y-66957966D01*
X61469037Y-66788127D01*
X61451641Y-66611500D01*
X61469037Y-66434873D01*
X61520557Y-66265034D01*
X61604222Y-66108509D01*
X61633552Y-66072771D01*
X61716814Y-65971314D01*
X61818271Y-65888052D01*
X61854009Y-65858722D01*
X62010534Y-65775057D01*
X62180373Y-65723537D01*
X62246558Y-65717018D01*
X62312740Y-65710500D01*
X62401260Y-65710500D01*
X62467442Y-65717018D01*
X62467442Y-65717018D01*
G37*
G36*
X59927442Y-65717018D02*
G01*
X59993627Y-65723537D01*
X60163466Y-65775057D01*
X60319991Y-65858722D01*
X60355729Y-65888052D01*
X60457186Y-65971314D01*
X60540448Y-66072771D01*
X60569778Y-66108509D01*
X60653443Y-66265034D01*
X60704963Y-66434873D01*
X60722359Y-66611500D01*
X60704963Y-66788127D01*
X60653443Y-66957966D01*
X60569778Y-67114491D01*
X60540448Y-67150229D01*
X60457186Y-67251686D01*
X60355729Y-67334948D01*
X60319991Y-67364278D01*
X60163466Y-67447943D01*
X59993627Y-67499463D01*
X59927442Y-67505982D01*
X59861260Y-67512500D01*
X59772740Y-67512500D01*
X59706558Y-67505982D01*
X59640373Y-67499463D01*
X59470534Y-67447943D01*
X59314009Y-67364278D01*
X59278271Y-67334948D01*
X59176814Y-67251686D01*
X59093552Y-67150229D01*
X59064222Y-67114491D01*
X58980557Y-66957966D01*
X58929037Y-66788127D01*
X58911641Y-66611500D01*
X58929037Y-66434873D01*
X58980557Y-66265034D01*
X59064222Y-66108509D01*
X59093552Y-66072771D01*
X59176814Y-65971314D01*
X59278271Y-65888052D01*
X59314009Y-65858722D01*
X59470534Y-65775057D01*
X59640373Y-65723537D01*
X59706558Y-65717018D01*
X59772740Y-65710500D01*
X59861260Y-65710500D01*
X59927442Y-65717018D01*
X59927442Y-65717018D01*
G37*
G36*
X55638000Y-67512500D02*
G01*
X53836000Y-67512500D01*
X53836000Y-65710500D01*
X55638000Y-65710500D01*
X55638000Y-67512500D01*
X55638000Y-67512500D01*
G37*
G36*
X73804007Y-59323438D02*
G01*
X73933473Y-59377065D01*
X74049990Y-59454919D01*
X74149081Y-59554010D01*
X74226935Y-59670527D01*
X74280562Y-59799993D01*
X74307900Y-59937432D01*
X74307900Y-60077568D01*
X74280562Y-60215007D01*
X74226935Y-60344473D01*
X74149081Y-60460990D01*
X74049990Y-60560081D01*
X73933473Y-60637935D01*
X73804007Y-60691562D01*
X73666568Y-60718900D01*
X73526432Y-60718900D01*
X73388993Y-60691562D01*
X73259527Y-60637935D01*
X73143010Y-60560081D01*
X73043919Y-60460990D01*
X72966065Y-60344473D01*
X72912438Y-60215007D01*
X72885100Y-60077568D01*
X72885100Y-59937432D01*
X72912438Y-59799993D01*
X72966065Y-59670527D01*
X73043919Y-59554010D01*
X73143010Y-59454919D01*
X73259527Y-59377065D01*
X73388993Y-59323438D01*
X73526432Y-59296100D01*
X73666568Y-59296100D01*
X73804007Y-59323438D01*
X73804007Y-59323438D01*
G37*
G36*
X73804007Y-54497438D02*
G01*
X73933473Y-54551065D01*
X74049990Y-54628919D01*
X74149081Y-54728010D01*
X74226935Y-54844527D01*
X74280562Y-54973993D01*
X74307900Y-55111432D01*
X74307900Y-55251568D01*
X74280562Y-55389007D01*
X74226935Y-55518473D01*
X74149081Y-55634990D01*
X74049990Y-55734081D01*
X73933473Y-55811935D01*
X73804007Y-55865562D01*
X73666568Y-55892900D01*
X73526432Y-55892900D01*
X73388993Y-55865562D01*
X73259527Y-55811935D01*
X73143010Y-55734081D01*
X73043919Y-55634990D01*
X72966065Y-55518473D01*
X72912438Y-55389007D01*
X72885100Y-55251568D01*
X72885100Y-55111432D01*
X72912438Y-54973993D01*
X72966065Y-54844527D01*
X73043919Y-54728010D01*
X73143010Y-54628919D01*
X73259527Y-54551065D01*
X73388993Y-54497438D01*
X73526432Y-54470100D01*
X73666568Y-54470100D01*
X73804007Y-54497438D01*
X73804007Y-54497438D01*
G37*
G36*
X31418385Y-52677617D02*
G01*
X31451979Y-52680926D01*
X31527894Y-52703954D01*
X31581295Y-52720153D01*
X31700464Y-52783851D01*
X31804923Y-52869577D01*
X31890649Y-52974036D01*
X31954347Y-53093205D01*
X31993574Y-53222522D01*
X32006819Y-53357000D01*
X31993574Y-53491478D01*
X31954347Y-53620795D01*
X31890649Y-53739964D01*
X31804923Y-53844423D01*
X31700464Y-53930149D01*
X31581295Y-53993847D01*
X31527894Y-54010046D01*
X31451979Y-54033074D01*
X31418385Y-54036383D01*
X31351200Y-54043000D01*
X30013800Y-54043000D01*
X29946615Y-54036383D01*
X29913021Y-54033074D01*
X29837106Y-54010046D01*
X29783705Y-53993847D01*
X29664536Y-53930149D01*
X29560077Y-53844423D01*
X29474351Y-53739964D01*
X29410653Y-53620795D01*
X29371426Y-53491478D01*
X29358181Y-53357000D01*
X29371426Y-53222522D01*
X29410653Y-53093205D01*
X29474351Y-52974036D01*
X29560077Y-52869577D01*
X29664536Y-52783851D01*
X29783705Y-52720153D01*
X29837106Y-52703954D01*
X29913021Y-52680926D01*
X29946615Y-52677617D01*
X30013800Y-52671000D01*
X31351200Y-52671000D01*
X31418385Y-52677617D01*
X31418385Y-52677617D01*
G37*
G36*
X36168385Y-52677617D02*
G01*
X36201979Y-52680926D01*
X36277894Y-52703954D01*
X36331295Y-52720153D01*
X36450464Y-52783851D01*
X36554923Y-52869577D01*
X36640649Y-52974036D01*
X36704347Y-53093205D01*
X36743574Y-53222522D01*
X36756819Y-53357000D01*
X36743574Y-53491478D01*
X36704347Y-53620795D01*
X36640649Y-53739964D01*
X36554923Y-53844423D01*
X36450464Y-53930149D01*
X36331295Y-53993847D01*
X36277894Y-54010046D01*
X36201979Y-54033074D01*
X36168385Y-54036383D01*
X36101200Y-54043000D01*
X34763800Y-54043000D01*
X34696615Y-54036383D01*
X34663021Y-54033074D01*
X34587106Y-54010046D01*
X34533705Y-53993847D01*
X34414536Y-53930149D01*
X34310077Y-53844423D01*
X34224351Y-53739964D01*
X34160653Y-53620795D01*
X34121426Y-53491478D01*
X34108181Y-53357000D01*
X34121426Y-53222522D01*
X34160653Y-53093205D01*
X34224351Y-52974036D01*
X34310077Y-52869577D01*
X34414536Y-52783851D01*
X34533705Y-52720153D01*
X34587106Y-52703954D01*
X34663021Y-52680926D01*
X34696615Y-52677617D01*
X34763800Y-52671000D01*
X36101200Y-52671000D01*
X36168385Y-52677617D01*
X36168385Y-52677617D01*
G37*
G36*
X48878443Y-48889519D02*
G01*
X48944627Y-48896037D01*
X49114466Y-48947557D01*
X49270991Y-49031222D01*
X49306729Y-49060552D01*
X49408186Y-49143814D01*
X49491448Y-49245271D01*
X49520778Y-49281009D01*
X49604443Y-49437534D01*
X49655963Y-49607373D01*
X49673359Y-49784000D01*
X49655963Y-49960627D01*
X49604443Y-50130466D01*
X49520778Y-50286991D01*
X49491448Y-50322729D01*
X49408186Y-50424186D01*
X49306729Y-50507448D01*
X49270991Y-50536778D01*
X49114466Y-50620443D01*
X48944627Y-50671963D01*
X48878443Y-50678481D01*
X48812260Y-50685000D01*
X48723740Y-50685000D01*
X48657557Y-50678481D01*
X48591373Y-50671963D01*
X48421534Y-50620443D01*
X48265009Y-50536778D01*
X48229271Y-50507448D01*
X48127814Y-50424186D01*
X48044552Y-50322729D01*
X48015222Y-50286991D01*
X47931557Y-50130466D01*
X47880037Y-49960627D01*
X47862641Y-49784000D01*
X47880037Y-49607373D01*
X47931557Y-49437534D01*
X48015222Y-49281009D01*
X48044552Y-49245271D01*
X48127814Y-49143814D01*
X48229271Y-49060552D01*
X48265009Y-49031222D01*
X48421534Y-48947557D01*
X48591373Y-48896037D01*
X48657557Y-48889519D01*
X48723740Y-48883000D01*
X48812260Y-48883000D01*
X48878443Y-48889519D01*
X48878443Y-48889519D01*
G37*
G36*
X49669000Y-48145000D02*
G01*
X47867000Y-48145000D01*
X47867000Y-46343000D01*
X49669000Y-46343000D01*
X49669000Y-48145000D01*
X49669000Y-48145000D01*
G37*
G36*
X62530943Y-46349519D02*
G01*
X62597127Y-46356037D01*
X62766966Y-46407557D01*
X62923491Y-46491222D01*
X62959229Y-46520552D01*
X63060686Y-46603814D01*
X63143948Y-46705271D01*
X63173278Y-46741009D01*
X63256943Y-46897534D01*
X63308463Y-47067373D01*
X63325859Y-47244000D01*
X63308463Y-47420627D01*
X63256943Y-47590466D01*
X63173278Y-47746991D01*
X63143948Y-47782729D01*
X63060686Y-47884186D01*
X62959229Y-47967448D01*
X62923491Y-47996778D01*
X62766966Y-48080443D01*
X62597127Y-48131963D01*
X62530943Y-48138481D01*
X62464760Y-48145000D01*
X62376240Y-48145000D01*
X62310058Y-48138482D01*
X62243873Y-48131963D01*
X62074034Y-48080443D01*
X61917509Y-47996778D01*
X61881771Y-47967448D01*
X61780314Y-47884186D01*
X61697052Y-47782729D01*
X61667722Y-47746991D01*
X61584057Y-47590466D01*
X61532537Y-47420627D01*
X61515141Y-47244000D01*
X61532537Y-47067373D01*
X61584057Y-46897534D01*
X61667722Y-46741009D01*
X61697052Y-46705271D01*
X61780314Y-46603814D01*
X61881771Y-46520552D01*
X61917509Y-46491222D01*
X62074034Y-46407557D01*
X62243873Y-46356037D01*
X62310057Y-46349519D01*
X62376240Y-46343000D01*
X62464760Y-46343000D01*
X62530943Y-46349519D01*
X62530943Y-46349519D01*
G37*
G36*
X65070943Y-46349519D02*
G01*
X65137127Y-46356037D01*
X65306966Y-46407557D01*
X65463491Y-46491222D01*
X65499229Y-46520552D01*
X65600686Y-46603814D01*
X65683948Y-46705271D01*
X65713278Y-46741009D01*
X65796943Y-46897534D01*
X65848463Y-47067373D01*
X65865859Y-47244000D01*
X65848463Y-47420627D01*
X65796943Y-47590466D01*
X65713278Y-47746991D01*
X65683948Y-47782729D01*
X65600686Y-47884186D01*
X65499229Y-47967448D01*
X65463491Y-47996778D01*
X65306966Y-48080443D01*
X65137127Y-48131963D01*
X65070943Y-48138481D01*
X65004760Y-48145000D01*
X64916240Y-48145000D01*
X64850058Y-48138482D01*
X64783873Y-48131963D01*
X64614034Y-48080443D01*
X64457509Y-47996778D01*
X64421771Y-47967448D01*
X64320314Y-47884186D01*
X64237052Y-47782729D01*
X64207722Y-47746991D01*
X64124057Y-47590466D01*
X64072537Y-47420627D01*
X64055141Y-47244000D01*
X64072537Y-47067373D01*
X64124057Y-46897534D01*
X64207722Y-46741009D01*
X64237052Y-46705271D01*
X64320314Y-46603814D01*
X64421771Y-46520552D01*
X64457509Y-46491222D01*
X64614034Y-46407557D01*
X64783873Y-46356037D01*
X64850057Y-46349519D01*
X64916240Y-46343000D01*
X65004760Y-46343000D01*
X65070943Y-46349519D01*
X65070943Y-46349519D01*
G37*
G36*
X59990943Y-46349519D02*
G01*
X60057127Y-46356037D01*
X60226966Y-46407557D01*
X60383491Y-46491222D01*
X60419229Y-46520552D01*
X60520686Y-46603814D01*
X60603948Y-46705271D01*
X60633278Y-46741009D01*
X60716943Y-46897534D01*
X60768463Y-47067373D01*
X60785859Y-47244000D01*
X60768463Y-47420627D01*
X60716943Y-47590466D01*
X60633278Y-47746991D01*
X60603948Y-47782729D01*
X60520686Y-47884186D01*
X60419229Y-47967448D01*
X60383491Y-47996778D01*
X60226966Y-48080443D01*
X60057127Y-48131963D01*
X59990943Y-48138481D01*
X59924760Y-48145000D01*
X59836240Y-48145000D01*
X59770058Y-48138482D01*
X59703873Y-48131963D01*
X59534034Y-48080443D01*
X59377509Y-47996778D01*
X59341771Y-47967448D01*
X59240314Y-47884186D01*
X59157052Y-47782729D01*
X59127722Y-47746991D01*
X59044057Y-47590466D01*
X58992537Y-47420627D01*
X58975141Y-47244000D01*
X58992537Y-47067373D01*
X59044057Y-46897534D01*
X59127722Y-46741009D01*
X59157052Y-46705271D01*
X59240314Y-46603814D01*
X59341771Y-46520552D01*
X59377509Y-46491222D01*
X59534034Y-46407557D01*
X59703873Y-46356037D01*
X59770057Y-46349519D01*
X59836240Y-46343000D01*
X59924760Y-46343000D01*
X59990943Y-46349519D01*
X59990943Y-46349519D01*
G37*
G36*
X57450943Y-46349519D02*
G01*
X57517127Y-46356037D01*
X57686966Y-46407557D01*
X57843491Y-46491222D01*
X57879229Y-46520552D01*
X57980686Y-46603814D01*
X58063948Y-46705271D01*
X58093278Y-46741009D01*
X58176943Y-46897534D01*
X58228463Y-47067373D01*
X58245859Y-47244000D01*
X58228463Y-47420627D01*
X58176943Y-47590466D01*
X58093278Y-47746991D01*
X58063948Y-47782729D01*
X57980686Y-47884186D01*
X57879229Y-47967448D01*
X57843491Y-47996778D01*
X57686966Y-48080443D01*
X57517127Y-48131963D01*
X57450943Y-48138481D01*
X57384760Y-48145000D01*
X57296240Y-48145000D01*
X57230058Y-48138482D01*
X57163873Y-48131963D01*
X56994034Y-48080443D01*
X56837509Y-47996778D01*
X56801771Y-47967448D01*
X56700314Y-47884186D01*
X56617052Y-47782729D01*
X56587722Y-47746991D01*
X56504057Y-47590466D01*
X56452537Y-47420627D01*
X56435141Y-47244000D01*
X56452537Y-47067373D01*
X56504057Y-46897534D01*
X56587722Y-46741009D01*
X56617052Y-46705271D01*
X56700314Y-46603814D01*
X56801771Y-46520552D01*
X56837509Y-46491222D01*
X56994034Y-46407557D01*
X57163873Y-46356037D01*
X57230057Y-46349519D01*
X57296240Y-46343000D01*
X57384760Y-46343000D01*
X57450943Y-46349519D01*
X57450943Y-46349519D01*
G37*
G36*
X54910943Y-46349519D02*
G01*
X54977127Y-46356037D01*
X55146966Y-46407557D01*
X55303491Y-46491222D01*
X55339229Y-46520552D01*
X55440686Y-46603814D01*
X55523948Y-46705271D01*
X55553278Y-46741009D01*
X55636943Y-46897534D01*
X55688463Y-47067373D01*
X55705859Y-47244000D01*
X55688463Y-47420627D01*
X55636943Y-47590466D01*
X55553278Y-47746991D01*
X55523948Y-47782729D01*
X55440686Y-47884186D01*
X55339229Y-47967448D01*
X55303491Y-47996778D01*
X55146966Y-48080443D01*
X54977127Y-48131963D01*
X54910943Y-48138481D01*
X54844760Y-48145000D01*
X54756240Y-48145000D01*
X54690058Y-48138482D01*
X54623873Y-48131963D01*
X54454034Y-48080443D01*
X54297509Y-47996778D01*
X54261771Y-47967448D01*
X54160314Y-47884186D01*
X54077052Y-47782729D01*
X54047722Y-47746991D01*
X53964057Y-47590466D01*
X53912537Y-47420627D01*
X53895141Y-47244000D01*
X53912537Y-47067373D01*
X53964057Y-46897534D01*
X54047722Y-46741009D01*
X54077052Y-46705271D01*
X54160314Y-46603814D01*
X54261771Y-46520552D01*
X54297509Y-46491222D01*
X54454034Y-46407557D01*
X54623873Y-46356037D01*
X54690057Y-46349519D01*
X54756240Y-46343000D01*
X54844760Y-46343000D01*
X54910943Y-46349519D01*
X54910943Y-46349519D01*
G37*
G36*
X53161500Y-48145000D02*
G01*
X51359500Y-48145000D01*
X51359500Y-46343000D01*
X53161500Y-46343000D01*
X53161500Y-48145000D01*
X53161500Y-48145000D01*
G37*
G36*
X31418385Y-45277617D02*
G01*
X31451979Y-45280926D01*
X31527894Y-45303954D01*
X31581295Y-45320153D01*
X31700464Y-45383851D01*
X31804923Y-45469577D01*
X31890649Y-45574036D01*
X31954347Y-45693205D01*
X31993574Y-45822522D01*
X32006819Y-45957000D01*
X31993574Y-46091478D01*
X31954347Y-46220795D01*
X31890649Y-46339964D01*
X31804923Y-46444423D01*
X31700464Y-46530149D01*
X31581295Y-46593847D01*
X31548437Y-46603814D01*
X31451979Y-46633074D01*
X31418385Y-46636383D01*
X31351200Y-46643000D01*
X30013800Y-46643000D01*
X29946615Y-46636383D01*
X29913021Y-46633074D01*
X29816563Y-46603814D01*
X29783705Y-46593847D01*
X29664536Y-46530149D01*
X29560077Y-46444423D01*
X29474351Y-46339964D01*
X29410653Y-46220795D01*
X29371426Y-46091478D01*
X29358181Y-45957000D01*
X29371426Y-45822522D01*
X29410653Y-45693205D01*
X29474351Y-45574036D01*
X29560077Y-45469577D01*
X29664536Y-45383851D01*
X29783705Y-45320153D01*
X29837106Y-45303954D01*
X29913021Y-45280926D01*
X29946615Y-45277617D01*
X30013800Y-45271000D01*
X31351200Y-45271000D01*
X31418385Y-45277617D01*
X31418385Y-45277617D01*
G37*
G36*
X36168385Y-45277617D02*
G01*
X36201979Y-45280926D01*
X36277894Y-45303954D01*
X36331295Y-45320153D01*
X36450464Y-45383851D01*
X36554923Y-45469577D01*
X36640649Y-45574036D01*
X36704347Y-45693205D01*
X36743574Y-45822522D01*
X36756819Y-45957000D01*
X36743574Y-46091478D01*
X36704347Y-46220795D01*
X36640649Y-46339964D01*
X36554923Y-46444423D01*
X36450464Y-46530149D01*
X36331295Y-46593847D01*
X36298437Y-46603814D01*
X36201979Y-46633074D01*
X36168385Y-46636383D01*
X36101200Y-46643000D01*
X34763800Y-46643000D01*
X34696615Y-46636383D01*
X34663021Y-46633074D01*
X34566563Y-46603814D01*
X34533705Y-46593847D01*
X34414536Y-46530149D01*
X34310077Y-46444423D01*
X34224351Y-46339964D01*
X34160653Y-46220795D01*
X34121426Y-46091478D01*
X34108181Y-45957000D01*
X34121426Y-45822522D01*
X34160653Y-45693205D01*
X34224351Y-45574036D01*
X34310077Y-45469577D01*
X34414536Y-45383851D01*
X34533705Y-45320153D01*
X34587106Y-45303954D01*
X34663021Y-45280926D01*
X34696615Y-45277617D01*
X34763800Y-45271000D01*
X36101200Y-45271000D01*
X36168385Y-45277617D01*
X36168385Y-45277617D01*
G37*
M02*
