G04 #@! TF.GenerationSoftware,KiCad,Pcbnew,(5.1.2-1)-1*
G04 #@! TF.CreationDate,2019-05-13T23:44:12-03:00*
G04 #@! TF.ProjectId,Capivara,43617069-7661-4726-912e-6b696361645f,rev?*
G04 #@! TF.SameCoordinates,Original*
G04 #@! TF.FileFunction,Copper,L2,Bot*
G04 #@! TF.FilePolarity,Positive*
%FSLAX46Y46*%
G04 Gerber Fmt 4.6, Leading zero omitted, Abs format (unit mm)*
G04 Created by KiCad (PCBNEW (5.1.2-1)-1) date 2019-05-13 23:44:12*
%MOMM*%
%LPD*%
G04 APERTURE LIST*
%ADD10O,1.700000X1.700000*%
%ADD11R,1.700000X1.700000*%
%ADD12C,4.400000*%
%ADD13C,2.200000*%
%ADD14R,2.200000X2.200000*%
%ADD15O,2.540000X1.270000*%
%ADD16C,1.320800*%
%ADD17C,0.800000*%
%ADD18C,0.500000*%
%ADD19C,0.250000*%
%ADD20C,0.200000*%
G04 APERTURE END LIST*
D10*
X48768000Y-49784000D03*
D11*
X48768000Y-47244000D03*
D12*
X76115000Y-69731000D03*
X31115000Y-69731000D03*
D11*
X54737000Y-66611500D03*
D10*
X57277000Y-66611500D03*
X59817000Y-66611500D03*
X62357000Y-66611500D03*
D11*
X52260500Y-47244000D03*
D10*
X54800500Y-47244000D03*
X57340500Y-47244000D03*
X59880500Y-47244000D03*
X62420500Y-47244000D03*
X64960500Y-47244000D03*
D13*
X31623000Y-87439500D03*
X31623000Y-84899500D03*
X31623000Y-82359500D03*
X31623000Y-79819500D03*
X31623000Y-77279500D03*
D14*
X31623000Y-74739500D03*
X76327000Y-74739500D03*
D13*
X76327000Y-77279500D03*
X76327000Y-79819500D03*
X76327000Y-82359500D03*
X76327000Y-84899500D03*
X76327000Y-87439500D03*
D15*
X35432500Y-53357000D03*
X30682500Y-53357000D03*
X30682500Y-45957000D03*
X35432500Y-45957000D03*
D16*
X73596500Y-55181500D03*
X73596500Y-60007500D03*
D17*
X41529000Y-63119000D03*
X41465500Y-62166500D03*
X41465500Y-64071500D03*
X33528000Y-64262000D03*
X33528000Y-61722000D03*
X39941500Y-48323500D03*
X62801500Y-69088000D03*
X65913000Y-59563000D03*
X69850000Y-64770000D03*
X68199000Y-63563500D03*
X57086500Y-50736500D03*
X55943500Y-50673000D03*
X36449000Y-67500500D03*
X35369500Y-60769500D03*
X56197500Y-61150500D03*
X56134000Y-62801500D03*
X46101000Y-60896500D03*
X44831000Y-59499500D03*
X46101000Y-52705000D03*
X60833000Y-74993500D03*
X62928500Y-71564500D03*
X63055500Y-78740000D03*
X63055500Y-80073500D03*
X66929000Y-56171000D03*
X68453000Y-56134000D03*
X69850000Y-56134000D03*
X73533000Y-76898500D03*
X64923500Y-51625500D03*
X57086500Y-73342500D03*
X62738000Y-50165000D03*
X53340000Y-59102503D03*
X57277000Y-62801500D03*
X62865000Y-72834500D03*
X62103000Y-73850500D03*
X37719000Y-50228500D03*
X53340000Y-58102500D03*
X44767500Y-84328000D03*
X41529000Y-75184000D03*
X51435000Y-65405000D03*
X60960000Y-50165000D03*
X47688500Y-76708000D03*
X51752500Y-85407500D03*
X38426108Y-49521392D03*
X52688810Y-57343583D03*
X43116500Y-53403500D03*
X42354500Y-52895500D03*
X43815000Y-53911500D03*
D18*
X41529000Y-63119000D02*
X41973500Y-63119000D01*
X41465500Y-62166500D02*
X42031185Y-62166500D01*
X41465500Y-64071500D02*
X42037000Y-64071500D01*
X33528000Y-64262000D02*
X34093685Y-64262000D01*
X33528000Y-61722000D02*
X34093685Y-61722000D01*
X39941500Y-48323500D02*
X40449500Y-48323500D01*
X62801500Y-69088000D02*
X62230000Y-69088000D01*
D19*
X65913000Y-59563000D02*
X66478685Y-59563000D01*
X69850000Y-64770000D02*
X69850000Y-64204315D01*
X68199000Y-63563500D02*
X68643500Y-63563500D01*
D18*
X36449000Y-61849000D02*
X35369500Y-60769500D01*
X36449000Y-67500500D02*
X36449000Y-61849000D01*
D19*
X64923500Y-67723315D02*
X64923500Y-51625500D01*
X73533000Y-76332815D02*
X64923500Y-67723315D01*
X73533000Y-76898500D02*
X73533000Y-76332815D01*
X57086500Y-73342500D02*
X60388500Y-70040500D01*
X62922002Y-70040500D02*
X64198500Y-68764002D01*
X60388500Y-70040500D02*
X62922002Y-70040500D01*
X64198500Y-51625500D02*
X62738000Y-50165000D01*
X64198500Y-68764002D02*
X64198500Y-51625500D01*
X53412999Y-59102503D02*
X53340000Y-59102503D01*
X54483000Y-58032502D02*
X53412999Y-59102503D01*
X54483000Y-50355500D02*
X54483000Y-58032502D01*
X54800500Y-50038000D02*
X54800500Y-47244000D01*
X54483000Y-50355500D02*
X54800500Y-50038000D01*
X58190499Y-61888001D02*
X57277000Y-62801500D01*
X58190499Y-48093999D02*
X58190499Y-61888001D01*
X57340500Y-47244000D02*
X58190499Y-48093999D01*
X76327000Y-79819500D02*
X74901999Y-78394499D01*
X69342000Y-72834500D02*
X62865000Y-72834500D01*
X70040500Y-73533000D02*
X69342000Y-72834500D01*
X70040500Y-73533000D02*
X70040500Y-77025500D01*
X71409499Y-78394499D02*
X74901999Y-78394499D01*
X70040500Y-77025500D02*
X71409499Y-78394499D01*
X76327000Y-82359500D02*
X74612500Y-80645000D01*
X67818000Y-73850500D02*
X62103000Y-73850500D01*
X67818000Y-73850500D02*
X67818000Y-78041500D01*
X70421500Y-80645000D02*
X74612500Y-80645000D01*
X67818000Y-78041500D02*
X70421500Y-80645000D01*
X45593000Y-58102500D02*
X53340000Y-58102500D01*
X37719000Y-50228500D02*
X45593000Y-58102500D01*
X41529000Y-81089500D02*
X41529000Y-75184000D01*
X44767500Y-84328000D02*
X41529000Y-81089500D01*
X60960000Y-60191502D02*
X60960000Y-50165000D01*
X55746502Y-65405000D02*
X60960000Y-60191502D01*
X51435000Y-65405000D02*
X55746502Y-65405000D01*
X47688500Y-81343500D02*
X51752500Y-85407500D01*
X47688500Y-76708000D02*
X47688500Y-81343500D01*
X38826107Y-49921391D02*
X38826107Y-50699197D01*
X38426108Y-49521392D02*
X38826107Y-49921391D01*
X38826107Y-50699197D02*
X45625455Y-57498545D01*
X45780417Y-57343583D02*
X52688810Y-57343583D01*
X45625455Y-57498545D02*
X45780417Y-57343583D01*
D18*
X43592750Y-52927250D02*
X43592750Y-53689250D01*
X43592750Y-52927250D02*
X43116500Y-53403500D01*
X42386250Y-52927250D02*
X42354500Y-52895500D01*
X43592750Y-52927250D02*
X42386250Y-52927250D01*
X43592750Y-53689250D02*
X43815000Y-53911500D01*
X50960499Y-45943999D02*
X52260500Y-47244000D01*
X47557999Y-45943999D02*
X50960499Y-45943999D01*
X43592750Y-49909248D02*
X47557999Y-45943999D01*
X43592750Y-52927250D02*
X43592750Y-49909248D01*
D20*
G36*
X78514750Y-68991694D02*
G01*
X78330471Y-68546806D01*
X78056876Y-68137343D01*
X77708657Y-67789124D01*
X77299194Y-67515529D01*
X76844223Y-67327074D01*
X76361228Y-67231000D01*
X75868772Y-67231000D01*
X75385777Y-67327074D01*
X74930806Y-67515529D01*
X74521343Y-67789124D01*
X74173124Y-68137343D01*
X73899529Y-68546806D01*
X73711074Y-69001777D01*
X73615000Y-69484772D01*
X73615000Y-69977228D01*
X73711074Y-70460223D01*
X73899529Y-70915194D01*
X74173124Y-71324657D01*
X74521343Y-71672876D01*
X74930806Y-71946471D01*
X75385777Y-72134926D01*
X75868772Y-72231000D01*
X76361228Y-72231000D01*
X76844223Y-72134926D01*
X77299194Y-71946471D01*
X77708657Y-71672876D01*
X78056876Y-71324657D01*
X78330471Y-70915194D01*
X78518926Y-70460223D01*
X78525730Y-70426018D01*
X78672954Y-89657378D01*
X29656662Y-89720625D01*
X29594654Y-79681612D01*
X30223000Y-79681612D01*
X30223000Y-79957388D01*
X30276801Y-80227865D01*
X30382336Y-80482649D01*
X30535549Y-80711948D01*
X30730552Y-80906951D01*
X30959851Y-81060164D01*
X31030674Y-81089500D01*
X30959851Y-81118836D01*
X30730552Y-81272049D01*
X30535549Y-81467052D01*
X30382336Y-81696351D01*
X30276801Y-81951135D01*
X30223000Y-82221612D01*
X30223000Y-82497388D01*
X30276801Y-82767865D01*
X30382336Y-83022649D01*
X30535549Y-83251948D01*
X30730552Y-83446951D01*
X30959851Y-83600164D01*
X31030674Y-83629500D01*
X30959851Y-83658836D01*
X30730552Y-83812049D01*
X30535549Y-84007052D01*
X30382336Y-84236351D01*
X30276801Y-84491135D01*
X30223000Y-84761612D01*
X30223000Y-85037388D01*
X30276801Y-85307865D01*
X30382336Y-85562649D01*
X30535549Y-85791948D01*
X30730552Y-85986951D01*
X30959851Y-86140164D01*
X31030674Y-86169500D01*
X30959851Y-86198836D01*
X30730552Y-86352049D01*
X30535549Y-86547052D01*
X30382336Y-86776351D01*
X30276801Y-87031135D01*
X30223000Y-87301612D01*
X30223000Y-87577388D01*
X30276801Y-87847865D01*
X30382336Y-88102649D01*
X30535549Y-88331948D01*
X30730552Y-88526951D01*
X30959851Y-88680164D01*
X31214635Y-88785699D01*
X31485112Y-88839500D01*
X31760888Y-88839500D01*
X32031365Y-88785699D01*
X32286149Y-88680164D01*
X32515448Y-88526951D01*
X32710451Y-88331948D01*
X32863664Y-88102649D01*
X32969199Y-87847865D01*
X33023000Y-87577388D01*
X33023000Y-87301612D01*
X32969199Y-87031135D01*
X32863664Y-86776351D01*
X32710451Y-86547052D01*
X32515448Y-86352049D01*
X32286149Y-86198836D01*
X32215326Y-86169500D01*
X32286149Y-86140164D01*
X32515448Y-85986951D01*
X32710451Y-85791948D01*
X32863664Y-85562649D01*
X32969199Y-85307865D01*
X33023000Y-85037388D01*
X33023000Y-84761612D01*
X32969199Y-84491135D01*
X32863664Y-84236351D01*
X32710451Y-84007052D01*
X32515448Y-83812049D01*
X32286149Y-83658836D01*
X32215326Y-83629500D01*
X32286149Y-83600164D01*
X32515448Y-83446951D01*
X32710451Y-83251948D01*
X32863664Y-83022649D01*
X32969199Y-82767865D01*
X33023000Y-82497388D01*
X33023000Y-82221612D01*
X32969199Y-81951135D01*
X32863664Y-81696351D01*
X32710451Y-81467052D01*
X32515448Y-81272049D01*
X32286149Y-81118836D01*
X32215326Y-81089500D01*
X32286149Y-81060164D01*
X32515448Y-80906951D01*
X32710451Y-80711948D01*
X32863664Y-80482649D01*
X32969199Y-80227865D01*
X33023000Y-79957388D01*
X33023000Y-79681612D01*
X32969199Y-79411135D01*
X32863664Y-79156351D01*
X32710451Y-78927052D01*
X32515448Y-78732049D01*
X32325253Y-78604964D01*
X32452740Y-78537816D01*
X32468005Y-78527616D01*
X32582098Y-78309308D01*
X31623000Y-77350211D01*
X30663902Y-78309308D01*
X30777995Y-78527616D01*
X30920685Y-78605006D01*
X30730552Y-78732049D01*
X30535549Y-78927052D01*
X30382336Y-79156351D01*
X30276801Y-79411135D01*
X30223000Y-79681612D01*
X29594654Y-79681612D01*
X29579759Y-77270320D01*
X30115770Y-77270320D01*
X30142940Y-77564543D01*
X30226988Y-77847811D01*
X30364684Y-78109240D01*
X30374884Y-78124505D01*
X30593192Y-78238598D01*
X31552289Y-77279500D01*
X31538147Y-77265358D01*
X31608858Y-77194647D01*
X31623000Y-77208789D01*
X31637142Y-77194647D01*
X31707853Y-77265358D01*
X31693711Y-77279500D01*
X32652808Y-78238598D01*
X32871116Y-78124505D01*
X33011985Y-77864774D01*
X33099478Y-77582550D01*
X33130230Y-77288680D01*
X33103060Y-76994457D01*
X33019012Y-76711189D01*
X32881316Y-76449760D01*
X32871116Y-76434495D01*
X32652811Y-76320403D01*
X32723807Y-76249407D01*
X32715820Y-76241420D01*
X32723000Y-76241435D01*
X32801414Y-76233712D01*
X32876814Y-76210840D01*
X32946303Y-76173697D01*
X33007211Y-76123711D01*
X33057197Y-76062803D01*
X33094340Y-75993314D01*
X33117212Y-75917914D01*
X33124935Y-75839500D01*
X33123460Y-75115056D01*
X40829000Y-75115056D01*
X40829000Y-75252944D01*
X40855901Y-75388182D01*
X40908668Y-75515574D01*
X40985274Y-75630224D01*
X41082776Y-75727726D01*
X41104001Y-75741908D01*
X41104000Y-81068633D01*
X41101945Y-81089500D01*
X41104000Y-81110367D01*
X41104000Y-81110373D01*
X41110150Y-81172813D01*
X41134452Y-81252926D01*
X41173916Y-81326759D01*
X41227026Y-81391474D01*
X41243244Y-81404784D01*
X44072480Y-84234020D01*
X44067500Y-84259056D01*
X44067500Y-84396944D01*
X44094401Y-84532182D01*
X44147168Y-84659574D01*
X44223774Y-84774224D01*
X44321276Y-84871726D01*
X44435926Y-84948332D01*
X44563318Y-85001099D01*
X44698556Y-85028000D01*
X44836444Y-85028000D01*
X44971682Y-85001099D01*
X45099074Y-84948332D01*
X45213724Y-84871726D01*
X45311226Y-84774224D01*
X45387832Y-84659574D01*
X45440599Y-84532182D01*
X45467500Y-84396944D01*
X45467500Y-84259056D01*
X45440599Y-84123818D01*
X45387832Y-83996426D01*
X45311226Y-83881776D01*
X45213724Y-83784274D01*
X45099074Y-83707668D01*
X44971682Y-83654901D01*
X44836444Y-83628000D01*
X44698556Y-83628000D01*
X44673520Y-83632980D01*
X41954000Y-80913460D01*
X41954000Y-76639056D01*
X46988500Y-76639056D01*
X46988500Y-76776944D01*
X47015401Y-76912182D01*
X47068168Y-77039574D01*
X47144774Y-77154224D01*
X47242276Y-77251726D01*
X47263500Y-77265907D01*
X47263501Y-81322623D01*
X47261445Y-81343500D01*
X47269650Y-81426814D01*
X47293953Y-81506927D01*
X47333417Y-81580760D01*
X47386527Y-81645474D01*
X47402739Y-81658779D01*
X51057480Y-85313521D01*
X51052500Y-85338556D01*
X51052500Y-85476444D01*
X51079401Y-85611682D01*
X51132168Y-85739074D01*
X51208774Y-85853724D01*
X51306276Y-85951226D01*
X51420926Y-86027832D01*
X51548318Y-86080599D01*
X51683556Y-86107500D01*
X51821444Y-86107500D01*
X51956682Y-86080599D01*
X52084074Y-86027832D01*
X52198724Y-85951226D01*
X52296226Y-85853724D01*
X52372832Y-85739074D01*
X52425599Y-85611682D01*
X52452500Y-85476444D01*
X52452500Y-85338556D01*
X52425599Y-85203318D01*
X52372832Y-85075926D01*
X52296226Y-84961276D01*
X52198724Y-84863774D01*
X52084074Y-84787168D01*
X51956682Y-84734401D01*
X51821444Y-84707500D01*
X51683556Y-84707500D01*
X51658521Y-84712480D01*
X48113500Y-81167460D01*
X48113500Y-77265907D01*
X48134724Y-77251726D01*
X48232226Y-77154224D01*
X48308832Y-77039574D01*
X48361599Y-76912182D01*
X48388500Y-76776944D01*
X48388500Y-76639056D01*
X48361599Y-76503818D01*
X48308832Y-76376426D01*
X48232226Y-76261776D01*
X48134724Y-76164274D01*
X48020074Y-76087668D01*
X47892682Y-76034901D01*
X47757444Y-76008000D01*
X47619556Y-76008000D01*
X47484318Y-76034901D01*
X47356926Y-76087668D01*
X47242276Y-76164274D01*
X47144774Y-76261776D01*
X47068168Y-76376426D01*
X47015401Y-76503818D01*
X46988500Y-76639056D01*
X41954000Y-76639056D01*
X41954000Y-75741907D01*
X41975224Y-75727726D01*
X42072726Y-75630224D01*
X42149332Y-75515574D01*
X42202099Y-75388182D01*
X42229000Y-75252944D01*
X42229000Y-75115056D01*
X42202099Y-74979818D01*
X42149332Y-74852426D01*
X42072726Y-74737776D01*
X41975224Y-74640274D01*
X41860574Y-74563668D01*
X41733182Y-74510901D01*
X41597944Y-74484000D01*
X41460056Y-74484000D01*
X41324818Y-74510901D01*
X41197426Y-74563668D01*
X41082776Y-74640274D01*
X40985274Y-74737776D01*
X40908668Y-74852426D01*
X40855901Y-74979818D01*
X40829000Y-75115056D01*
X33123460Y-75115056D01*
X33123000Y-74889500D01*
X33023000Y-74789500D01*
X31673000Y-74789500D01*
X31673000Y-74809500D01*
X31573000Y-74809500D01*
X31573000Y-74789500D01*
X30223000Y-74789500D01*
X30123000Y-74889500D01*
X30121065Y-75839500D01*
X30128788Y-75917914D01*
X30151660Y-75993314D01*
X30188803Y-76062803D01*
X30238789Y-76123711D01*
X30299697Y-76173697D01*
X30369186Y-76210840D01*
X30444586Y-76233712D01*
X30523000Y-76241435D01*
X30530180Y-76241420D01*
X30522193Y-76249407D01*
X30593189Y-76320403D01*
X30374884Y-76434495D01*
X30234015Y-76694226D01*
X30146522Y-76976450D01*
X30115770Y-77270320D01*
X29579759Y-77270320D01*
X29557332Y-73639500D01*
X30121065Y-73639500D01*
X30123000Y-74589500D01*
X30223000Y-74689500D01*
X31573000Y-74689500D01*
X31573000Y-73339500D01*
X31673000Y-73339500D01*
X31673000Y-74689500D01*
X33023000Y-74689500D01*
X33123000Y-74589500D01*
X33124935Y-73639500D01*
X33117212Y-73561086D01*
X33094340Y-73485686D01*
X33057197Y-73416197D01*
X33007211Y-73355289D01*
X32946303Y-73305303D01*
X32886910Y-73273556D01*
X56386500Y-73273556D01*
X56386500Y-73411444D01*
X56413401Y-73546682D01*
X56466168Y-73674074D01*
X56542774Y-73788724D01*
X56640276Y-73886226D01*
X56754926Y-73962832D01*
X56882318Y-74015599D01*
X57017556Y-74042500D01*
X57155444Y-74042500D01*
X57290682Y-74015599D01*
X57418074Y-73962832D01*
X57532724Y-73886226D01*
X57630226Y-73788724D01*
X57706832Y-73674074D01*
X57759599Y-73546682D01*
X57786500Y-73411444D01*
X57786500Y-73273556D01*
X57781520Y-73248520D01*
X60564541Y-70465500D01*
X62901135Y-70465500D01*
X62922002Y-70467555D01*
X62942869Y-70465500D01*
X62942876Y-70465500D01*
X63005316Y-70459350D01*
X63085429Y-70435048D01*
X63159262Y-70395584D01*
X63223976Y-70342474D01*
X63237285Y-70326257D01*
X64484263Y-69079280D01*
X64500474Y-69065976D01*
X64553584Y-69001262D01*
X64579301Y-68953147D01*
X64593048Y-68927430D01*
X64617350Y-68847316D01*
X64617350Y-68847315D01*
X64623500Y-68784876D01*
X64623500Y-68784869D01*
X64625555Y-68764002D01*
X64623500Y-68743135D01*
X64623500Y-68026909D01*
X64637744Y-68038599D01*
X69008645Y-72409500D01*
X63422907Y-72409500D01*
X63408726Y-72388276D01*
X63311224Y-72290774D01*
X63196574Y-72214168D01*
X63069182Y-72161401D01*
X62933944Y-72134500D01*
X62796056Y-72134500D01*
X62660818Y-72161401D01*
X62533426Y-72214168D01*
X62418776Y-72290774D01*
X62321274Y-72388276D01*
X62244668Y-72502926D01*
X62191901Y-72630318D01*
X62165000Y-72765556D01*
X62165000Y-72903444D01*
X62191901Y-73038682D01*
X62244168Y-73164866D01*
X62171944Y-73150500D01*
X62034056Y-73150500D01*
X61898818Y-73177401D01*
X61771426Y-73230168D01*
X61656776Y-73306774D01*
X61559274Y-73404276D01*
X61482668Y-73518926D01*
X61429901Y-73646318D01*
X61403000Y-73781556D01*
X61403000Y-73919444D01*
X61429901Y-74054682D01*
X61482668Y-74182074D01*
X61559274Y-74296724D01*
X61656776Y-74394226D01*
X61771426Y-74470832D01*
X61898818Y-74523599D01*
X62034056Y-74550500D01*
X62171944Y-74550500D01*
X62307182Y-74523599D01*
X62434574Y-74470832D01*
X62549224Y-74394226D01*
X62646726Y-74296724D01*
X62660907Y-74275500D01*
X67393000Y-74275500D01*
X67393001Y-78020623D01*
X67390945Y-78041500D01*
X67399150Y-78124814D01*
X67408987Y-78157240D01*
X67423453Y-78204927D01*
X67462917Y-78278760D01*
X67516027Y-78343474D01*
X67532239Y-78356779D01*
X70106219Y-80930760D01*
X70119526Y-80946974D01*
X70184240Y-81000084D01*
X70258073Y-81039548D01*
X70313883Y-81056478D01*
X70338185Y-81063850D01*
X70346598Y-81064679D01*
X70400626Y-81070000D01*
X70400632Y-81070000D01*
X70421499Y-81072055D01*
X70442366Y-81070000D01*
X74436460Y-81070000D01*
X75079446Y-81712986D01*
X74980801Y-81951135D01*
X74927000Y-82221612D01*
X74927000Y-82497388D01*
X74980801Y-82767865D01*
X75086336Y-83022649D01*
X75239549Y-83251948D01*
X75434552Y-83446951D01*
X75663851Y-83600164D01*
X75734674Y-83629500D01*
X75663851Y-83658836D01*
X75434552Y-83812049D01*
X75239549Y-84007052D01*
X75086336Y-84236351D01*
X74980801Y-84491135D01*
X74927000Y-84761612D01*
X74927000Y-85037388D01*
X74980801Y-85307865D01*
X75086336Y-85562649D01*
X75239549Y-85791948D01*
X75434552Y-85986951D01*
X75663851Y-86140164D01*
X75734674Y-86169500D01*
X75663851Y-86198836D01*
X75434552Y-86352049D01*
X75239549Y-86547052D01*
X75086336Y-86776351D01*
X74980801Y-87031135D01*
X74927000Y-87301612D01*
X74927000Y-87577388D01*
X74980801Y-87847865D01*
X75086336Y-88102649D01*
X75239549Y-88331948D01*
X75434552Y-88526951D01*
X75663851Y-88680164D01*
X75918635Y-88785699D01*
X76189112Y-88839500D01*
X76464888Y-88839500D01*
X76735365Y-88785699D01*
X76990149Y-88680164D01*
X77219448Y-88526951D01*
X77414451Y-88331948D01*
X77567664Y-88102649D01*
X77673199Y-87847865D01*
X77727000Y-87577388D01*
X77727000Y-87301612D01*
X77673199Y-87031135D01*
X77567664Y-86776351D01*
X77414451Y-86547052D01*
X77219448Y-86352049D01*
X76990149Y-86198836D01*
X76919326Y-86169500D01*
X76990149Y-86140164D01*
X77219448Y-85986951D01*
X77414451Y-85791948D01*
X77567664Y-85562649D01*
X77673199Y-85307865D01*
X77727000Y-85037388D01*
X77727000Y-84761612D01*
X77673199Y-84491135D01*
X77567664Y-84236351D01*
X77414451Y-84007052D01*
X77219448Y-83812049D01*
X76990149Y-83658836D01*
X76919326Y-83629500D01*
X76990149Y-83600164D01*
X77219448Y-83446951D01*
X77414451Y-83251948D01*
X77567664Y-83022649D01*
X77673199Y-82767865D01*
X77727000Y-82497388D01*
X77727000Y-82221612D01*
X77673199Y-81951135D01*
X77567664Y-81696351D01*
X77414451Y-81467052D01*
X77219448Y-81272049D01*
X76990149Y-81118836D01*
X76919326Y-81089500D01*
X76990149Y-81060164D01*
X77219448Y-80906951D01*
X77414451Y-80711948D01*
X77567664Y-80482649D01*
X77673199Y-80227865D01*
X77727000Y-79957388D01*
X77727000Y-79681612D01*
X77673199Y-79411135D01*
X77567664Y-79156351D01*
X77414451Y-78927052D01*
X77219448Y-78732049D01*
X76990149Y-78578836D01*
X76919326Y-78549500D01*
X76990149Y-78520164D01*
X77219448Y-78366951D01*
X77414451Y-78171948D01*
X77567664Y-77942649D01*
X77673199Y-77687865D01*
X77727000Y-77417388D01*
X77727000Y-77141612D01*
X77673199Y-76871135D01*
X77567664Y-76616351D01*
X77414451Y-76387052D01*
X77219448Y-76192049D01*
X77142975Y-76140951D01*
X77427000Y-76140951D01*
X77485810Y-76135159D01*
X77542360Y-76118004D01*
X77594477Y-76090147D01*
X77640158Y-76052658D01*
X77677647Y-76006977D01*
X77705504Y-75954860D01*
X77722659Y-75898310D01*
X77728451Y-75839500D01*
X77728451Y-73639500D01*
X77722659Y-73580690D01*
X77705504Y-73524140D01*
X77677647Y-73472023D01*
X77640158Y-73426342D01*
X77594477Y-73388853D01*
X77542360Y-73360996D01*
X77485810Y-73343841D01*
X77427000Y-73338049D01*
X75227000Y-73338049D01*
X75168190Y-73343841D01*
X75111640Y-73360996D01*
X75059523Y-73388853D01*
X75013842Y-73426342D01*
X74976353Y-73472023D01*
X74948496Y-73524140D01*
X74931341Y-73580690D01*
X74925549Y-73639500D01*
X74925549Y-75839500D01*
X74931341Y-75898310D01*
X74948496Y-75954860D01*
X74976353Y-76006977D01*
X75013842Y-76052658D01*
X75059523Y-76090147D01*
X75111640Y-76118004D01*
X75168190Y-76135159D01*
X75227000Y-76140951D01*
X75511025Y-76140951D01*
X75434552Y-76192049D01*
X75239549Y-76387052D01*
X75086336Y-76616351D01*
X74980801Y-76871135D01*
X74927000Y-77141612D01*
X74927000Y-77417388D01*
X74980801Y-77687865D01*
X75086336Y-77942649D01*
X75165241Y-78060738D01*
X75139259Y-78039415D01*
X75065426Y-77999951D01*
X74985313Y-77975649D01*
X74922873Y-77969499D01*
X74922866Y-77969499D01*
X74901999Y-77967444D01*
X74881132Y-77969499D01*
X71585540Y-77969499D01*
X70465500Y-76849460D01*
X70465500Y-73866355D01*
X73020348Y-76421203D01*
X72989274Y-76452276D01*
X72912668Y-76566926D01*
X72859901Y-76694318D01*
X72833000Y-76829556D01*
X72833000Y-76967444D01*
X72859901Y-77102682D01*
X72912668Y-77230074D01*
X72989274Y-77344724D01*
X73086776Y-77442226D01*
X73201426Y-77518832D01*
X73328818Y-77571599D01*
X73464056Y-77598500D01*
X73601944Y-77598500D01*
X73737182Y-77571599D01*
X73864574Y-77518832D01*
X73979224Y-77442226D01*
X74076726Y-77344724D01*
X74153332Y-77230074D01*
X74206099Y-77102682D01*
X74233000Y-76967444D01*
X74233000Y-76829556D01*
X74206099Y-76694318D01*
X74153332Y-76566926D01*
X74076726Y-76452276D01*
X73979224Y-76354774D01*
X73959209Y-76341401D01*
X73960055Y-76332815D01*
X73958000Y-76311948D01*
X73958000Y-76311941D01*
X73951850Y-76249501D01*
X73927548Y-76169388D01*
X73888084Y-76095555D01*
X73834974Y-76030841D01*
X73818756Y-76017531D01*
X65348500Y-67547275D01*
X65348500Y-59912909D01*
X72636100Y-59912909D01*
X72636100Y-60102091D01*
X72673008Y-60287638D01*
X72745405Y-60462420D01*
X72850509Y-60619719D01*
X72984281Y-60753491D01*
X73141580Y-60858595D01*
X73316362Y-60930992D01*
X73501909Y-60967900D01*
X73691091Y-60967900D01*
X73876638Y-60930992D01*
X74051420Y-60858595D01*
X74208719Y-60753491D01*
X74342491Y-60619719D01*
X74447595Y-60462420D01*
X74519992Y-60287638D01*
X74556900Y-60102091D01*
X74556900Y-59912909D01*
X74519992Y-59727362D01*
X74447595Y-59552580D01*
X74342491Y-59395281D01*
X74208719Y-59261509D01*
X74051420Y-59156405D01*
X73876638Y-59084008D01*
X73691091Y-59047100D01*
X73501909Y-59047100D01*
X73316362Y-59084008D01*
X73141580Y-59156405D01*
X72984281Y-59261509D01*
X72850509Y-59395281D01*
X72745405Y-59552580D01*
X72673008Y-59727362D01*
X72636100Y-59912909D01*
X65348500Y-59912909D01*
X65348500Y-55086909D01*
X72636100Y-55086909D01*
X72636100Y-55276091D01*
X72673008Y-55461638D01*
X72745405Y-55636420D01*
X72850509Y-55793719D01*
X72984281Y-55927491D01*
X73141580Y-56032595D01*
X73316362Y-56104992D01*
X73501909Y-56141900D01*
X73691091Y-56141900D01*
X73876638Y-56104992D01*
X74051420Y-56032595D01*
X74208719Y-55927491D01*
X74342491Y-55793719D01*
X74447595Y-55636420D01*
X74519992Y-55461638D01*
X74556900Y-55276091D01*
X74556900Y-55086909D01*
X74519992Y-54901362D01*
X74447595Y-54726580D01*
X74342491Y-54569281D01*
X74208719Y-54435509D01*
X74051420Y-54330405D01*
X73876638Y-54258008D01*
X73691091Y-54221100D01*
X73501909Y-54221100D01*
X73316362Y-54258008D01*
X73141580Y-54330405D01*
X72984281Y-54435509D01*
X72850509Y-54569281D01*
X72745405Y-54726580D01*
X72673008Y-54901362D01*
X72636100Y-55086909D01*
X65348500Y-55086909D01*
X65348500Y-52183407D01*
X65369724Y-52169226D01*
X65467226Y-52071724D01*
X65543832Y-51957074D01*
X65596599Y-51829682D01*
X65623500Y-51694444D01*
X65623500Y-51556556D01*
X65596599Y-51421318D01*
X65543832Y-51293926D01*
X65467226Y-51179276D01*
X65369724Y-51081774D01*
X65255074Y-51005168D01*
X65127682Y-50952401D01*
X64992444Y-50925500D01*
X64854556Y-50925500D01*
X64719318Y-50952401D01*
X64591926Y-51005168D01*
X64477276Y-51081774D01*
X64379774Y-51179276D01*
X64369177Y-51195136D01*
X63433020Y-50258980D01*
X63438000Y-50233944D01*
X63438000Y-50096056D01*
X63411099Y-49960818D01*
X63358332Y-49833426D01*
X63281726Y-49718776D01*
X63184224Y-49621274D01*
X63069574Y-49544668D01*
X62942182Y-49491901D01*
X62806944Y-49465000D01*
X62669056Y-49465000D01*
X62533818Y-49491901D01*
X62406426Y-49544668D01*
X62291776Y-49621274D01*
X62194274Y-49718776D01*
X62117668Y-49833426D01*
X62064901Y-49960818D01*
X62038000Y-50096056D01*
X62038000Y-50233944D01*
X62064901Y-50369182D01*
X62117668Y-50496574D01*
X62194274Y-50611224D01*
X62291776Y-50708726D01*
X62406426Y-50785332D01*
X62533818Y-50838099D01*
X62669056Y-50865000D01*
X62806944Y-50865000D01*
X62831980Y-50860020D01*
X63773501Y-51801542D01*
X63773500Y-68587961D01*
X62745962Y-69615500D01*
X60409366Y-69615500D01*
X60388499Y-69613445D01*
X60367632Y-69615500D01*
X60367626Y-69615500D01*
X60313598Y-69620821D01*
X60305185Y-69621650D01*
X60280883Y-69629022D01*
X60225073Y-69645952D01*
X60151240Y-69685416D01*
X60086526Y-69738526D01*
X60073221Y-69754738D01*
X57180480Y-72647480D01*
X57155444Y-72642500D01*
X57017556Y-72642500D01*
X56882318Y-72669401D01*
X56754926Y-72722168D01*
X56640276Y-72798774D01*
X56542774Y-72896276D01*
X56466168Y-73010926D01*
X56413401Y-73138318D01*
X56386500Y-73273556D01*
X32886910Y-73273556D01*
X32876814Y-73268160D01*
X32801414Y-73245288D01*
X32723000Y-73237565D01*
X31773000Y-73239500D01*
X31673000Y-73339500D01*
X31573000Y-73339500D01*
X31473000Y-73239500D01*
X30523000Y-73237565D01*
X30444586Y-73245288D01*
X30369186Y-73268160D01*
X30299697Y-73305303D01*
X30238789Y-73355289D01*
X30188803Y-73416197D01*
X30151660Y-73485686D01*
X30128788Y-73561086D01*
X30121065Y-73639500D01*
X29557332Y-73639500D01*
X29545283Y-71688872D01*
X29930806Y-71946471D01*
X30385777Y-72134926D01*
X30868772Y-72231000D01*
X31361228Y-72231000D01*
X31844223Y-72134926D01*
X32299194Y-71946471D01*
X32708657Y-71672876D01*
X33056876Y-71324657D01*
X33330471Y-70915194D01*
X33518926Y-70460223D01*
X33615000Y-69977228D01*
X33615000Y-69484772D01*
X33518926Y-69001777D01*
X33330471Y-68546806D01*
X33056876Y-68137343D01*
X32708657Y-67789124D01*
X32299194Y-67515529D01*
X31844223Y-67327074D01*
X31361228Y-67231000D01*
X30868772Y-67231000D01*
X30385777Y-67327074D01*
X29930806Y-67515529D01*
X29521343Y-67789124D01*
X29521195Y-67789272D01*
X29477410Y-60700556D01*
X34669500Y-60700556D01*
X34669500Y-60838444D01*
X34696401Y-60973682D01*
X34749168Y-61101074D01*
X34825774Y-61215724D01*
X34923276Y-61313226D01*
X35037926Y-61389832D01*
X35165318Y-61442599D01*
X35289480Y-61467297D01*
X35899001Y-62076818D01*
X35899000Y-67063666D01*
X35828668Y-67168926D01*
X35775901Y-67296318D01*
X35749000Y-67431556D01*
X35749000Y-67569444D01*
X35775901Y-67704682D01*
X35828668Y-67832074D01*
X35905274Y-67946724D01*
X36002776Y-68044226D01*
X36117426Y-68120832D01*
X36244818Y-68173599D01*
X36380056Y-68200500D01*
X36517944Y-68200500D01*
X36653182Y-68173599D01*
X36780574Y-68120832D01*
X36895224Y-68044226D01*
X36992726Y-67946724D01*
X37069332Y-67832074D01*
X37122099Y-67704682D01*
X37149000Y-67569444D01*
X37149000Y-67461500D01*
X53485065Y-67461500D01*
X53492788Y-67539914D01*
X53515660Y-67615314D01*
X53552803Y-67684803D01*
X53602789Y-67745711D01*
X53663697Y-67795697D01*
X53733186Y-67832840D01*
X53808586Y-67855712D01*
X53887000Y-67863435D01*
X54587000Y-67861500D01*
X54687000Y-67761500D01*
X54687000Y-66661500D01*
X54787000Y-66661500D01*
X54787000Y-67761500D01*
X54887000Y-67861500D01*
X55587000Y-67863435D01*
X55665414Y-67855712D01*
X55740814Y-67832840D01*
X55810303Y-67795697D01*
X55871211Y-67745711D01*
X55921197Y-67684803D01*
X55958340Y-67615314D01*
X55981212Y-67539914D01*
X55988935Y-67461500D01*
X55987000Y-66761500D01*
X55887000Y-66661500D01*
X54787000Y-66661500D01*
X54687000Y-66661500D01*
X53587000Y-66661500D01*
X53487000Y-66761500D01*
X53485065Y-67461500D01*
X37149000Y-67461500D01*
X37149000Y-67431556D01*
X37122099Y-67296318D01*
X37069332Y-67168926D01*
X36999000Y-67063666D01*
X36999000Y-66611500D01*
X56121436Y-66611500D01*
X56143640Y-66836939D01*
X56209398Y-67053715D01*
X56316184Y-67253497D01*
X56459893Y-67428607D01*
X56635003Y-67572316D01*
X56834785Y-67679102D01*
X57051561Y-67744860D01*
X57220508Y-67761500D01*
X57333492Y-67761500D01*
X57502439Y-67744860D01*
X57719215Y-67679102D01*
X57918997Y-67572316D01*
X58094107Y-67428607D01*
X58237816Y-67253497D01*
X58344602Y-67053715D01*
X58410360Y-66836939D01*
X58432564Y-66611500D01*
X58661436Y-66611500D01*
X58683640Y-66836939D01*
X58749398Y-67053715D01*
X58856184Y-67253497D01*
X58999893Y-67428607D01*
X59175003Y-67572316D01*
X59374785Y-67679102D01*
X59591561Y-67744860D01*
X59760508Y-67761500D01*
X59873492Y-67761500D01*
X60042439Y-67744860D01*
X60259215Y-67679102D01*
X60458997Y-67572316D01*
X60634107Y-67428607D01*
X60777816Y-67253497D01*
X60884602Y-67053715D01*
X60950360Y-66836939D01*
X60972564Y-66611500D01*
X61201436Y-66611500D01*
X61223640Y-66836939D01*
X61289398Y-67053715D01*
X61396184Y-67253497D01*
X61539893Y-67428607D01*
X61715003Y-67572316D01*
X61914785Y-67679102D01*
X62131561Y-67744860D01*
X62300508Y-67761500D01*
X62413492Y-67761500D01*
X62582439Y-67744860D01*
X62799215Y-67679102D01*
X62998997Y-67572316D01*
X63174107Y-67428607D01*
X63317816Y-67253497D01*
X63424602Y-67053715D01*
X63490360Y-66836939D01*
X63512564Y-66611500D01*
X63490360Y-66386061D01*
X63424602Y-66169285D01*
X63317816Y-65969503D01*
X63174107Y-65794393D01*
X62998997Y-65650684D01*
X62799215Y-65543898D01*
X62582439Y-65478140D01*
X62413492Y-65461500D01*
X62300508Y-65461500D01*
X62131561Y-65478140D01*
X61914785Y-65543898D01*
X61715003Y-65650684D01*
X61539893Y-65794393D01*
X61396184Y-65969503D01*
X61289398Y-66169285D01*
X61223640Y-66386061D01*
X61201436Y-66611500D01*
X60972564Y-66611500D01*
X60950360Y-66386061D01*
X60884602Y-66169285D01*
X60777816Y-65969503D01*
X60634107Y-65794393D01*
X60458997Y-65650684D01*
X60259215Y-65543898D01*
X60042439Y-65478140D01*
X59873492Y-65461500D01*
X59760508Y-65461500D01*
X59591561Y-65478140D01*
X59374785Y-65543898D01*
X59175003Y-65650684D01*
X58999893Y-65794393D01*
X58856184Y-65969503D01*
X58749398Y-66169285D01*
X58683640Y-66386061D01*
X58661436Y-66611500D01*
X58432564Y-66611500D01*
X58410360Y-66386061D01*
X58344602Y-66169285D01*
X58237816Y-65969503D01*
X58094107Y-65794393D01*
X57918997Y-65650684D01*
X57719215Y-65543898D01*
X57502439Y-65478140D01*
X57333492Y-65461500D01*
X57220508Y-65461500D01*
X57051561Y-65478140D01*
X56834785Y-65543898D01*
X56635003Y-65650684D01*
X56459893Y-65794393D01*
X56316184Y-65969503D01*
X56209398Y-66169285D01*
X56143640Y-66386061D01*
X56121436Y-66611500D01*
X36999000Y-66611500D01*
X36999000Y-65336056D01*
X50735000Y-65336056D01*
X50735000Y-65473944D01*
X50761901Y-65609182D01*
X50814668Y-65736574D01*
X50891274Y-65851224D01*
X50988776Y-65948726D01*
X51103426Y-66025332D01*
X51230818Y-66078099D01*
X51366056Y-66105000D01*
X51503944Y-66105000D01*
X51639182Y-66078099D01*
X51766574Y-66025332D01*
X51881224Y-65948726D01*
X51978726Y-65851224D01*
X51992907Y-65830000D01*
X53485254Y-65830000D01*
X53487000Y-66461500D01*
X53587000Y-66561500D01*
X54687000Y-66561500D01*
X54687000Y-66541500D01*
X54787000Y-66541500D01*
X54787000Y-66561500D01*
X55887000Y-66561500D01*
X55987000Y-66461500D01*
X55988935Y-65761500D01*
X55988419Y-65756262D01*
X56048476Y-65706974D01*
X56061786Y-65690756D01*
X61245758Y-60506784D01*
X61261974Y-60493476D01*
X61315084Y-60428762D01*
X61354548Y-60354929D01*
X61378850Y-60274816D01*
X61385000Y-60212376D01*
X61385000Y-60212375D01*
X61387056Y-60191502D01*
X61385000Y-60170628D01*
X61385000Y-50722907D01*
X61406224Y-50708726D01*
X61503726Y-50611224D01*
X61580332Y-50496574D01*
X61633099Y-50369182D01*
X61660000Y-50233944D01*
X61660000Y-50096056D01*
X61633099Y-49960818D01*
X61580332Y-49833426D01*
X61503726Y-49718776D01*
X61406224Y-49621274D01*
X61291574Y-49544668D01*
X61164182Y-49491901D01*
X61028944Y-49465000D01*
X60891056Y-49465000D01*
X60755818Y-49491901D01*
X60628426Y-49544668D01*
X60513776Y-49621274D01*
X60416274Y-49718776D01*
X60339668Y-49833426D01*
X60286901Y-49960818D01*
X60260000Y-50096056D01*
X60260000Y-50233944D01*
X60286901Y-50369182D01*
X60339668Y-50496574D01*
X60416274Y-50611224D01*
X60513776Y-50708726D01*
X60535001Y-50722908D01*
X60535000Y-60015462D01*
X58612649Y-61937813D01*
X58615499Y-61908875D01*
X58615499Y-61908868D01*
X58617554Y-61888001D01*
X58615499Y-61867134D01*
X58615499Y-48114865D01*
X58617554Y-48093998D01*
X58615499Y-48073131D01*
X58615499Y-48073125D01*
X58609349Y-48010685D01*
X58585047Y-47930572D01*
X58545583Y-47856739D01*
X58492473Y-47792025D01*
X58476262Y-47778721D01*
X58399622Y-47702081D01*
X58408102Y-47686215D01*
X58473860Y-47469439D01*
X58496064Y-47244000D01*
X58724936Y-47244000D01*
X58747140Y-47469439D01*
X58812898Y-47686215D01*
X58919684Y-47885997D01*
X59063393Y-48061107D01*
X59238503Y-48204816D01*
X59438285Y-48311602D01*
X59655061Y-48377360D01*
X59824008Y-48394000D01*
X59936992Y-48394000D01*
X60105939Y-48377360D01*
X60322715Y-48311602D01*
X60522497Y-48204816D01*
X60697607Y-48061107D01*
X60841316Y-47885997D01*
X60948102Y-47686215D01*
X61013860Y-47469439D01*
X61036064Y-47244000D01*
X61264936Y-47244000D01*
X61287140Y-47469439D01*
X61352898Y-47686215D01*
X61459684Y-47885997D01*
X61603393Y-48061107D01*
X61778503Y-48204816D01*
X61978285Y-48311602D01*
X62195061Y-48377360D01*
X62364008Y-48394000D01*
X62476992Y-48394000D01*
X62645939Y-48377360D01*
X62862715Y-48311602D01*
X63062497Y-48204816D01*
X63237607Y-48061107D01*
X63381316Y-47885997D01*
X63488102Y-47686215D01*
X63553860Y-47469439D01*
X63576064Y-47244000D01*
X63804936Y-47244000D01*
X63827140Y-47469439D01*
X63892898Y-47686215D01*
X63999684Y-47885997D01*
X64143393Y-48061107D01*
X64318503Y-48204816D01*
X64518285Y-48311602D01*
X64735061Y-48377360D01*
X64904008Y-48394000D01*
X65016992Y-48394000D01*
X65185939Y-48377360D01*
X65402715Y-48311602D01*
X65602497Y-48204816D01*
X65777607Y-48061107D01*
X65921316Y-47885997D01*
X66028102Y-47686215D01*
X66093860Y-47469439D01*
X66116064Y-47244000D01*
X66093860Y-47018561D01*
X66028102Y-46801785D01*
X65921316Y-46602003D01*
X65777607Y-46426893D01*
X65602497Y-46283184D01*
X65402715Y-46176398D01*
X65185939Y-46110640D01*
X65016992Y-46094000D01*
X64904008Y-46094000D01*
X64735061Y-46110640D01*
X64518285Y-46176398D01*
X64318503Y-46283184D01*
X64143393Y-46426893D01*
X63999684Y-46602003D01*
X63892898Y-46801785D01*
X63827140Y-47018561D01*
X63804936Y-47244000D01*
X63576064Y-47244000D01*
X63553860Y-47018561D01*
X63488102Y-46801785D01*
X63381316Y-46602003D01*
X63237607Y-46426893D01*
X63062497Y-46283184D01*
X62862715Y-46176398D01*
X62645939Y-46110640D01*
X62476992Y-46094000D01*
X62364008Y-46094000D01*
X62195061Y-46110640D01*
X61978285Y-46176398D01*
X61778503Y-46283184D01*
X61603393Y-46426893D01*
X61459684Y-46602003D01*
X61352898Y-46801785D01*
X61287140Y-47018561D01*
X61264936Y-47244000D01*
X61036064Y-47244000D01*
X61013860Y-47018561D01*
X60948102Y-46801785D01*
X60841316Y-46602003D01*
X60697607Y-46426893D01*
X60522497Y-46283184D01*
X60322715Y-46176398D01*
X60105939Y-46110640D01*
X59936992Y-46094000D01*
X59824008Y-46094000D01*
X59655061Y-46110640D01*
X59438285Y-46176398D01*
X59238503Y-46283184D01*
X59063393Y-46426893D01*
X58919684Y-46602003D01*
X58812898Y-46801785D01*
X58747140Y-47018561D01*
X58724936Y-47244000D01*
X58496064Y-47244000D01*
X58473860Y-47018561D01*
X58408102Y-46801785D01*
X58301316Y-46602003D01*
X58157607Y-46426893D01*
X57982497Y-46283184D01*
X57782715Y-46176398D01*
X57565939Y-46110640D01*
X57396992Y-46094000D01*
X57284008Y-46094000D01*
X57115061Y-46110640D01*
X56898285Y-46176398D01*
X56698503Y-46283184D01*
X56523393Y-46426893D01*
X56379684Y-46602003D01*
X56272898Y-46801785D01*
X56207140Y-47018561D01*
X56184936Y-47244000D01*
X56207140Y-47469439D01*
X56272898Y-47686215D01*
X56379684Y-47885997D01*
X56523393Y-48061107D01*
X56698503Y-48204816D01*
X56898285Y-48311602D01*
X57115061Y-48377360D01*
X57284008Y-48394000D01*
X57396992Y-48394000D01*
X57565939Y-48377360D01*
X57765499Y-48316824D01*
X57765500Y-61711959D01*
X57370980Y-62106480D01*
X57345944Y-62101500D01*
X57208056Y-62101500D01*
X57072818Y-62128401D01*
X56945426Y-62181168D01*
X56830776Y-62257774D01*
X56733274Y-62355276D01*
X56656668Y-62469926D01*
X56603901Y-62597318D01*
X56577000Y-62732556D01*
X56577000Y-62870444D01*
X56603901Y-63005682D01*
X56656668Y-63133074D01*
X56733274Y-63247724D01*
X56830776Y-63345226D01*
X56945426Y-63421832D01*
X57072818Y-63474599D01*
X57075358Y-63475104D01*
X55570462Y-64980000D01*
X51992907Y-64980000D01*
X51978726Y-64958776D01*
X51881224Y-64861274D01*
X51766574Y-64784668D01*
X51639182Y-64731901D01*
X51503944Y-64705000D01*
X51366056Y-64705000D01*
X51230818Y-64731901D01*
X51103426Y-64784668D01*
X50988776Y-64861274D01*
X50891274Y-64958776D01*
X50814668Y-65073426D01*
X50761901Y-65200818D01*
X50735000Y-65336056D01*
X36999000Y-65336056D01*
X36999000Y-61876011D01*
X37001660Y-61849000D01*
X36999000Y-61821989D01*
X36999000Y-61821982D01*
X36991042Y-61741181D01*
X36959592Y-61637506D01*
X36908521Y-61541958D01*
X36839790Y-61458210D01*
X36818804Y-61440987D01*
X36067297Y-60689480D01*
X36042599Y-60565318D01*
X35989832Y-60437926D01*
X35913226Y-60323276D01*
X35815724Y-60225774D01*
X35701074Y-60149168D01*
X35573682Y-60096401D01*
X35438444Y-60069500D01*
X35300556Y-60069500D01*
X35165318Y-60096401D01*
X35037926Y-60149168D01*
X34923276Y-60225774D01*
X34825774Y-60323276D01*
X34749168Y-60437926D01*
X34696401Y-60565318D01*
X34669500Y-60700556D01*
X29477410Y-60700556D01*
X29436423Y-54065059D01*
X29525528Y-54138186D01*
X29687960Y-54225007D01*
X29864208Y-54278471D01*
X30001568Y-54292000D01*
X31363432Y-54292000D01*
X31500792Y-54278471D01*
X31677040Y-54225007D01*
X31839472Y-54138186D01*
X31981844Y-54021344D01*
X32098686Y-53878972D01*
X32185507Y-53716540D01*
X32238971Y-53540292D01*
X32257024Y-53357000D01*
X33857976Y-53357000D01*
X33876029Y-53540292D01*
X33929493Y-53716540D01*
X34016314Y-53878972D01*
X34133156Y-54021344D01*
X34275528Y-54138186D01*
X34437960Y-54225007D01*
X34614208Y-54278471D01*
X34751568Y-54292000D01*
X36113432Y-54292000D01*
X36250792Y-54278471D01*
X36427040Y-54225007D01*
X36589472Y-54138186D01*
X36731844Y-54021344D01*
X36848686Y-53878972D01*
X36935507Y-53716540D01*
X36988971Y-53540292D01*
X37007024Y-53357000D01*
X36988971Y-53173708D01*
X36935507Y-52997460D01*
X36848686Y-52835028D01*
X36731844Y-52692656D01*
X36589472Y-52575814D01*
X36427040Y-52488993D01*
X36250792Y-52435529D01*
X36113432Y-52422000D01*
X34751568Y-52422000D01*
X34614208Y-52435529D01*
X34437960Y-52488993D01*
X34275528Y-52575814D01*
X34133156Y-52692656D01*
X34016314Y-52835028D01*
X33929493Y-52997460D01*
X33876029Y-53173708D01*
X33857976Y-53357000D01*
X32257024Y-53357000D01*
X32238971Y-53173708D01*
X32185507Y-52997460D01*
X32098686Y-52835028D01*
X31981844Y-52692656D01*
X31839472Y-52575814D01*
X31677040Y-52488993D01*
X31500792Y-52435529D01*
X31363432Y-52422000D01*
X30001568Y-52422000D01*
X29864208Y-52435529D01*
X29687960Y-52488993D01*
X29525528Y-52575814D01*
X29427720Y-52656083D01*
X29412300Y-50159556D01*
X37019000Y-50159556D01*
X37019000Y-50297444D01*
X37045901Y-50432682D01*
X37098668Y-50560074D01*
X37175274Y-50674724D01*
X37272776Y-50772226D01*
X37387426Y-50848832D01*
X37514818Y-50901599D01*
X37650056Y-50928500D01*
X37787944Y-50928500D01*
X37812980Y-50923520D01*
X45277716Y-58388256D01*
X45291026Y-58404474D01*
X45355740Y-58457584D01*
X45401740Y-58482171D01*
X45429573Y-58497048D01*
X45509686Y-58521350D01*
X45593000Y-58529556D01*
X45613874Y-58527500D01*
X52782093Y-58527500D01*
X52796274Y-58548724D01*
X52850052Y-58602502D01*
X52796274Y-58656279D01*
X52719668Y-58770929D01*
X52666901Y-58898321D01*
X52640000Y-59033559D01*
X52640000Y-59171447D01*
X52666901Y-59306685D01*
X52719668Y-59434077D01*
X52796274Y-59548727D01*
X52893776Y-59646229D01*
X53008426Y-59722835D01*
X53135818Y-59775602D01*
X53271056Y-59802503D01*
X53408944Y-59802503D01*
X53544182Y-59775602D01*
X53671574Y-59722835D01*
X53786224Y-59646229D01*
X53883726Y-59548727D01*
X53960332Y-59434077D01*
X54013099Y-59306685D01*
X54040000Y-59171447D01*
X54040000Y-59076542D01*
X54768762Y-58347781D01*
X54784974Y-58334476D01*
X54838084Y-58269762D01*
X54877548Y-58195929D01*
X54901850Y-58115816D01*
X54908000Y-58053376D01*
X54908000Y-58053369D01*
X54910055Y-58032502D01*
X54908000Y-58011635D01*
X54908000Y-50531540D01*
X55086263Y-50353278D01*
X55102474Y-50339974D01*
X55155584Y-50275260D01*
X55187104Y-50216290D01*
X55195048Y-50201428D01*
X55219350Y-50121315D01*
X55221838Y-50096056D01*
X55225500Y-50058874D01*
X55225500Y-50058867D01*
X55227555Y-50038000D01*
X55225500Y-50017133D01*
X55225500Y-48316824D01*
X55242715Y-48311602D01*
X55442497Y-48204816D01*
X55617607Y-48061107D01*
X55761316Y-47885997D01*
X55868102Y-47686215D01*
X55933860Y-47469439D01*
X55956064Y-47244000D01*
X55933860Y-47018561D01*
X55868102Y-46801785D01*
X55761316Y-46602003D01*
X55617607Y-46426893D01*
X55442497Y-46283184D01*
X55242715Y-46176398D01*
X55025939Y-46110640D01*
X54856992Y-46094000D01*
X54744008Y-46094000D01*
X54575061Y-46110640D01*
X54358285Y-46176398D01*
X54158503Y-46283184D01*
X53983393Y-46426893D01*
X53839684Y-46602003D01*
X53732898Y-46801785D01*
X53667140Y-47018561D01*
X53644936Y-47244000D01*
X53667140Y-47469439D01*
X53732898Y-47686215D01*
X53839684Y-47885997D01*
X53983393Y-48061107D01*
X54158503Y-48204816D01*
X54358285Y-48311602D01*
X54375501Y-48316824D01*
X54375500Y-49861959D01*
X54197243Y-50040217D01*
X54181026Y-50053526D01*
X54127916Y-50118241D01*
X54088452Y-50192074D01*
X54075751Y-50233944D01*
X54064164Y-50272142D01*
X54064150Y-50272187D01*
X54058000Y-50334627D01*
X54058000Y-50334633D01*
X54055945Y-50355500D01*
X54058000Y-50376367D01*
X54058001Y-57856460D01*
X54013604Y-57900857D01*
X54013099Y-57898318D01*
X53960332Y-57770926D01*
X53883726Y-57656276D01*
X53786224Y-57558774D01*
X53671574Y-57482168D01*
X53544182Y-57429401D01*
X53408944Y-57402500D01*
X53388810Y-57402500D01*
X53388810Y-57274639D01*
X53361909Y-57139401D01*
X53309142Y-57012009D01*
X53232536Y-56897359D01*
X53135034Y-56799857D01*
X53020384Y-56723251D01*
X52892992Y-56670484D01*
X52757754Y-56643583D01*
X52619866Y-56643583D01*
X52484628Y-56670484D01*
X52357236Y-56723251D01*
X52242586Y-56799857D01*
X52145084Y-56897359D01*
X52130903Y-56918583D01*
X45801283Y-56918583D01*
X45780416Y-56916528D01*
X45759549Y-56918583D01*
X45759543Y-56918583D01*
X45705515Y-56923904D01*
X45697102Y-56924733D01*
X45678456Y-56930389D01*
X45663022Y-56935071D01*
X42685044Y-53957094D01*
X42784926Y-54023832D01*
X42912318Y-54076599D01*
X43047556Y-54103500D01*
X43139478Y-54103500D01*
X43141901Y-54115682D01*
X43194668Y-54243074D01*
X43271274Y-54357724D01*
X43368776Y-54455226D01*
X43483426Y-54531832D01*
X43610818Y-54584599D01*
X43746056Y-54611500D01*
X43883944Y-54611500D01*
X44019182Y-54584599D01*
X44146574Y-54531832D01*
X44261224Y-54455226D01*
X44358726Y-54357724D01*
X44435332Y-54243074D01*
X44488099Y-54115682D01*
X44515000Y-53980444D01*
X44515000Y-53842556D01*
X44488099Y-53707318D01*
X44435332Y-53579926D01*
X44358726Y-53465276D01*
X44261224Y-53367774D01*
X44146574Y-53291168D01*
X44142750Y-53289584D01*
X44142750Y-52954267D01*
X44145411Y-52927250D01*
X44142750Y-52900232D01*
X44142750Y-50137065D01*
X44495815Y-49784000D01*
X47612436Y-49784000D01*
X47634640Y-50009439D01*
X47700398Y-50226215D01*
X47807184Y-50425997D01*
X47950893Y-50601107D01*
X48126003Y-50744816D01*
X48325785Y-50851602D01*
X48542561Y-50917360D01*
X48711508Y-50934000D01*
X48824492Y-50934000D01*
X48993439Y-50917360D01*
X49210215Y-50851602D01*
X49409997Y-50744816D01*
X49585107Y-50601107D01*
X49728816Y-50425997D01*
X49835602Y-50226215D01*
X49901360Y-50009439D01*
X49923564Y-49784000D01*
X49901360Y-49558561D01*
X49835602Y-49341785D01*
X49728816Y-49142003D01*
X49585107Y-48966893D01*
X49409997Y-48823184D01*
X49210215Y-48716398D01*
X48993439Y-48650640D01*
X48824492Y-48634000D01*
X48711508Y-48634000D01*
X48542561Y-48650640D01*
X48325785Y-48716398D01*
X48126003Y-48823184D01*
X47950893Y-48966893D01*
X47807184Y-49142003D01*
X47700398Y-49341785D01*
X47634640Y-49558561D01*
X47612436Y-49784000D01*
X44495815Y-49784000D01*
X47616549Y-46663267D01*
X47616549Y-48094000D01*
X47622341Y-48152810D01*
X47639496Y-48209360D01*
X47667353Y-48261477D01*
X47704842Y-48307158D01*
X47750523Y-48344647D01*
X47802640Y-48372504D01*
X47859190Y-48389659D01*
X47918000Y-48395451D01*
X49618000Y-48395451D01*
X49676810Y-48389659D01*
X49733360Y-48372504D01*
X49785477Y-48344647D01*
X49831158Y-48307158D01*
X49868647Y-48261477D01*
X49896504Y-48209360D01*
X49913659Y-48152810D01*
X49919451Y-48094000D01*
X49919451Y-46493999D01*
X50732682Y-46493999D01*
X51109049Y-46870366D01*
X51109049Y-48094000D01*
X51114841Y-48152810D01*
X51131996Y-48209360D01*
X51159853Y-48261477D01*
X51197342Y-48307158D01*
X51243023Y-48344647D01*
X51295140Y-48372504D01*
X51351690Y-48389659D01*
X51410500Y-48395451D01*
X53110500Y-48395451D01*
X53169310Y-48389659D01*
X53225860Y-48372504D01*
X53277977Y-48344647D01*
X53323658Y-48307158D01*
X53361147Y-48261477D01*
X53389004Y-48209360D01*
X53406159Y-48152810D01*
X53411951Y-48094000D01*
X53411951Y-46394000D01*
X53406159Y-46335190D01*
X53389004Y-46278640D01*
X53361147Y-46226523D01*
X53323658Y-46180842D01*
X53277977Y-46143353D01*
X53225860Y-46115496D01*
X53169310Y-46098341D01*
X53110500Y-46092549D01*
X51886866Y-46092549D01*
X51368512Y-45574195D01*
X51351289Y-45553209D01*
X51267541Y-45484478D01*
X51171993Y-45433407D01*
X51068318Y-45401957D01*
X50987517Y-45393999D01*
X50987507Y-45393999D01*
X50960499Y-45391339D01*
X50933491Y-45393999D01*
X47585007Y-45393999D01*
X47557999Y-45391339D01*
X47530991Y-45393999D01*
X47530981Y-45393999D01*
X47450180Y-45401957D01*
X47346505Y-45433407D01*
X47250957Y-45484478D01*
X47188194Y-45535986D01*
X47188189Y-45535991D01*
X47167209Y-45553209D01*
X47149991Y-45574189D01*
X43222941Y-49501240D01*
X43201961Y-49518458D01*
X43184743Y-49539438D01*
X43184737Y-49539444D01*
X43133229Y-49602206D01*
X43089440Y-49684132D01*
X43082159Y-49697754D01*
X43050709Y-49801429D01*
X43045953Y-49849720D01*
X43040090Y-49909248D01*
X43042751Y-49936266D01*
X43042750Y-52377250D01*
X42826200Y-52377250D01*
X42800724Y-52351774D01*
X42686074Y-52275168D01*
X42558682Y-52222401D01*
X42423444Y-52195500D01*
X42285556Y-52195500D01*
X42150318Y-52222401D01*
X42022926Y-52275168D01*
X41908276Y-52351774D01*
X41810774Y-52449276D01*
X41734168Y-52563926D01*
X41681401Y-52691318D01*
X41654500Y-52826556D01*
X41654500Y-52926550D01*
X39251107Y-50523157D01*
X39251107Y-49942257D01*
X39253162Y-49921390D01*
X39251107Y-49900523D01*
X39251107Y-49900517D01*
X39244957Y-49838077D01*
X39220655Y-49757964D01*
X39181191Y-49684131D01*
X39128081Y-49619417D01*
X39121412Y-49613944D01*
X39126108Y-49590336D01*
X39126108Y-49452448D01*
X39099207Y-49317210D01*
X39046440Y-49189818D01*
X38969834Y-49075168D01*
X38872332Y-48977666D01*
X38757682Y-48901060D01*
X38630290Y-48848293D01*
X38495052Y-48821392D01*
X38357164Y-48821392D01*
X38221926Y-48848293D01*
X38094534Y-48901060D01*
X37979884Y-48977666D01*
X37882382Y-49075168D01*
X37805776Y-49189818D01*
X37753009Y-49317210D01*
X37726108Y-49452448D01*
X37726108Y-49528500D01*
X37650056Y-49528500D01*
X37514818Y-49555401D01*
X37387426Y-49608168D01*
X37272776Y-49684774D01*
X37175274Y-49782276D01*
X37098668Y-49896926D01*
X37045901Y-50024318D01*
X37019000Y-50159556D01*
X29412300Y-50159556D01*
X29390482Y-46627356D01*
X29525528Y-46738186D01*
X29687960Y-46825007D01*
X29864208Y-46878471D01*
X30001568Y-46892000D01*
X31363432Y-46892000D01*
X31500792Y-46878471D01*
X31677040Y-46825007D01*
X31839472Y-46738186D01*
X31981844Y-46621344D01*
X32098686Y-46478972D01*
X32185507Y-46316540D01*
X32238971Y-46140292D01*
X32257024Y-45957000D01*
X33857976Y-45957000D01*
X33876029Y-46140292D01*
X33929493Y-46316540D01*
X34016314Y-46478972D01*
X34133156Y-46621344D01*
X34275528Y-46738186D01*
X34437960Y-46825007D01*
X34614208Y-46878471D01*
X34751568Y-46892000D01*
X36113432Y-46892000D01*
X36250792Y-46878471D01*
X36427040Y-46825007D01*
X36589472Y-46738186D01*
X36731844Y-46621344D01*
X36848686Y-46478972D01*
X36935507Y-46316540D01*
X36988971Y-46140292D01*
X37007024Y-45957000D01*
X36988971Y-45773708D01*
X36935507Y-45597460D01*
X36848686Y-45435028D01*
X36731844Y-45292656D01*
X36589472Y-45175814D01*
X36427040Y-45088993D01*
X36250792Y-45035529D01*
X36113432Y-45022000D01*
X34751568Y-45022000D01*
X34614208Y-45035529D01*
X34437960Y-45088993D01*
X34275528Y-45175814D01*
X34133156Y-45292656D01*
X34016314Y-45435028D01*
X33929493Y-45597460D01*
X33876029Y-45773708D01*
X33857976Y-45957000D01*
X32257024Y-45957000D01*
X32238971Y-45773708D01*
X32185507Y-45597460D01*
X32098686Y-45435028D01*
X31981844Y-45292656D01*
X31839472Y-45175814D01*
X31677040Y-45088993D01*
X31500792Y-45035529D01*
X31363432Y-45022000D01*
X30001568Y-45022000D01*
X29864208Y-45035529D01*
X29687960Y-45088993D01*
X29525528Y-45175814D01*
X29383156Y-45292656D01*
X29382244Y-45293767D01*
X29374120Y-43978500D01*
X78323263Y-43978500D01*
X78514750Y-68991694D01*
X78514750Y-68991694D01*
G37*
X78514750Y-68991694D02*
X78330471Y-68546806D01*
X78056876Y-68137343D01*
X77708657Y-67789124D01*
X77299194Y-67515529D01*
X76844223Y-67327074D01*
X76361228Y-67231000D01*
X75868772Y-67231000D01*
X75385777Y-67327074D01*
X74930806Y-67515529D01*
X74521343Y-67789124D01*
X74173124Y-68137343D01*
X73899529Y-68546806D01*
X73711074Y-69001777D01*
X73615000Y-69484772D01*
X73615000Y-69977228D01*
X73711074Y-70460223D01*
X73899529Y-70915194D01*
X74173124Y-71324657D01*
X74521343Y-71672876D01*
X74930806Y-71946471D01*
X75385777Y-72134926D01*
X75868772Y-72231000D01*
X76361228Y-72231000D01*
X76844223Y-72134926D01*
X77299194Y-71946471D01*
X77708657Y-71672876D01*
X78056876Y-71324657D01*
X78330471Y-70915194D01*
X78518926Y-70460223D01*
X78525730Y-70426018D01*
X78672954Y-89657378D01*
X29656662Y-89720625D01*
X29594654Y-79681612D01*
X30223000Y-79681612D01*
X30223000Y-79957388D01*
X30276801Y-80227865D01*
X30382336Y-80482649D01*
X30535549Y-80711948D01*
X30730552Y-80906951D01*
X30959851Y-81060164D01*
X31030674Y-81089500D01*
X30959851Y-81118836D01*
X30730552Y-81272049D01*
X30535549Y-81467052D01*
X30382336Y-81696351D01*
X30276801Y-81951135D01*
X30223000Y-82221612D01*
X30223000Y-82497388D01*
X30276801Y-82767865D01*
X30382336Y-83022649D01*
X30535549Y-83251948D01*
X30730552Y-83446951D01*
X30959851Y-83600164D01*
X31030674Y-83629500D01*
X30959851Y-83658836D01*
X30730552Y-83812049D01*
X30535549Y-84007052D01*
X30382336Y-84236351D01*
X30276801Y-84491135D01*
X30223000Y-84761612D01*
X30223000Y-85037388D01*
X30276801Y-85307865D01*
X30382336Y-85562649D01*
X30535549Y-85791948D01*
X30730552Y-85986951D01*
X30959851Y-86140164D01*
X31030674Y-86169500D01*
X30959851Y-86198836D01*
X30730552Y-86352049D01*
X30535549Y-86547052D01*
X30382336Y-86776351D01*
X30276801Y-87031135D01*
X30223000Y-87301612D01*
X30223000Y-87577388D01*
X30276801Y-87847865D01*
X30382336Y-88102649D01*
X30535549Y-88331948D01*
X30730552Y-88526951D01*
X30959851Y-88680164D01*
X31214635Y-88785699D01*
X31485112Y-88839500D01*
X31760888Y-88839500D01*
X32031365Y-88785699D01*
X32286149Y-88680164D01*
X32515448Y-88526951D01*
X32710451Y-88331948D01*
X32863664Y-88102649D01*
X32969199Y-87847865D01*
X33023000Y-87577388D01*
X33023000Y-87301612D01*
X32969199Y-87031135D01*
X32863664Y-86776351D01*
X32710451Y-86547052D01*
X32515448Y-86352049D01*
X32286149Y-86198836D01*
X32215326Y-86169500D01*
X32286149Y-86140164D01*
X32515448Y-85986951D01*
X32710451Y-85791948D01*
X32863664Y-85562649D01*
X32969199Y-85307865D01*
X33023000Y-85037388D01*
X33023000Y-84761612D01*
X32969199Y-84491135D01*
X32863664Y-84236351D01*
X32710451Y-84007052D01*
X32515448Y-83812049D01*
X32286149Y-83658836D01*
X32215326Y-83629500D01*
X32286149Y-83600164D01*
X32515448Y-83446951D01*
X32710451Y-83251948D01*
X32863664Y-83022649D01*
X32969199Y-82767865D01*
X33023000Y-82497388D01*
X33023000Y-82221612D01*
X32969199Y-81951135D01*
X32863664Y-81696351D01*
X32710451Y-81467052D01*
X32515448Y-81272049D01*
X32286149Y-81118836D01*
X32215326Y-81089500D01*
X32286149Y-81060164D01*
X32515448Y-80906951D01*
X32710451Y-80711948D01*
X32863664Y-80482649D01*
X32969199Y-80227865D01*
X33023000Y-79957388D01*
X33023000Y-79681612D01*
X32969199Y-79411135D01*
X32863664Y-79156351D01*
X32710451Y-78927052D01*
X32515448Y-78732049D01*
X32325253Y-78604964D01*
X32452740Y-78537816D01*
X32468005Y-78527616D01*
X32582098Y-78309308D01*
X31623000Y-77350211D01*
X30663902Y-78309308D01*
X30777995Y-78527616D01*
X30920685Y-78605006D01*
X30730552Y-78732049D01*
X30535549Y-78927052D01*
X30382336Y-79156351D01*
X30276801Y-79411135D01*
X30223000Y-79681612D01*
X29594654Y-79681612D01*
X29579759Y-77270320D01*
X30115770Y-77270320D01*
X30142940Y-77564543D01*
X30226988Y-77847811D01*
X30364684Y-78109240D01*
X30374884Y-78124505D01*
X30593192Y-78238598D01*
X31552289Y-77279500D01*
X31538147Y-77265358D01*
X31608858Y-77194647D01*
X31623000Y-77208789D01*
X31637142Y-77194647D01*
X31707853Y-77265358D01*
X31693711Y-77279500D01*
X32652808Y-78238598D01*
X32871116Y-78124505D01*
X33011985Y-77864774D01*
X33099478Y-77582550D01*
X33130230Y-77288680D01*
X33103060Y-76994457D01*
X33019012Y-76711189D01*
X32881316Y-76449760D01*
X32871116Y-76434495D01*
X32652811Y-76320403D01*
X32723807Y-76249407D01*
X32715820Y-76241420D01*
X32723000Y-76241435D01*
X32801414Y-76233712D01*
X32876814Y-76210840D01*
X32946303Y-76173697D01*
X33007211Y-76123711D01*
X33057197Y-76062803D01*
X33094340Y-75993314D01*
X33117212Y-75917914D01*
X33124935Y-75839500D01*
X33123460Y-75115056D01*
X40829000Y-75115056D01*
X40829000Y-75252944D01*
X40855901Y-75388182D01*
X40908668Y-75515574D01*
X40985274Y-75630224D01*
X41082776Y-75727726D01*
X41104001Y-75741908D01*
X41104000Y-81068633D01*
X41101945Y-81089500D01*
X41104000Y-81110367D01*
X41104000Y-81110373D01*
X41110150Y-81172813D01*
X41134452Y-81252926D01*
X41173916Y-81326759D01*
X41227026Y-81391474D01*
X41243244Y-81404784D01*
X44072480Y-84234020D01*
X44067500Y-84259056D01*
X44067500Y-84396944D01*
X44094401Y-84532182D01*
X44147168Y-84659574D01*
X44223774Y-84774224D01*
X44321276Y-84871726D01*
X44435926Y-84948332D01*
X44563318Y-85001099D01*
X44698556Y-85028000D01*
X44836444Y-85028000D01*
X44971682Y-85001099D01*
X45099074Y-84948332D01*
X45213724Y-84871726D01*
X45311226Y-84774224D01*
X45387832Y-84659574D01*
X45440599Y-84532182D01*
X45467500Y-84396944D01*
X45467500Y-84259056D01*
X45440599Y-84123818D01*
X45387832Y-83996426D01*
X45311226Y-83881776D01*
X45213724Y-83784274D01*
X45099074Y-83707668D01*
X44971682Y-83654901D01*
X44836444Y-83628000D01*
X44698556Y-83628000D01*
X44673520Y-83632980D01*
X41954000Y-80913460D01*
X41954000Y-76639056D01*
X46988500Y-76639056D01*
X46988500Y-76776944D01*
X47015401Y-76912182D01*
X47068168Y-77039574D01*
X47144774Y-77154224D01*
X47242276Y-77251726D01*
X47263500Y-77265907D01*
X47263501Y-81322623D01*
X47261445Y-81343500D01*
X47269650Y-81426814D01*
X47293953Y-81506927D01*
X47333417Y-81580760D01*
X47386527Y-81645474D01*
X47402739Y-81658779D01*
X51057480Y-85313521D01*
X51052500Y-85338556D01*
X51052500Y-85476444D01*
X51079401Y-85611682D01*
X51132168Y-85739074D01*
X51208774Y-85853724D01*
X51306276Y-85951226D01*
X51420926Y-86027832D01*
X51548318Y-86080599D01*
X51683556Y-86107500D01*
X51821444Y-86107500D01*
X51956682Y-86080599D01*
X52084074Y-86027832D01*
X52198724Y-85951226D01*
X52296226Y-85853724D01*
X52372832Y-85739074D01*
X52425599Y-85611682D01*
X52452500Y-85476444D01*
X52452500Y-85338556D01*
X52425599Y-85203318D01*
X52372832Y-85075926D01*
X52296226Y-84961276D01*
X52198724Y-84863774D01*
X52084074Y-84787168D01*
X51956682Y-84734401D01*
X51821444Y-84707500D01*
X51683556Y-84707500D01*
X51658521Y-84712480D01*
X48113500Y-81167460D01*
X48113500Y-77265907D01*
X48134724Y-77251726D01*
X48232226Y-77154224D01*
X48308832Y-77039574D01*
X48361599Y-76912182D01*
X48388500Y-76776944D01*
X48388500Y-76639056D01*
X48361599Y-76503818D01*
X48308832Y-76376426D01*
X48232226Y-76261776D01*
X48134724Y-76164274D01*
X48020074Y-76087668D01*
X47892682Y-76034901D01*
X47757444Y-76008000D01*
X47619556Y-76008000D01*
X47484318Y-76034901D01*
X47356926Y-76087668D01*
X47242276Y-76164274D01*
X47144774Y-76261776D01*
X47068168Y-76376426D01*
X47015401Y-76503818D01*
X46988500Y-76639056D01*
X41954000Y-76639056D01*
X41954000Y-75741907D01*
X41975224Y-75727726D01*
X42072726Y-75630224D01*
X42149332Y-75515574D01*
X42202099Y-75388182D01*
X42229000Y-75252944D01*
X42229000Y-75115056D01*
X42202099Y-74979818D01*
X42149332Y-74852426D01*
X42072726Y-74737776D01*
X41975224Y-74640274D01*
X41860574Y-74563668D01*
X41733182Y-74510901D01*
X41597944Y-74484000D01*
X41460056Y-74484000D01*
X41324818Y-74510901D01*
X41197426Y-74563668D01*
X41082776Y-74640274D01*
X40985274Y-74737776D01*
X40908668Y-74852426D01*
X40855901Y-74979818D01*
X40829000Y-75115056D01*
X33123460Y-75115056D01*
X33123000Y-74889500D01*
X33023000Y-74789500D01*
X31673000Y-74789500D01*
X31673000Y-74809500D01*
X31573000Y-74809500D01*
X31573000Y-74789500D01*
X30223000Y-74789500D01*
X30123000Y-74889500D01*
X30121065Y-75839500D01*
X30128788Y-75917914D01*
X30151660Y-75993314D01*
X30188803Y-76062803D01*
X30238789Y-76123711D01*
X30299697Y-76173697D01*
X30369186Y-76210840D01*
X30444586Y-76233712D01*
X30523000Y-76241435D01*
X30530180Y-76241420D01*
X30522193Y-76249407D01*
X30593189Y-76320403D01*
X30374884Y-76434495D01*
X30234015Y-76694226D01*
X30146522Y-76976450D01*
X30115770Y-77270320D01*
X29579759Y-77270320D01*
X29557332Y-73639500D01*
X30121065Y-73639500D01*
X30123000Y-74589500D01*
X30223000Y-74689500D01*
X31573000Y-74689500D01*
X31573000Y-73339500D01*
X31673000Y-73339500D01*
X31673000Y-74689500D01*
X33023000Y-74689500D01*
X33123000Y-74589500D01*
X33124935Y-73639500D01*
X33117212Y-73561086D01*
X33094340Y-73485686D01*
X33057197Y-73416197D01*
X33007211Y-73355289D01*
X32946303Y-73305303D01*
X32886910Y-73273556D01*
X56386500Y-73273556D01*
X56386500Y-73411444D01*
X56413401Y-73546682D01*
X56466168Y-73674074D01*
X56542774Y-73788724D01*
X56640276Y-73886226D01*
X56754926Y-73962832D01*
X56882318Y-74015599D01*
X57017556Y-74042500D01*
X57155444Y-74042500D01*
X57290682Y-74015599D01*
X57418074Y-73962832D01*
X57532724Y-73886226D01*
X57630226Y-73788724D01*
X57706832Y-73674074D01*
X57759599Y-73546682D01*
X57786500Y-73411444D01*
X57786500Y-73273556D01*
X57781520Y-73248520D01*
X60564541Y-70465500D01*
X62901135Y-70465500D01*
X62922002Y-70467555D01*
X62942869Y-70465500D01*
X62942876Y-70465500D01*
X63005316Y-70459350D01*
X63085429Y-70435048D01*
X63159262Y-70395584D01*
X63223976Y-70342474D01*
X63237285Y-70326257D01*
X64484263Y-69079280D01*
X64500474Y-69065976D01*
X64553584Y-69001262D01*
X64579301Y-68953147D01*
X64593048Y-68927430D01*
X64617350Y-68847316D01*
X64617350Y-68847315D01*
X64623500Y-68784876D01*
X64623500Y-68784869D01*
X64625555Y-68764002D01*
X64623500Y-68743135D01*
X64623500Y-68026909D01*
X64637744Y-68038599D01*
X69008645Y-72409500D01*
X63422907Y-72409500D01*
X63408726Y-72388276D01*
X63311224Y-72290774D01*
X63196574Y-72214168D01*
X63069182Y-72161401D01*
X62933944Y-72134500D01*
X62796056Y-72134500D01*
X62660818Y-72161401D01*
X62533426Y-72214168D01*
X62418776Y-72290774D01*
X62321274Y-72388276D01*
X62244668Y-72502926D01*
X62191901Y-72630318D01*
X62165000Y-72765556D01*
X62165000Y-72903444D01*
X62191901Y-73038682D01*
X62244168Y-73164866D01*
X62171944Y-73150500D01*
X62034056Y-73150500D01*
X61898818Y-73177401D01*
X61771426Y-73230168D01*
X61656776Y-73306774D01*
X61559274Y-73404276D01*
X61482668Y-73518926D01*
X61429901Y-73646318D01*
X61403000Y-73781556D01*
X61403000Y-73919444D01*
X61429901Y-74054682D01*
X61482668Y-74182074D01*
X61559274Y-74296724D01*
X61656776Y-74394226D01*
X61771426Y-74470832D01*
X61898818Y-74523599D01*
X62034056Y-74550500D01*
X62171944Y-74550500D01*
X62307182Y-74523599D01*
X62434574Y-74470832D01*
X62549224Y-74394226D01*
X62646726Y-74296724D01*
X62660907Y-74275500D01*
X67393000Y-74275500D01*
X67393001Y-78020623D01*
X67390945Y-78041500D01*
X67399150Y-78124814D01*
X67408987Y-78157240D01*
X67423453Y-78204927D01*
X67462917Y-78278760D01*
X67516027Y-78343474D01*
X67532239Y-78356779D01*
X70106219Y-80930760D01*
X70119526Y-80946974D01*
X70184240Y-81000084D01*
X70258073Y-81039548D01*
X70313883Y-81056478D01*
X70338185Y-81063850D01*
X70346598Y-81064679D01*
X70400626Y-81070000D01*
X70400632Y-81070000D01*
X70421499Y-81072055D01*
X70442366Y-81070000D01*
X74436460Y-81070000D01*
X75079446Y-81712986D01*
X74980801Y-81951135D01*
X74927000Y-82221612D01*
X74927000Y-82497388D01*
X74980801Y-82767865D01*
X75086336Y-83022649D01*
X75239549Y-83251948D01*
X75434552Y-83446951D01*
X75663851Y-83600164D01*
X75734674Y-83629500D01*
X75663851Y-83658836D01*
X75434552Y-83812049D01*
X75239549Y-84007052D01*
X75086336Y-84236351D01*
X74980801Y-84491135D01*
X74927000Y-84761612D01*
X74927000Y-85037388D01*
X74980801Y-85307865D01*
X75086336Y-85562649D01*
X75239549Y-85791948D01*
X75434552Y-85986951D01*
X75663851Y-86140164D01*
X75734674Y-86169500D01*
X75663851Y-86198836D01*
X75434552Y-86352049D01*
X75239549Y-86547052D01*
X75086336Y-86776351D01*
X74980801Y-87031135D01*
X74927000Y-87301612D01*
X74927000Y-87577388D01*
X74980801Y-87847865D01*
X75086336Y-88102649D01*
X75239549Y-88331948D01*
X75434552Y-88526951D01*
X75663851Y-88680164D01*
X75918635Y-88785699D01*
X76189112Y-88839500D01*
X76464888Y-88839500D01*
X76735365Y-88785699D01*
X76990149Y-88680164D01*
X77219448Y-88526951D01*
X77414451Y-88331948D01*
X77567664Y-88102649D01*
X77673199Y-87847865D01*
X77727000Y-87577388D01*
X77727000Y-87301612D01*
X77673199Y-87031135D01*
X77567664Y-86776351D01*
X77414451Y-86547052D01*
X77219448Y-86352049D01*
X76990149Y-86198836D01*
X76919326Y-86169500D01*
X76990149Y-86140164D01*
X77219448Y-85986951D01*
X77414451Y-85791948D01*
X77567664Y-85562649D01*
X77673199Y-85307865D01*
X77727000Y-85037388D01*
X77727000Y-84761612D01*
X77673199Y-84491135D01*
X77567664Y-84236351D01*
X77414451Y-84007052D01*
X77219448Y-83812049D01*
X76990149Y-83658836D01*
X76919326Y-83629500D01*
X76990149Y-83600164D01*
X77219448Y-83446951D01*
X77414451Y-83251948D01*
X77567664Y-83022649D01*
X77673199Y-82767865D01*
X77727000Y-82497388D01*
X77727000Y-82221612D01*
X77673199Y-81951135D01*
X77567664Y-81696351D01*
X77414451Y-81467052D01*
X77219448Y-81272049D01*
X76990149Y-81118836D01*
X76919326Y-81089500D01*
X76990149Y-81060164D01*
X77219448Y-80906951D01*
X77414451Y-80711948D01*
X77567664Y-80482649D01*
X77673199Y-80227865D01*
X77727000Y-79957388D01*
X77727000Y-79681612D01*
X77673199Y-79411135D01*
X77567664Y-79156351D01*
X77414451Y-78927052D01*
X77219448Y-78732049D01*
X76990149Y-78578836D01*
X76919326Y-78549500D01*
X76990149Y-78520164D01*
X77219448Y-78366951D01*
X77414451Y-78171948D01*
X77567664Y-77942649D01*
X77673199Y-77687865D01*
X77727000Y-77417388D01*
X77727000Y-77141612D01*
X77673199Y-76871135D01*
X77567664Y-76616351D01*
X77414451Y-76387052D01*
X77219448Y-76192049D01*
X77142975Y-76140951D01*
X77427000Y-76140951D01*
X77485810Y-76135159D01*
X77542360Y-76118004D01*
X77594477Y-76090147D01*
X77640158Y-76052658D01*
X77677647Y-76006977D01*
X77705504Y-75954860D01*
X77722659Y-75898310D01*
X77728451Y-75839500D01*
X77728451Y-73639500D01*
X77722659Y-73580690D01*
X77705504Y-73524140D01*
X77677647Y-73472023D01*
X77640158Y-73426342D01*
X77594477Y-73388853D01*
X77542360Y-73360996D01*
X77485810Y-73343841D01*
X77427000Y-73338049D01*
X75227000Y-73338049D01*
X75168190Y-73343841D01*
X75111640Y-73360996D01*
X75059523Y-73388853D01*
X75013842Y-73426342D01*
X74976353Y-73472023D01*
X74948496Y-73524140D01*
X74931341Y-73580690D01*
X74925549Y-73639500D01*
X74925549Y-75839500D01*
X74931341Y-75898310D01*
X74948496Y-75954860D01*
X74976353Y-76006977D01*
X75013842Y-76052658D01*
X75059523Y-76090147D01*
X75111640Y-76118004D01*
X75168190Y-76135159D01*
X75227000Y-76140951D01*
X75511025Y-76140951D01*
X75434552Y-76192049D01*
X75239549Y-76387052D01*
X75086336Y-76616351D01*
X74980801Y-76871135D01*
X74927000Y-77141612D01*
X74927000Y-77417388D01*
X74980801Y-77687865D01*
X75086336Y-77942649D01*
X75165241Y-78060738D01*
X75139259Y-78039415D01*
X75065426Y-77999951D01*
X74985313Y-77975649D01*
X74922873Y-77969499D01*
X74922866Y-77969499D01*
X74901999Y-77967444D01*
X74881132Y-77969499D01*
X71585540Y-77969499D01*
X70465500Y-76849460D01*
X70465500Y-73866355D01*
X73020348Y-76421203D01*
X72989274Y-76452276D01*
X72912668Y-76566926D01*
X72859901Y-76694318D01*
X72833000Y-76829556D01*
X72833000Y-76967444D01*
X72859901Y-77102682D01*
X72912668Y-77230074D01*
X72989274Y-77344724D01*
X73086776Y-77442226D01*
X73201426Y-77518832D01*
X73328818Y-77571599D01*
X73464056Y-77598500D01*
X73601944Y-77598500D01*
X73737182Y-77571599D01*
X73864574Y-77518832D01*
X73979224Y-77442226D01*
X74076726Y-77344724D01*
X74153332Y-77230074D01*
X74206099Y-77102682D01*
X74233000Y-76967444D01*
X74233000Y-76829556D01*
X74206099Y-76694318D01*
X74153332Y-76566926D01*
X74076726Y-76452276D01*
X73979224Y-76354774D01*
X73959209Y-76341401D01*
X73960055Y-76332815D01*
X73958000Y-76311948D01*
X73958000Y-76311941D01*
X73951850Y-76249501D01*
X73927548Y-76169388D01*
X73888084Y-76095555D01*
X73834974Y-76030841D01*
X73818756Y-76017531D01*
X65348500Y-67547275D01*
X65348500Y-59912909D01*
X72636100Y-59912909D01*
X72636100Y-60102091D01*
X72673008Y-60287638D01*
X72745405Y-60462420D01*
X72850509Y-60619719D01*
X72984281Y-60753491D01*
X73141580Y-60858595D01*
X73316362Y-60930992D01*
X73501909Y-60967900D01*
X73691091Y-60967900D01*
X73876638Y-60930992D01*
X74051420Y-60858595D01*
X74208719Y-60753491D01*
X74342491Y-60619719D01*
X74447595Y-60462420D01*
X74519992Y-60287638D01*
X74556900Y-60102091D01*
X74556900Y-59912909D01*
X74519992Y-59727362D01*
X74447595Y-59552580D01*
X74342491Y-59395281D01*
X74208719Y-59261509D01*
X74051420Y-59156405D01*
X73876638Y-59084008D01*
X73691091Y-59047100D01*
X73501909Y-59047100D01*
X73316362Y-59084008D01*
X73141580Y-59156405D01*
X72984281Y-59261509D01*
X72850509Y-59395281D01*
X72745405Y-59552580D01*
X72673008Y-59727362D01*
X72636100Y-59912909D01*
X65348500Y-59912909D01*
X65348500Y-55086909D01*
X72636100Y-55086909D01*
X72636100Y-55276091D01*
X72673008Y-55461638D01*
X72745405Y-55636420D01*
X72850509Y-55793719D01*
X72984281Y-55927491D01*
X73141580Y-56032595D01*
X73316362Y-56104992D01*
X73501909Y-56141900D01*
X73691091Y-56141900D01*
X73876638Y-56104992D01*
X74051420Y-56032595D01*
X74208719Y-55927491D01*
X74342491Y-55793719D01*
X74447595Y-55636420D01*
X74519992Y-55461638D01*
X74556900Y-55276091D01*
X74556900Y-55086909D01*
X74519992Y-54901362D01*
X74447595Y-54726580D01*
X74342491Y-54569281D01*
X74208719Y-54435509D01*
X74051420Y-54330405D01*
X73876638Y-54258008D01*
X73691091Y-54221100D01*
X73501909Y-54221100D01*
X73316362Y-54258008D01*
X73141580Y-54330405D01*
X72984281Y-54435509D01*
X72850509Y-54569281D01*
X72745405Y-54726580D01*
X72673008Y-54901362D01*
X72636100Y-55086909D01*
X65348500Y-55086909D01*
X65348500Y-52183407D01*
X65369724Y-52169226D01*
X65467226Y-52071724D01*
X65543832Y-51957074D01*
X65596599Y-51829682D01*
X65623500Y-51694444D01*
X65623500Y-51556556D01*
X65596599Y-51421318D01*
X65543832Y-51293926D01*
X65467226Y-51179276D01*
X65369724Y-51081774D01*
X65255074Y-51005168D01*
X65127682Y-50952401D01*
X64992444Y-50925500D01*
X64854556Y-50925500D01*
X64719318Y-50952401D01*
X64591926Y-51005168D01*
X64477276Y-51081774D01*
X64379774Y-51179276D01*
X64369177Y-51195136D01*
X63433020Y-50258980D01*
X63438000Y-50233944D01*
X63438000Y-50096056D01*
X63411099Y-49960818D01*
X63358332Y-49833426D01*
X63281726Y-49718776D01*
X63184224Y-49621274D01*
X63069574Y-49544668D01*
X62942182Y-49491901D01*
X62806944Y-49465000D01*
X62669056Y-49465000D01*
X62533818Y-49491901D01*
X62406426Y-49544668D01*
X62291776Y-49621274D01*
X62194274Y-49718776D01*
X62117668Y-49833426D01*
X62064901Y-49960818D01*
X62038000Y-50096056D01*
X62038000Y-50233944D01*
X62064901Y-50369182D01*
X62117668Y-50496574D01*
X62194274Y-50611224D01*
X62291776Y-50708726D01*
X62406426Y-50785332D01*
X62533818Y-50838099D01*
X62669056Y-50865000D01*
X62806944Y-50865000D01*
X62831980Y-50860020D01*
X63773501Y-51801542D01*
X63773500Y-68587961D01*
X62745962Y-69615500D01*
X60409366Y-69615500D01*
X60388499Y-69613445D01*
X60367632Y-69615500D01*
X60367626Y-69615500D01*
X60313598Y-69620821D01*
X60305185Y-69621650D01*
X60280883Y-69629022D01*
X60225073Y-69645952D01*
X60151240Y-69685416D01*
X60086526Y-69738526D01*
X60073221Y-69754738D01*
X57180480Y-72647480D01*
X57155444Y-72642500D01*
X57017556Y-72642500D01*
X56882318Y-72669401D01*
X56754926Y-72722168D01*
X56640276Y-72798774D01*
X56542774Y-72896276D01*
X56466168Y-73010926D01*
X56413401Y-73138318D01*
X56386500Y-73273556D01*
X32886910Y-73273556D01*
X32876814Y-73268160D01*
X32801414Y-73245288D01*
X32723000Y-73237565D01*
X31773000Y-73239500D01*
X31673000Y-73339500D01*
X31573000Y-73339500D01*
X31473000Y-73239500D01*
X30523000Y-73237565D01*
X30444586Y-73245288D01*
X30369186Y-73268160D01*
X30299697Y-73305303D01*
X30238789Y-73355289D01*
X30188803Y-73416197D01*
X30151660Y-73485686D01*
X30128788Y-73561086D01*
X30121065Y-73639500D01*
X29557332Y-73639500D01*
X29545283Y-71688872D01*
X29930806Y-71946471D01*
X30385777Y-72134926D01*
X30868772Y-72231000D01*
X31361228Y-72231000D01*
X31844223Y-72134926D01*
X32299194Y-71946471D01*
X32708657Y-71672876D01*
X33056876Y-71324657D01*
X33330471Y-70915194D01*
X33518926Y-70460223D01*
X33615000Y-69977228D01*
X33615000Y-69484772D01*
X33518926Y-69001777D01*
X33330471Y-68546806D01*
X33056876Y-68137343D01*
X32708657Y-67789124D01*
X32299194Y-67515529D01*
X31844223Y-67327074D01*
X31361228Y-67231000D01*
X30868772Y-67231000D01*
X30385777Y-67327074D01*
X29930806Y-67515529D01*
X29521343Y-67789124D01*
X29521195Y-67789272D01*
X29477410Y-60700556D01*
X34669500Y-60700556D01*
X34669500Y-60838444D01*
X34696401Y-60973682D01*
X34749168Y-61101074D01*
X34825774Y-61215724D01*
X34923276Y-61313226D01*
X35037926Y-61389832D01*
X35165318Y-61442599D01*
X35289480Y-61467297D01*
X35899001Y-62076818D01*
X35899000Y-67063666D01*
X35828668Y-67168926D01*
X35775901Y-67296318D01*
X35749000Y-67431556D01*
X35749000Y-67569444D01*
X35775901Y-67704682D01*
X35828668Y-67832074D01*
X35905274Y-67946724D01*
X36002776Y-68044226D01*
X36117426Y-68120832D01*
X36244818Y-68173599D01*
X36380056Y-68200500D01*
X36517944Y-68200500D01*
X36653182Y-68173599D01*
X36780574Y-68120832D01*
X36895224Y-68044226D01*
X36992726Y-67946724D01*
X37069332Y-67832074D01*
X37122099Y-67704682D01*
X37149000Y-67569444D01*
X37149000Y-67461500D01*
X53485065Y-67461500D01*
X53492788Y-67539914D01*
X53515660Y-67615314D01*
X53552803Y-67684803D01*
X53602789Y-67745711D01*
X53663697Y-67795697D01*
X53733186Y-67832840D01*
X53808586Y-67855712D01*
X53887000Y-67863435D01*
X54587000Y-67861500D01*
X54687000Y-67761500D01*
X54687000Y-66661500D01*
X54787000Y-66661500D01*
X54787000Y-67761500D01*
X54887000Y-67861500D01*
X55587000Y-67863435D01*
X55665414Y-67855712D01*
X55740814Y-67832840D01*
X55810303Y-67795697D01*
X55871211Y-67745711D01*
X55921197Y-67684803D01*
X55958340Y-67615314D01*
X55981212Y-67539914D01*
X55988935Y-67461500D01*
X55987000Y-66761500D01*
X55887000Y-66661500D01*
X54787000Y-66661500D01*
X54687000Y-66661500D01*
X53587000Y-66661500D01*
X53487000Y-66761500D01*
X53485065Y-67461500D01*
X37149000Y-67461500D01*
X37149000Y-67431556D01*
X37122099Y-67296318D01*
X37069332Y-67168926D01*
X36999000Y-67063666D01*
X36999000Y-66611500D01*
X56121436Y-66611500D01*
X56143640Y-66836939D01*
X56209398Y-67053715D01*
X56316184Y-67253497D01*
X56459893Y-67428607D01*
X56635003Y-67572316D01*
X56834785Y-67679102D01*
X57051561Y-67744860D01*
X57220508Y-67761500D01*
X57333492Y-67761500D01*
X57502439Y-67744860D01*
X57719215Y-67679102D01*
X57918997Y-67572316D01*
X58094107Y-67428607D01*
X58237816Y-67253497D01*
X58344602Y-67053715D01*
X58410360Y-66836939D01*
X58432564Y-66611500D01*
X58661436Y-66611500D01*
X58683640Y-66836939D01*
X58749398Y-67053715D01*
X58856184Y-67253497D01*
X58999893Y-67428607D01*
X59175003Y-67572316D01*
X59374785Y-67679102D01*
X59591561Y-67744860D01*
X59760508Y-67761500D01*
X59873492Y-67761500D01*
X60042439Y-67744860D01*
X60259215Y-67679102D01*
X60458997Y-67572316D01*
X60634107Y-67428607D01*
X60777816Y-67253497D01*
X60884602Y-67053715D01*
X60950360Y-66836939D01*
X60972564Y-66611500D01*
X61201436Y-66611500D01*
X61223640Y-66836939D01*
X61289398Y-67053715D01*
X61396184Y-67253497D01*
X61539893Y-67428607D01*
X61715003Y-67572316D01*
X61914785Y-67679102D01*
X62131561Y-67744860D01*
X62300508Y-67761500D01*
X62413492Y-67761500D01*
X62582439Y-67744860D01*
X62799215Y-67679102D01*
X62998997Y-67572316D01*
X63174107Y-67428607D01*
X63317816Y-67253497D01*
X63424602Y-67053715D01*
X63490360Y-66836939D01*
X63512564Y-66611500D01*
X63490360Y-66386061D01*
X63424602Y-66169285D01*
X63317816Y-65969503D01*
X63174107Y-65794393D01*
X62998997Y-65650684D01*
X62799215Y-65543898D01*
X62582439Y-65478140D01*
X62413492Y-65461500D01*
X62300508Y-65461500D01*
X62131561Y-65478140D01*
X61914785Y-65543898D01*
X61715003Y-65650684D01*
X61539893Y-65794393D01*
X61396184Y-65969503D01*
X61289398Y-66169285D01*
X61223640Y-66386061D01*
X61201436Y-66611500D01*
X60972564Y-66611500D01*
X60950360Y-66386061D01*
X60884602Y-66169285D01*
X60777816Y-65969503D01*
X60634107Y-65794393D01*
X60458997Y-65650684D01*
X60259215Y-65543898D01*
X60042439Y-65478140D01*
X59873492Y-65461500D01*
X59760508Y-65461500D01*
X59591561Y-65478140D01*
X59374785Y-65543898D01*
X59175003Y-65650684D01*
X58999893Y-65794393D01*
X58856184Y-65969503D01*
X58749398Y-66169285D01*
X58683640Y-66386061D01*
X58661436Y-66611500D01*
X58432564Y-66611500D01*
X58410360Y-66386061D01*
X58344602Y-66169285D01*
X58237816Y-65969503D01*
X58094107Y-65794393D01*
X57918997Y-65650684D01*
X57719215Y-65543898D01*
X57502439Y-65478140D01*
X57333492Y-65461500D01*
X57220508Y-65461500D01*
X57051561Y-65478140D01*
X56834785Y-65543898D01*
X56635003Y-65650684D01*
X56459893Y-65794393D01*
X56316184Y-65969503D01*
X56209398Y-66169285D01*
X56143640Y-66386061D01*
X56121436Y-66611500D01*
X36999000Y-66611500D01*
X36999000Y-65336056D01*
X50735000Y-65336056D01*
X50735000Y-65473944D01*
X50761901Y-65609182D01*
X50814668Y-65736574D01*
X50891274Y-65851224D01*
X50988776Y-65948726D01*
X51103426Y-66025332D01*
X51230818Y-66078099D01*
X51366056Y-66105000D01*
X51503944Y-66105000D01*
X51639182Y-66078099D01*
X51766574Y-66025332D01*
X51881224Y-65948726D01*
X51978726Y-65851224D01*
X51992907Y-65830000D01*
X53485254Y-65830000D01*
X53487000Y-66461500D01*
X53587000Y-66561500D01*
X54687000Y-66561500D01*
X54687000Y-66541500D01*
X54787000Y-66541500D01*
X54787000Y-66561500D01*
X55887000Y-66561500D01*
X55987000Y-66461500D01*
X55988935Y-65761500D01*
X55988419Y-65756262D01*
X56048476Y-65706974D01*
X56061786Y-65690756D01*
X61245758Y-60506784D01*
X61261974Y-60493476D01*
X61315084Y-60428762D01*
X61354548Y-60354929D01*
X61378850Y-60274816D01*
X61385000Y-60212376D01*
X61385000Y-60212375D01*
X61387056Y-60191502D01*
X61385000Y-60170628D01*
X61385000Y-50722907D01*
X61406224Y-50708726D01*
X61503726Y-50611224D01*
X61580332Y-50496574D01*
X61633099Y-50369182D01*
X61660000Y-50233944D01*
X61660000Y-50096056D01*
X61633099Y-49960818D01*
X61580332Y-49833426D01*
X61503726Y-49718776D01*
X61406224Y-49621274D01*
X61291574Y-49544668D01*
X61164182Y-49491901D01*
X61028944Y-49465000D01*
X60891056Y-49465000D01*
X60755818Y-49491901D01*
X60628426Y-49544668D01*
X60513776Y-49621274D01*
X60416274Y-49718776D01*
X60339668Y-49833426D01*
X60286901Y-49960818D01*
X60260000Y-50096056D01*
X60260000Y-50233944D01*
X60286901Y-50369182D01*
X60339668Y-50496574D01*
X60416274Y-50611224D01*
X60513776Y-50708726D01*
X60535001Y-50722908D01*
X60535000Y-60015462D01*
X58612649Y-61937813D01*
X58615499Y-61908875D01*
X58615499Y-61908868D01*
X58617554Y-61888001D01*
X58615499Y-61867134D01*
X58615499Y-48114865D01*
X58617554Y-48093998D01*
X58615499Y-48073131D01*
X58615499Y-48073125D01*
X58609349Y-48010685D01*
X58585047Y-47930572D01*
X58545583Y-47856739D01*
X58492473Y-47792025D01*
X58476262Y-47778721D01*
X58399622Y-47702081D01*
X58408102Y-47686215D01*
X58473860Y-47469439D01*
X58496064Y-47244000D01*
X58724936Y-47244000D01*
X58747140Y-47469439D01*
X58812898Y-47686215D01*
X58919684Y-47885997D01*
X59063393Y-48061107D01*
X59238503Y-48204816D01*
X59438285Y-48311602D01*
X59655061Y-48377360D01*
X59824008Y-48394000D01*
X59936992Y-48394000D01*
X60105939Y-48377360D01*
X60322715Y-48311602D01*
X60522497Y-48204816D01*
X60697607Y-48061107D01*
X60841316Y-47885997D01*
X60948102Y-47686215D01*
X61013860Y-47469439D01*
X61036064Y-47244000D01*
X61264936Y-47244000D01*
X61287140Y-47469439D01*
X61352898Y-47686215D01*
X61459684Y-47885997D01*
X61603393Y-48061107D01*
X61778503Y-48204816D01*
X61978285Y-48311602D01*
X62195061Y-48377360D01*
X62364008Y-48394000D01*
X62476992Y-48394000D01*
X62645939Y-48377360D01*
X62862715Y-48311602D01*
X63062497Y-48204816D01*
X63237607Y-48061107D01*
X63381316Y-47885997D01*
X63488102Y-47686215D01*
X63553860Y-47469439D01*
X63576064Y-47244000D01*
X63804936Y-47244000D01*
X63827140Y-47469439D01*
X63892898Y-47686215D01*
X63999684Y-47885997D01*
X64143393Y-48061107D01*
X64318503Y-48204816D01*
X64518285Y-48311602D01*
X64735061Y-48377360D01*
X64904008Y-48394000D01*
X65016992Y-48394000D01*
X65185939Y-48377360D01*
X65402715Y-48311602D01*
X65602497Y-48204816D01*
X65777607Y-48061107D01*
X65921316Y-47885997D01*
X66028102Y-47686215D01*
X66093860Y-47469439D01*
X66116064Y-47244000D01*
X66093860Y-47018561D01*
X66028102Y-46801785D01*
X65921316Y-46602003D01*
X65777607Y-46426893D01*
X65602497Y-46283184D01*
X65402715Y-46176398D01*
X65185939Y-46110640D01*
X65016992Y-46094000D01*
X64904008Y-46094000D01*
X64735061Y-46110640D01*
X64518285Y-46176398D01*
X64318503Y-46283184D01*
X64143393Y-46426893D01*
X63999684Y-46602003D01*
X63892898Y-46801785D01*
X63827140Y-47018561D01*
X63804936Y-47244000D01*
X63576064Y-47244000D01*
X63553860Y-47018561D01*
X63488102Y-46801785D01*
X63381316Y-46602003D01*
X63237607Y-46426893D01*
X63062497Y-46283184D01*
X62862715Y-46176398D01*
X62645939Y-46110640D01*
X62476992Y-46094000D01*
X62364008Y-46094000D01*
X62195061Y-46110640D01*
X61978285Y-46176398D01*
X61778503Y-46283184D01*
X61603393Y-46426893D01*
X61459684Y-46602003D01*
X61352898Y-46801785D01*
X61287140Y-47018561D01*
X61264936Y-47244000D01*
X61036064Y-47244000D01*
X61013860Y-47018561D01*
X60948102Y-46801785D01*
X60841316Y-46602003D01*
X60697607Y-46426893D01*
X60522497Y-46283184D01*
X60322715Y-46176398D01*
X60105939Y-46110640D01*
X59936992Y-46094000D01*
X59824008Y-46094000D01*
X59655061Y-46110640D01*
X59438285Y-46176398D01*
X59238503Y-46283184D01*
X59063393Y-46426893D01*
X58919684Y-46602003D01*
X58812898Y-46801785D01*
X58747140Y-47018561D01*
X58724936Y-47244000D01*
X58496064Y-47244000D01*
X58473860Y-47018561D01*
X58408102Y-46801785D01*
X58301316Y-46602003D01*
X58157607Y-46426893D01*
X57982497Y-46283184D01*
X57782715Y-46176398D01*
X57565939Y-46110640D01*
X57396992Y-46094000D01*
X57284008Y-46094000D01*
X57115061Y-46110640D01*
X56898285Y-46176398D01*
X56698503Y-46283184D01*
X56523393Y-46426893D01*
X56379684Y-46602003D01*
X56272898Y-46801785D01*
X56207140Y-47018561D01*
X56184936Y-47244000D01*
X56207140Y-47469439D01*
X56272898Y-47686215D01*
X56379684Y-47885997D01*
X56523393Y-48061107D01*
X56698503Y-48204816D01*
X56898285Y-48311602D01*
X57115061Y-48377360D01*
X57284008Y-48394000D01*
X57396992Y-48394000D01*
X57565939Y-48377360D01*
X57765499Y-48316824D01*
X57765500Y-61711959D01*
X57370980Y-62106480D01*
X57345944Y-62101500D01*
X57208056Y-62101500D01*
X57072818Y-62128401D01*
X56945426Y-62181168D01*
X56830776Y-62257774D01*
X56733274Y-62355276D01*
X56656668Y-62469926D01*
X56603901Y-62597318D01*
X56577000Y-62732556D01*
X56577000Y-62870444D01*
X56603901Y-63005682D01*
X56656668Y-63133074D01*
X56733274Y-63247724D01*
X56830776Y-63345226D01*
X56945426Y-63421832D01*
X57072818Y-63474599D01*
X57075358Y-63475104D01*
X55570462Y-64980000D01*
X51992907Y-64980000D01*
X51978726Y-64958776D01*
X51881224Y-64861274D01*
X51766574Y-64784668D01*
X51639182Y-64731901D01*
X51503944Y-64705000D01*
X51366056Y-64705000D01*
X51230818Y-64731901D01*
X51103426Y-64784668D01*
X50988776Y-64861274D01*
X50891274Y-64958776D01*
X50814668Y-65073426D01*
X50761901Y-65200818D01*
X50735000Y-65336056D01*
X36999000Y-65336056D01*
X36999000Y-61876011D01*
X37001660Y-61849000D01*
X36999000Y-61821989D01*
X36999000Y-61821982D01*
X36991042Y-61741181D01*
X36959592Y-61637506D01*
X36908521Y-61541958D01*
X36839790Y-61458210D01*
X36818804Y-61440987D01*
X36067297Y-60689480D01*
X36042599Y-60565318D01*
X35989832Y-60437926D01*
X35913226Y-60323276D01*
X35815724Y-60225774D01*
X35701074Y-60149168D01*
X35573682Y-60096401D01*
X35438444Y-60069500D01*
X35300556Y-60069500D01*
X35165318Y-60096401D01*
X35037926Y-60149168D01*
X34923276Y-60225774D01*
X34825774Y-60323276D01*
X34749168Y-60437926D01*
X34696401Y-60565318D01*
X34669500Y-60700556D01*
X29477410Y-60700556D01*
X29436423Y-54065059D01*
X29525528Y-54138186D01*
X29687960Y-54225007D01*
X29864208Y-54278471D01*
X30001568Y-54292000D01*
X31363432Y-54292000D01*
X31500792Y-54278471D01*
X31677040Y-54225007D01*
X31839472Y-54138186D01*
X31981844Y-54021344D01*
X32098686Y-53878972D01*
X32185507Y-53716540D01*
X32238971Y-53540292D01*
X32257024Y-53357000D01*
X33857976Y-53357000D01*
X33876029Y-53540292D01*
X33929493Y-53716540D01*
X34016314Y-53878972D01*
X34133156Y-54021344D01*
X34275528Y-54138186D01*
X34437960Y-54225007D01*
X34614208Y-54278471D01*
X34751568Y-54292000D01*
X36113432Y-54292000D01*
X36250792Y-54278471D01*
X36427040Y-54225007D01*
X36589472Y-54138186D01*
X36731844Y-54021344D01*
X36848686Y-53878972D01*
X36935507Y-53716540D01*
X36988971Y-53540292D01*
X37007024Y-53357000D01*
X36988971Y-53173708D01*
X36935507Y-52997460D01*
X36848686Y-52835028D01*
X36731844Y-52692656D01*
X36589472Y-52575814D01*
X36427040Y-52488993D01*
X36250792Y-52435529D01*
X36113432Y-52422000D01*
X34751568Y-52422000D01*
X34614208Y-52435529D01*
X34437960Y-52488993D01*
X34275528Y-52575814D01*
X34133156Y-52692656D01*
X34016314Y-52835028D01*
X33929493Y-52997460D01*
X33876029Y-53173708D01*
X33857976Y-53357000D01*
X32257024Y-53357000D01*
X32238971Y-53173708D01*
X32185507Y-52997460D01*
X32098686Y-52835028D01*
X31981844Y-52692656D01*
X31839472Y-52575814D01*
X31677040Y-52488993D01*
X31500792Y-52435529D01*
X31363432Y-52422000D01*
X30001568Y-52422000D01*
X29864208Y-52435529D01*
X29687960Y-52488993D01*
X29525528Y-52575814D01*
X29427720Y-52656083D01*
X29412300Y-50159556D01*
X37019000Y-50159556D01*
X37019000Y-50297444D01*
X37045901Y-50432682D01*
X37098668Y-50560074D01*
X37175274Y-50674724D01*
X37272776Y-50772226D01*
X37387426Y-50848832D01*
X37514818Y-50901599D01*
X37650056Y-50928500D01*
X37787944Y-50928500D01*
X37812980Y-50923520D01*
X45277716Y-58388256D01*
X45291026Y-58404474D01*
X45355740Y-58457584D01*
X45401740Y-58482171D01*
X45429573Y-58497048D01*
X45509686Y-58521350D01*
X45593000Y-58529556D01*
X45613874Y-58527500D01*
X52782093Y-58527500D01*
X52796274Y-58548724D01*
X52850052Y-58602502D01*
X52796274Y-58656279D01*
X52719668Y-58770929D01*
X52666901Y-58898321D01*
X52640000Y-59033559D01*
X52640000Y-59171447D01*
X52666901Y-59306685D01*
X52719668Y-59434077D01*
X52796274Y-59548727D01*
X52893776Y-59646229D01*
X53008426Y-59722835D01*
X53135818Y-59775602D01*
X53271056Y-59802503D01*
X53408944Y-59802503D01*
X53544182Y-59775602D01*
X53671574Y-59722835D01*
X53786224Y-59646229D01*
X53883726Y-59548727D01*
X53960332Y-59434077D01*
X54013099Y-59306685D01*
X54040000Y-59171447D01*
X54040000Y-59076542D01*
X54768762Y-58347781D01*
X54784974Y-58334476D01*
X54838084Y-58269762D01*
X54877548Y-58195929D01*
X54901850Y-58115816D01*
X54908000Y-58053376D01*
X54908000Y-58053369D01*
X54910055Y-58032502D01*
X54908000Y-58011635D01*
X54908000Y-50531540D01*
X55086263Y-50353278D01*
X55102474Y-50339974D01*
X55155584Y-50275260D01*
X55187104Y-50216290D01*
X55195048Y-50201428D01*
X55219350Y-50121315D01*
X55221838Y-50096056D01*
X55225500Y-50058874D01*
X55225500Y-50058867D01*
X55227555Y-50038000D01*
X55225500Y-50017133D01*
X55225500Y-48316824D01*
X55242715Y-48311602D01*
X55442497Y-48204816D01*
X55617607Y-48061107D01*
X55761316Y-47885997D01*
X55868102Y-47686215D01*
X55933860Y-47469439D01*
X55956064Y-47244000D01*
X55933860Y-47018561D01*
X55868102Y-46801785D01*
X55761316Y-46602003D01*
X55617607Y-46426893D01*
X55442497Y-46283184D01*
X55242715Y-46176398D01*
X55025939Y-46110640D01*
X54856992Y-46094000D01*
X54744008Y-46094000D01*
X54575061Y-46110640D01*
X54358285Y-46176398D01*
X54158503Y-46283184D01*
X53983393Y-46426893D01*
X53839684Y-46602003D01*
X53732898Y-46801785D01*
X53667140Y-47018561D01*
X53644936Y-47244000D01*
X53667140Y-47469439D01*
X53732898Y-47686215D01*
X53839684Y-47885997D01*
X53983393Y-48061107D01*
X54158503Y-48204816D01*
X54358285Y-48311602D01*
X54375501Y-48316824D01*
X54375500Y-49861959D01*
X54197243Y-50040217D01*
X54181026Y-50053526D01*
X54127916Y-50118241D01*
X54088452Y-50192074D01*
X54075751Y-50233944D01*
X54064164Y-50272142D01*
X54064150Y-50272187D01*
X54058000Y-50334627D01*
X54058000Y-50334633D01*
X54055945Y-50355500D01*
X54058000Y-50376367D01*
X54058001Y-57856460D01*
X54013604Y-57900857D01*
X54013099Y-57898318D01*
X53960332Y-57770926D01*
X53883726Y-57656276D01*
X53786224Y-57558774D01*
X53671574Y-57482168D01*
X53544182Y-57429401D01*
X53408944Y-57402500D01*
X53388810Y-57402500D01*
X53388810Y-57274639D01*
X53361909Y-57139401D01*
X53309142Y-57012009D01*
X53232536Y-56897359D01*
X53135034Y-56799857D01*
X53020384Y-56723251D01*
X52892992Y-56670484D01*
X52757754Y-56643583D01*
X52619866Y-56643583D01*
X52484628Y-56670484D01*
X52357236Y-56723251D01*
X52242586Y-56799857D01*
X52145084Y-56897359D01*
X52130903Y-56918583D01*
X45801283Y-56918583D01*
X45780416Y-56916528D01*
X45759549Y-56918583D01*
X45759543Y-56918583D01*
X45705515Y-56923904D01*
X45697102Y-56924733D01*
X45678456Y-56930389D01*
X45663022Y-56935071D01*
X42685044Y-53957094D01*
X42784926Y-54023832D01*
X42912318Y-54076599D01*
X43047556Y-54103500D01*
X43139478Y-54103500D01*
X43141901Y-54115682D01*
X43194668Y-54243074D01*
X43271274Y-54357724D01*
X43368776Y-54455226D01*
X43483426Y-54531832D01*
X43610818Y-54584599D01*
X43746056Y-54611500D01*
X43883944Y-54611500D01*
X44019182Y-54584599D01*
X44146574Y-54531832D01*
X44261224Y-54455226D01*
X44358726Y-54357724D01*
X44435332Y-54243074D01*
X44488099Y-54115682D01*
X44515000Y-53980444D01*
X44515000Y-53842556D01*
X44488099Y-53707318D01*
X44435332Y-53579926D01*
X44358726Y-53465276D01*
X44261224Y-53367774D01*
X44146574Y-53291168D01*
X44142750Y-53289584D01*
X44142750Y-52954267D01*
X44145411Y-52927250D01*
X44142750Y-52900232D01*
X44142750Y-50137065D01*
X44495815Y-49784000D01*
X47612436Y-49784000D01*
X47634640Y-50009439D01*
X47700398Y-50226215D01*
X47807184Y-50425997D01*
X47950893Y-50601107D01*
X48126003Y-50744816D01*
X48325785Y-50851602D01*
X48542561Y-50917360D01*
X48711508Y-50934000D01*
X48824492Y-50934000D01*
X48993439Y-50917360D01*
X49210215Y-50851602D01*
X49409997Y-50744816D01*
X49585107Y-50601107D01*
X49728816Y-50425997D01*
X49835602Y-50226215D01*
X49901360Y-50009439D01*
X49923564Y-49784000D01*
X49901360Y-49558561D01*
X49835602Y-49341785D01*
X49728816Y-49142003D01*
X49585107Y-48966893D01*
X49409997Y-48823184D01*
X49210215Y-48716398D01*
X48993439Y-48650640D01*
X48824492Y-48634000D01*
X48711508Y-48634000D01*
X48542561Y-48650640D01*
X48325785Y-48716398D01*
X48126003Y-48823184D01*
X47950893Y-48966893D01*
X47807184Y-49142003D01*
X47700398Y-49341785D01*
X47634640Y-49558561D01*
X47612436Y-49784000D01*
X44495815Y-49784000D01*
X47616549Y-46663267D01*
X47616549Y-48094000D01*
X47622341Y-48152810D01*
X47639496Y-48209360D01*
X47667353Y-48261477D01*
X47704842Y-48307158D01*
X47750523Y-48344647D01*
X47802640Y-48372504D01*
X47859190Y-48389659D01*
X47918000Y-48395451D01*
X49618000Y-48395451D01*
X49676810Y-48389659D01*
X49733360Y-48372504D01*
X49785477Y-48344647D01*
X49831158Y-48307158D01*
X49868647Y-48261477D01*
X49896504Y-48209360D01*
X49913659Y-48152810D01*
X49919451Y-48094000D01*
X49919451Y-46493999D01*
X50732682Y-46493999D01*
X51109049Y-46870366D01*
X51109049Y-48094000D01*
X51114841Y-48152810D01*
X51131996Y-48209360D01*
X51159853Y-48261477D01*
X51197342Y-48307158D01*
X51243023Y-48344647D01*
X51295140Y-48372504D01*
X51351690Y-48389659D01*
X51410500Y-48395451D01*
X53110500Y-48395451D01*
X53169310Y-48389659D01*
X53225860Y-48372504D01*
X53277977Y-48344647D01*
X53323658Y-48307158D01*
X53361147Y-48261477D01*
X53389004Y-48209360D01*
X53406159Y-48152810D01*
X53411951Y-48094000D01*
X53411951Y-46394000D01*
X53406159Y-46335190D01*
X53389004Y-46278640D01*
X53361147Y-46226523D01*
X53323658Y-46180842D01*
X53277977Y-46143353D01*
X53225860Y-46115496D01*
X53169310Y-46098341D01*
X53110500Y-46092549D01*
X51886866Y-46092549D01*
X51368512Y-45574195D01*
X51351289Y-45553209D01*
X51267541Y-45484478D01*
X51171993Y-45433407D01*
X51068318Y-45401957D01*
X50987517Y-45393999D01*
X50987507Y-45393999D01*
X50960499Y-45391339D01*
X50933491Y-45393999D01*
X47585007Y-45393999D01*
X47557999Y-45391339D01*
X47530991Y-45393999D01*
X47530981Y-45393999D01*
X47450180Y-45401957D01*
X47346505Y-45433407D01*
X47250957Y-45484478D01*
X47188194Y-45535986D01*
X47188189Y-45535991D01*
X47167209Y-45553209D01*
X47149991Y-45574189D01*
X43222941Y-49501240D01*
X43201961Y-49518458D01*
X43184743Y-49539438D01*
X43184737Y-49539444D01*
X43133229Y-49602206D01*
X43089440Y-49684132D01*
X43082159Y-49697754D01*
X43050709Y-49801429D01*
X43045953Y-49849720D01*
X43040090Y-49909248D01*
X43042751Y-49936266D01*
X43042750Y-52377250D01*
X42826200Y-52377250D01*
X42800724Y-52351774D01*
X42686074Y-52275168D01*
X42558682Y-52222401D01*
X42423444Y-52195500D01*
X42285556Y-52195500D01*
X42150318Y-52222401D01*
X42022926Y-52275168D01*
X41908276Y-52351774D01*
X41810774Y-52449276D01*
X41734168Y-52563926D01*
X41681401Y-52691318D01*
X41654500Y-52826556D01*
X41654500Y-52926550D01*
X39251107Y-50523157D01*
X39251107Y-49942257D01*
X39253162Y-49921390D01*
X39251107Y-49900523D01*
X39251107Y-49900517D01*
X39244957Y-49838077D01*
X39220655Y-49757964D01*
X39181191Y-49684131D01*
X39128081Y-49619417D01*
X39121412Y-49613944D01*
X39126108Y-49590336D01*
X39126108Y-49452448D01*
X39099207Y-49317210D01*
X39046440Y-49189818D01*
X38969834Y-49075168D01*
X38872332Y-48977666D01*
X38757682Y-48901060D01*
X38630290Y-48848293D01*
X38495052Y-48821392D01*
X38357164Y-48821392D01*
X38221926Y-48848293D01*
X38094534Y-48901060D01*
X37979884Y-48977666D01*
X37882382Y-49075168D01*
X37805776Y-49189818D01*
X37753009Y-49317210D01*
X37726108Y-49452448D01*
X37726108Y-49528500D01*
X37650056Y-49528500D01*
X37514818Y-49555401D01*
X37387426Y-49608168D01*
X37272776Y-49684774D01*
X37175274Y-49782276D01*
X37098668Y-49896926D01*
X37045901Y-50024318D01*
X37019000Y-50159556D01*
X29412300Y-50159556D01*
X29390482Y-46627356D01*
X29525528Y-46738186D01*
X29687960Y-46825007D01*
X29864208Y-46878471D01*
X30001568Y-46892000D01*
X31363432Y-46892000D01*
X31500792Y-46878471D01*
X31677040Y-46825007D01*
X31839472Y-46738186D01*
X31981844Y-46621344D01*
X32098686Y-46478972D01*
X32185507Y-46316540D01*
X32238971Y-46140292D01*
X32257024Y-45957000D01*
X33857976Y-45957000D01*
X33876029Y-46140292D01*
X33929493Y-46316540D01*
X34016314Y-46478972D01*
X34133156Y-46621344D01*
X34275528Y-46738186D01*
X34437960Y-46825007D01*
X34614208Y-46878471D01*
X34751568Y-46892000D01*
X36113432Y-46892000D01*
X36250792Y-46878471D01*
X36427040Y-46825007D01*
X36589472Y-46738186D01*
X36731844Y-46621344D01*
X36848686Y-46478972D01*
X36935507Y-46316540D01*
X36988971Y-46140292D01*
X37007024Y-45957000D01*
X36988971Y-45773708D01*
X36935507Y-45597460D01*
X36848686Y-45435028D01*
X36731844Y-45292656D01*
X36589472Y-45175814D01*
X36427040Y-45088993D01*
X36250792Y-45035529D01*
X36113432Y-45022000D01*
X34751568Y-45022000D01*
X34614208Y-45035529D01*
X34437960Y-45088993D01*
X34275528Y-45175814D01*
X34133156Y-45292656D01*
X34016314Y-45435028D01*
X33929493Y-45597460D01*
X33876029Y-45773708D01*
X33857976Y-45957000D01*
X32257024Y-45957000D01*
X32238971Y-45773708D01*
X32185507Y-45597460D01*
X32098686Y-45435028D01*
X31981844Y-45292656D01*
X31839472Y-45175814D01*
X31677040Y-45088993D01*
X31500792Y-45035529D01*
X31363432Y-45022000D01*
X30001568Y-45022000D01*
X29864208Y-45035529D01*
X29687960Y-45088993D01*
X29525528Y-45175814D01*
X29383156Y-45292656D01*
X29382244Y-45293767D01*
X29374120Y-43978500D01*
X78323263Y-43978500D01*
X78514750Y-68991694D01*
M02*
