G04 #@! TF.GenerationSoftware,KiCad,Pcbnew,(5.1.2-1)-1*
G04 #@! TF.CreationDate,2019-05-13T23:44:12-03:00*
G04 #@! TF.ProjectId,Capivara,43617069-7661-4726-912e-6b696361645f,rev?*
G04 #@! TF.SameCoordinates,Original*
G04 #@! TF.FileFunction,Soldermask,Top*
G04 #@! TF.FilePolarity,Negative*
%FSLAX46Y46*%
G04 Gerber Fmt 4.6, Leading zero omitted, Abs format (unit mm)*
G04 Created by KiCad (PCBNEW (5.1.2-1)-1) date 2019-05-13 23:44:12*
%MOMM*%
%LPD*%
G04 APERTURE LIST*
%ADD10C,0.100000*%
G04 APERTURE END LIST*
D10*
G36*
X52694064Y-88206889D02*
G01*
X52885333Y-88286115D01*
X52885335Y-88286116D01*
X52956310Y-88333540D01*
X53057473Y-88401135D01*
X53203865Y-88547527D01*
X53318885Y-88719667D01*
X53398111Y-88910936D01*
X53438500Y-89113984D01*
X53438500Y-89321016D01*
X53398111Y-89524064D01*
X53318885Y-89715333D01*
X53318884Y-89715335D01*
X53203865Y-89887473D01*
X53057473Y-90033865D01*
X52885335Y-90148884D01*
X52885334Y-90148885D01*
X52885333Y-90148885D01*
X52694064Y-90228111D01*
X52491016Y-90268500D01*
X52283984Y-90268500D01*
X52080936Y-90228111D01*
X51889667Y-90148885D01*
X51889666Y-90148885D01*
X51889665Y-90148884D01*
X51717527Y-90033865D01*
X51571135Y-89887473D01*
X51456116Y-89715335D01*
X51456115Y-89715333D01*
X51376889Y-89524064D01*
X51336500Y-89321016D01*
X51336500Y-89113984D01*
X51376889Y-88910936D01*
X51456115Y-88719667D01*
X51571135Y-88547527D01*
X51717527Y-88401135D01*
X51818690Y-88333540D01*
X51889665Y-88286116D01*
X51889667Y-88286115D01*
X52080936Y-88206889D01*
X52283984Y-88166500D01*
X52491016Y-88166500D01*
X52694064Y-88206889D01*
X52694064Y-88206889D01*
G37*
G36*
X77478000Y-75890500D02*
G01*
X76512993Y-75890500D01*
X76488607Y-75892902D01*
X76465158Y-75900015D01*
X76443547Y-75911566D01*
X76424605Y-75927111D01*
X76409060Y-75946053D01*
X76397509Y-75967664D01*
X76390396Y-75991113D01*
X76387994Y-76015499D01*
X76390396Y-76039885D01*
X76397509Y-76063334D01*
X76409060Y-76084945D01*
X76424605Y-76103887D01*
X76443547Y-76119432D01*
X76465158Y-76130983D01*
X76488608Y-76138096D01*
X76662734Y-76172732D01*
X76758742Y-76212500D01*
X76851690Y-76251000D01*
X76872203Y-76259497D01*
X77060720Y-76385460D01*
X77221040Y-76545780D01*
X77347003Y-76734297D01*
X77433768Y-76943766D01*
X77478000Y-77166136D01*
X77478000Y-77392864D01*
X77433768Y-77615234D01*
X77347003Y-77824703D01*
X77221040Y-78013220D01*
X77060720Y-78173540D01*
X76872203Y-78299503D01*
X76662734Y-78386268D01*
X76535161Y-78411644D01*
X76458448Y-78426903D01*
X76434999Y-78434016D01*
X76413388Y-78445567D01*
X76394446Y-78461112D01*
X76378901Y-78480054D01*
X76367350Y-78501665D01*
X76360237Y-78525114D01*
X76357835Y-78549500D01*
X76360237Y-78573886D01*
X76367350Y-78597335D01*
X76378901Y-78618946D01*
X76394446Y-78637888D01*
X76413388Y-78653433D01*
X76434999Y-78664984D01*
X76458448Y-78672097D01*
X76515774Y-78683500D01*
X76662734Y-78712732D01*
X76872203Y-78799497D01*
X77060720Y-78925460D01*
X77221040Y-79085780D01*
X77347003Y-79274297D01*
X77433768Y-79483766D01*
X77478000Y-79706136D01*
X77478000Y-79932864D01*
X77433768Y-80155234D01*
X77347003Y-80364703D01*
X77221040Y-80553220D01*
X77060720Y-80713540D01*
X76872203Y-80839503D01*
X76662734Y-80926268D01*
X76535161Y-80951644D01*
X76458448Y-80966903D01*
X76434999Y-80974016D01*
X76413388Y-80985567D01*
X76394446Y-81001112D01*
X76378901Y-81020054D01*
X76367350Y-81041665D01*
X76360237Y-81065114D01*
X76357835Y-81089500D01*
X76360237Y-81113886D01*
X76367350Y-81137335D01*
X76378901Y-81158946D01*
X76394446Y-81177888D01*
X76413388Y-81193433D01*
X76434999Y-81204984D01*
X76458448Y-81212097D01*
X76535161Y-81227356D01*
X76662734Y-81252732D01*
X76872203Y-81339497D01*
X77060720Y-81465460D01*
X77221040Y-81625780D01*
X77347003Y-81814297D01*
X77433768Y-82023766D01*
X77478000Y-82246136D01*
X77478000Y-82472864D01*
X77433768Y-82695234D01*
X77347003Y-82904703D01*
X77221040Y-83093220D01*
X77060720Y-83253540D01*
X76872203Y-83379503D01*
X76872202Y-83379504D01*
X76872201Y-83379504D01*
X76810850Y-83404916D01*
X76662734Y-83466268D01*
X76535161Y-83491644D01*
X76458448Y-83506903D01*
X76434999Y-83514016D01*
X76413388Y-83525567D01*
X76394446Y-83541112D01*
X76378901Y-83560054D01*
X76367350Y-83581665D01*
X76360237Y-83605114D01*
X76357835Y-83629500D01*
X76360237Y-83653886D01*
X76367350Y-83677335D01*
X76378901Y-83698946D01*
X76394446Y-83717888D01*
X76413388Y-83733433D01*
X76434999Y-83744984D01*
X76458448Y-83752097D01*
X76535161Y-83767356D01*
X76662734Y-83792732D01*
X76872203Y-83879497D01*
X77060720Y-84005460D01*
X77221040Y-84165780D01*
X77347003Y-84354297D01*
X77433768Y-84563766D01*
X77478000Y-84786136D01*
X77478000Y-85012864D01*
X77433768Y-85235234D01*
X77347003Y-85444703D01*
X77221040Y-85633220D01*
X77060720Y-85793540D01*
X76872203Y-85919503D01*
X76662734Y-86006268D01*
X76535161Y-86031644D01*
X76458448Y-86046903D01*
X76434999Y-86054016D01*
X76413388Y-86065567D01*
X76394446Y-86081112D01*
X76378901Y-86100054D01*
X76367350Y-86121665D01*
X76360237Y-86145114D01*
X76357835Y-86169500D01*
X76360237Y-86193886D01*
X76367350Y-86217335D01*
X76378901Y-86238946D01*
X76394446Y-86257888D01*
X76413388Y-86273433D01*
X76434999Y-86284984D01*
X76458448Y-86292097D01*
X76535161Y-86307356D01*
X76662734Y-86332732D01*
X76810850Y-86394084D01*
X76851690Y-86411000D01*
X76872203Y-86419497D01*
X77060720Y-86545460D01*
X77221040Y-86705780D01*
X77347003Y-86894297D01*
X77433768Y-87103766D01*
X77478000Y-87326136D01*
X77478000Y-87552864D01*
X77433768Y-87775234D01*
X77347003Y-87984703D01*
X77221040Y-88173220D01*
X77060720Y-88333540D01*
X76872203Y-88459503D01*
X76662734Y-88546268D01*
X76551549Y-88568384D01*
X76440365Y-88590500D01*
X76213635Y-88590500D01*
X76102451Y-88568384D01*
X75991266Y-88546268D01*
X75781797Y-88459503D01*
X75593280Y-88333540D01*
X75432960Y-88173220D01*
X75306997Y-87984703D01*
X75220232Y-87775234D01*
X75176000Y-87552864D01*
X75176000Y-87326136D01*
X75220232Y-87103766D01*
X75306997Y-86894297D01*
X75432960Y-86705780D01*
X75593280Y-86545460D01*
X75781797Y-86419497D01*
X75802311Y-86411000D01*
X75843150Y-86394084D01*
X75991266Y-86332732D01*
X76118839Y-86307356D01*
X76195552Y-86292097D01*
X76219001Y-86284984D01*
X76240612Y-86273433D01*
X76259554Y-86257888D01*
X76275099Y-86238946D01*
X76286650Y-86217335D01*
X76293763Y-86193886D01*
X76296165Y-86169500D01*
X76293763Y-86145114D01*
X76286650Y-86121665D01*
X76275099Y-86100054D01*
X76259554Y-86081112D01*
X76240612Y-86065567D01*
X76219001Y-86054016D01*
X76195552Y-86046903D01*
X76118839Y-86031644D01*
X75991266Y-86006268D01*
X75781797Y-85919503D01*
X75593280Y-85793540D01*
X75432960Y-85633220D01*
X75306997Y-85444703D01*
X75220232Y-85235234D01*
X75176000Y-85012864D01*
X75176000Y-84786136D01*
X75220232Y-84563766D01*
X75306997Y-84354297D01*
X75432960Y-84165780D01*
X75593280Y-84005460D01*
X75781797Y-83879497D01*
X75991266Y-83792732D01*
X76118839Y-83767356D01*
X76195552Y-83752097D01*
X76219001Y-83744984D01*
X76240612Y-83733433D01*
X76259554Y-83717888D01*
X76275099Y-83698946D01*
X76286650Y-83677335D01*
X76293763Y-83653886D01*
X76296165Y-83629500D01*
X76293763Y-83605114D01*
X76286650Y-83581665D01*
X76275099Y-83560054D01*
X76259554Y-83541112D01*
X76240612Y-83525567D01*
X76219001Y-83514016D01*
X76195552Y-83506903D01*
X76118839Y-83491644D01*
X75991266Y-83466268D01*
X75843150Y-83404916D01*
X75781799Y-83379504D01*
X75781798Y-83379504D01*
X75781797Y-83379503D01*
X75593280Y-83253540D01*
X75432960Y-83093220D01*
X75306997Y-82904703D01*
X75220232Y-82695234D01*
X75176000Y-82472864D01*
X75176000Y-82246136D01*
X75220232Y-82023766D01*
X75306997Y-81814297D01*
X75432960Y-81625780D01*
X75593280Y-81465460D01*
X75781797Y-81339497D01*
X75991266Y-81252732D01*
X76118839Y-81227356D01*
X76195552Y-81212097D01*
X76219001Y-81204984D01*
X76240612Y-81193433D01*
X76259554Y-81177888D01*
X76275099Y-81158946D01*
X76286650Y-81137335D01*
X76293763Y-81113886D01*
X76296165Y-81089500D01*
X76293763Y-81065114D01*
X76286650Y-81041665D01*
X76275099Y-81020054D01*
X76259554Y-81001112D01*
X76240612Y-80985567D01*
X76219001Y-80974016D01*
X76195552Y-80966903D01*
X76118839Y-80951644D01*
X75991266Y-80926268D01*
X75781797Y-80839503D01*
X75593280Y-80713540D01*
X75432960Y-80553220D01*
X75306997Y-80364703D01*
X75220232Y-80155234D01*
X75176000Y-79932864D01*
X75176000Y-79706136D01*
X75220232Y-79483766D01*
X75306997Y-79274297D01*
X75432960Y-79085780D01*
X75593280Y-78925460D01*
X75781797Y-78799497D01*
X75991266Y-78712732D01*
X76138226Y-78683500D01*
X76195552Y-78672097D01*
X76219001Y-78664984D01*
X76240612Y-78653433D01*
X76259554Y-78637888D01*
X76275099Y-78618946D01*
X76286650Y-78597335D01*
X76293763Y-78573886D01*
X76296165Y-78549500D01*
X76293763Y-78525114D01*
X76286650Y-78501665D01*
X76275099Y-78480054D01*
X76259554Y-78461112D01*
X76240612Y-78445567D01*
X76219001Y-78434016D01*
X76195552Y-78426903D01*
X76118839Y-78411644D01*
X75991266Y-78386268D01*
X75781797Y-78299503D01*
X75593280Y-78173540D01*
X75432960Y-78013220D01*
X75306997Y-77824703D01*
X75220232Y-77615234D01*
X75176000Y-77392864D01*
X75176000Y-77166136D01*
X75220232Y-76943766D01*
X75306997Y-76734297D01*
X75432960Y-76545780D01*
X75593280Y-76385460D01*
X75781797Y-76259497D01*
X75802311Y-76251000D01*
X75895258Y-76212500D01*
X75991266Y-76172732D01*
X76165392Y-76138096D01*
X76188842Y-76130983D01*
X76210453Y-76119432D01*
X76229395Y-76103887D01*
X76244940Y-76084945D01*
X76256491Y-76063334D01*
X76263604Y-76039885D01*
X76266006Y-76015499D01*
X76263604Y-75991113D01*
X76256491Y-75967664D01*
X76244940Y-75946053D01*
X76229395Y-75927111D01*
X76210453Y-75911566D01*
X76188842Y-75900015D01*
X76165393Y-75892902D01*
X76141007Y-75890500D01*
X75176000Y-75890500D01*
X75176000Y-73588500D01*
X77478000Y-73588500D01*
X77478000Y-75890500D01*
X77478000Y-75890500D01*
G37*
G36*
X32774000Y-75890500D02*
G01*
X31808993Y-75890500D01*
X31784607Y-75892902D01*
X31761158Y-75900015D01*
X31739547Y-75911566D01*
X31720605Y-75927111D01*
X31705060Y-75946053D01*
X31693509Y-75967664D01*
X31686396Y-75991113D01*
X31683994Y-76015499D01*
X31686396Y-76039885D01*
X31693509Y-76063334D01*
X31705060Y-76084945D01*
X31720605Y-76103887D01*
X31739547Y-76119432D01*
X31761158Y-76130983D01*
X31784608Y-76138096D01*
X31958734Y-76172732D01*
X32054742Y-76212500D01*
X32147690Y-76251000D01*
X32168203Y-76259497D01*
X32356720Y-76385460D01*
X32517040Y-76545780D01*
X32643003Y-76734297D01*
X32729768Y-76943766D01*
X32774000Y-77166136D01*
X32774000Y-77392864D01*
X32729768Y-77615234D01*
X32643003Y-77824703D01*
X32517040Y-78013220D01*
X32356720Y-78173540D01*
X32168203Y-78299503D01*
X31958734Y-78386268D01*
X31831161Y-78411644D01*
X31754448Y-78426903D01*
X31730999Y-78434016D01*
X31709388Y-78445567D01*
X31690446Y-78461112D01*
X31674901Y-78480054D01*
X31663350Y-78501665D01*
X31656237Y-78525114D01*
X31653835Y-78549500D01*
X31656237Y-78573886D01*
X31663350Y-78597335D01*
X31674901Y-78618946D01*
X31690446Y-78637888D01*
X31709388Y-78653433D01*
X31730999Y-78664984D01*
X31754448Y-78672097D01*
X31811774Y-78683500D01*
X31958734Y-78712732D01*
X32168203Y-78799497D01*
X32356720Y-78925460D01*
X32517040Y-79085780D01*
X32643003Y-79274297D01*
X32729768Y-79483766D01*
X32774000Y-79706136D01*
X32774000Y-79932864D01*
X32729768Y-80155234D01*
X32643003Y-80364703D01*
X32517040Y-80553220D01*
X32356720Y-80713540D01*
X32168203Y-80839503D01*
X31958734Y-80926268D01*
X31831161Y-80951644D01*
X31754448Y-80966903D01*
X31730999Y-80974016D01*
X31709388Y-80985567D01*
X31690446Y-81001112D01*
X31674901Y-81020054D01*
X31663350Y-81041665D01*
X31656237Y-81065114D01*
X31653835Y-81089500D01*
X31656237Y-81113886D01*
X31663350Y-81137335D01*
X31674901Y-81158946D01*
X31690446Y-81177888D01*
X31709388Y-81193433D01*
X31730999Y-81204984D01*
X31754448Y-81212097D01*
X31831161Y-81227356D01*
X31958734Y-81252732D01*
X32168203Y-81339497D01*
X32356720Y-81465460D01*
X32517040Y-81625780D01*
X32643003Y-81814297D01*
X32729768Y-82023766D01*
X32774000Y-82246136D01*
X32774000Y-82472864D01*
X32729768Y-82695234D01*
X32643003Y-82904703D01*
X32517040Y-83093220D01*
X32356720Y-83253540D01*
X32168203Y-83379503D01*
X32168202Y-83379504D01*
X32168201Y-83379504D01*
X32106850Y-83404916D01*
X31958734Y-83466268D01*
X31831161Y-83491644D01*
X31754448Y-83506903D01*
X31730999Y-83514016D01*
X31709388Y-83525567D01*
X31690446Y-83541112D01*
X31674901Y-83560054D01*
X31663350Y-83581665D01*
X31656237Y-83605114D01*
X31653835Y-83629500D01*
X31656237Y-83653886D01*
X31663350Y-83677335D01*
X31674901Y-83698946D01*
X31690446Y-83717888D01*
X31709388Y-83733433D01*
X31730999Y-83744984D01*
X31754448Y-83752097D01*
X31831161Y-83767356D01*
X31958734Y-83792732D01*
X32168203Y-83879497D01*
X32356720Y-84005460D01*
X32517040Y-84165780D01*
X32643003Y-84354297D01*
X32729768Y-84563766D01*
X32774000Y-84786136D01*
X32774000Y-85012864D01*
X32729768Y-85235234D01*
X32643003Y-85444703D01*
X32517040Y-85633220D01*
X32356720Y-85793540D01*
X32168203Y-85919503D01*
X31958734Y-86006268D01*
X31831161Y-86031644D01*
X31754448Y-86046903D01*
X31730999Y-86054016D01*
X31709388Y-86065567D01*
X31690446Y-86081112D01*
X31674901Y-86100054D01*
X31663350Y-86121665D01*
X31656237Y-86145114D01*
X31653835Y-86169500D01*
X31656237Y-86193886D01*
X31663350Y-86217335D01*
X31674901Y-86238946D01*
X31690446Y-86257888D01*
X31709388Y-86273433D01*
X31730999Y-86284984D01*
X31754448Y-86292097D01*
X31831161Y-86307356D01*
X31958734Y-86332732D01*
X32106850Y-86394084D01*
X32147690Y-86411000D01*
X32168203Y-86419497D01*
X32356720Y-86545460D01*
X32517040Y-86705780D01*
X32643003Y-86894297D01*
X32729768Y-87103766D01*
X32774000Y-87326136D01*
X32774000Y-87552864D01*
X32729768Y-87775234D01*
X32643003Y-87984703D01*
X32517040Y-88173220D01*
X32356720Y-88333540D01*
X32168203Y-88459503D01*
X31958734Y-88546268D01*
X31847549Y-88568384D01*
X31736365Y-88590500D01*
X31509635Y-88590500D01*
X31398451Y-88568384D01*
X31287266Y-88546268D01*
X31077797Y-88459503D01*
X30889280Y-88333540D01*
X30728960Y-88173220D01*
X30602997Y-87984703D01*
X30516232Y-87775234D01*
X30472000Y-87552864D01*
X30472000Y-87326136D01*
X30516232Y-87103766D01*
X30602997Y-86894297D01*
X30728960Y-86705780D01*
X30889280Y-86545460D01*
X31077797Y-86419497D01*
X31098311Y-86411000D01*
X31139150Y-86394084D01*
X31287266Y-86332732D01*
X31414839Y-86307356D01*
X31491552Y-86292097D01*
X31515001Y-86284984D01*
X31536612Y-86273433D01*
X31555554Y-86257888D01*
X31571099Y-86238946D01*
X31582650Y-86217335D01*
X31589763Y-86193886D01*
X31592165Y-86169500D01*
X31589763Y-86145114D01*
X31582650Y-86121665D01*
X31571099Y-86100054D01*
X31555554Y-86081112D01*
X31536612Y-86065567D01*
X31515001Y-86054016D01*
X31491552Y-86046903D01*
X31414839Y-86031644D01*
X31287266Y-86006268D01*
X31077797Y-85919503D01*
X30889280Y-85793540D01*
X30728960Y-85633220D01*
X30602997Y-85444703D01*
X30516232Y-85235234D01*
X30472000Y-85012864D01*
X30472000Y-84786136D01*
X30516232Y-84563766D01*
X30602997Y-84354297D01*
X30728960Y-84165780D01*
X30889280Y-84005460D01*
X31077797Y-83879497D01*
X31287266Y-83792732D01*
X31414839Y-83767356D01*
X31491552Y-83752097D01*
X31515001Y-83744984D01*
X31536612Y-83733433D01*
X31555554Y-83717888D01*
X31571099Y-83698946D01*
X31582650Y-83677335D01*
X31589763Y-83653886D01*
X31592165Y-83629500D01*
X31589763Y-83605114D01*
X31582650Y-83581665D01*
X31571099Y-83560054D01*
X31555554Y-83541112D01*
X31536612Y-83525567D01*
X31515001Y-83514016D01*
X31491552Y-83506903D01*
X31414839Y-83491644D01*
X31287266Y-83466268D01*
X31139150Y-83404916D01*
X31077799Y-83379504D01*
X31077798Y-83379504D01*
X31077797Y-83379503D01*
X30889280Y-83253540D01*
X30728960Y-83093220D01*
X30602997Y-82904703D01*
X30516232Y-82695234D01*
X30472000Y-82472864D01*
X30472000Y-82246136D01*
X30516232Y-82023766D01*
X30602997Y-81814297D01*
X30728960Y-81625780D01*
X30889280Y-81465460D01*
X31077797Y-81339497D01*
X31287266Y-81252732D01*
X31414839Y-81227356D01*
X31491552Y-81212097D01*
X31515001Y-81204984D01*
X31536612Y-81193433D01*
X31555554Y-81177888D01*
X31571099Y-81158946D01*
X31582650Y-81137335D01*
X31589763Y-81113886D01*
X31592165Y-81089500D01*
X31589763Y-81065114D01*
X31582650Y-81041665D01*
X31571099Y-81020054D01*
X31555554Y-81001112D01*
X31536612Y-80985567D01*
X31515001Y-80974016D01*
X31491552Y-80966903D01*
X31414839Y-80951644D01*
X31287266Y-80926268D01*
X31077797Y-80839503D01*
X30889280Y-80713540D01*
X30728960Y-80553220D01*
X30602997Y-80364703D01*
X30516232Y-80155234D01*
X30472000Y-79932864D01*
X30472000Y-79706136D01*
X30516232Y-79483766D01*
X30602997Y-79274297D01*
X30728960Y-79085780D01*
X30889280Y-78925460D01*
X31077797Y-78799497D01*
X31287266Y-78712732D01*
X31434226Y-78683500D01*
X31491552Y-78672097D01*
X31515001Y-78664984D01*
X31536612Y-78653433D01*
X31555554Y-78637888D01*
X31571099Y-78618946D01*
X31582650Y-78597335D01*
X31589763Y-78573886D01*
X31592165Y-78549500D01*
X31589763Y-78525114D01*
X31582650Y-78501665D01*
X31571099Y-78480054D01*
X31555554Y-78461112D01*
X31536612Y-78445567D01*
X31515001Y-78434016D01*
X31491552Y-78426903D01*
X31414839Y-78411644D01*
X31287266Y-78386268D01*
X31077797Y-78299503D01*
X30889280Y-78173540D01*
X30728960Y-78013220D01*
X30602997Y-77824703D01*
X30516232Y-77615234D01*
X30472000Y-77392864D01*
X30472000Y-77166136D01*
X30516232Y-76943766D01*
X30602997Y-76734297D01*
X30728960Y-76545780D01*
X30889280Y-76385460D01*
X31077797Y-76259497D01*
X31098311Y-76251000D01*
X31191258Y-76212500D01*
X31287266Y-76172732D01*
X31461392Y-76138096D01*
X31484842Y-76130983D01*
X31506453Y-76119432D01*
X31525395Y-76103887D01*
X31540940Y-76084945D01*
X31552491Y-76063334D01*
X31559604Y-76039885D01*
X31562006Y-76015499D01*
X31559604Y-75991113D01*
X31552491Y-75967664D01*
X31540940Y-75946053D01*
X31525395Y-75927111D01*
X31506453Y-75911566D01*
X31484842Y-75900015D01*
X31461393Y-75892902D01*
X31437007Y-75890500D01*
X30472000Y-75890500D01*
X30472000Y-73588500D01*
X32774000Y-73588500D01*
X32774000Y-75890500D01*
X32774000Y-75890500D01*
G37*
G36*
X70028000Y-87998500D02*
G01*
X69037000Y-87998500D01*
X69037000Y-87007500D01*
X70028000Y-87007500D01*
X70028000Y-87998500D01*
X70028000Y-87998500D01*
G37*
G36*
X68504000Y-87998500D02*
G01*
X67513000Y-87998500D01*
X67513000Y-87007500D01*
X68504000Y-87007500D01*
X68504000Y-87998500D01*
X68504000Y-87998500D01*
G37*
G36*
X66853000Y-87935000D02*
G01*
X65862000Y-87935000D01*
X65862000Y-86944000D01*
X66853000Y-86944000D01*
X66853000Y-87935000D01*
X66853000Y-87935000D01*
G37*
G36*
X50660500Y-87427000D02*
G01*
X49669500Y-87427000D01*
X49669500Y-86436000D01*
X50660500Y-86436000D01*
X50660500Y-87427000D01*
X50660500Y-87427000D01*
G37*
G36*
X57391500Y-87109500D02*
G01*
X56400500Y-87109500D01*
X56400500Y-86118500D01*
X57391500Y-86118500D01*
X57391500Y-87109500D01*
X57391500Y-87109500D01*
G37*
G36*
X55169000Y-87109500D02*
G01*
X54178000Y-87109500D01*
X54178000Y-86118500D01*
X55169000Y-86118500D01*
X55169000Y-87109500D01*
X55169000Y-87109500D01*
G37*
G36*
X48367928Y-86138764D02*
G01*
X48389009Y-86145160D01*
X48408445Y-86155548D01*
X48425476Y-86169524D01*
X48439452Y-86186555D01*
X48449840Y-86205991D01*
X48456236Y-86227072D01*
X48459000Y-86255140D01*
X48459000Y-86718860D01*
X48456236Y-86746928D01*
X48449840Y-86768009D01*
X48439452Y-86787445D01*
X48425476Y-86804476D01*
X48408445Y-86818452D01*
X48389009Y-86828840D01*
X48367928Y-86835236D01*
X48339860Y-86838000D01*
X46526140Y-86838000D01*
X46498072Y-86835236D01*
X46476991Y-86828840D01*
X46457555Y-86818452D01*
X46440524Y-86804476D01*
X46426548Y-86787445D01*
X46416160Y-86768009D01*
X46409764Y-86746928D01*
X46407000Y-86718860D01*
X46407000Y-86255140D01*
X46409764Y-86227072D01*
X46416160Y-86205991D01*
X46426548Y-86186555D01*
X46440524Y-86169524D01*
X46457555Y-86155548D01*
X46476991Y-86145160D01*
X46498072Y-86138764D01*
X46526140Y-86136000D01*
X48339860Y-86136000D01*
X48367928Y-86138764D01*
X48367928Y-86138764D01*
G37*
G36*
X43417928Y-86138764D02*
G01*
X43439009Y-86145160D01*
X43458445Y-86155548D01*
X43475476Y-86169524D01*
X43489452Y-86186555D01*
X43499840Y-86205991D01*
X43506236Y-86227072D01*
X43509000Y-86255140D01*
X43509000Y-86718860D01*
X43506236Y-86746928D01*
X43499840Y-86768009D01*
X43489452Y-86787445D01*
X43475476Y-86804476D01*
X43458445Y-86818452D01*
X43439009Y-86828840D01*
X43417928Y-86835236D01*
X43389860Y-86838000D01*
X41576140Y-86838000D01*
X41548072Y-86835236D01*
X41526991Y-86828840D01*
X41507555Y-86818452D01*
X41490524Y-86804476D01*
X41476548Y-86787445D01*
X41466160Y-86768009D01*
X41459764Y-86746928D01*
X41457000Y-86718860D01*
X41457000Y-86255140D01*
X41459764Y-86227072D01*
X41466160Y-86205991D01*
X41476548Y-86186555D01*
X41490524Y-86169524D01*
X41507555Y-86155548D01*
X41526991Y-86145160D01*
X41548072Y-86138764D01*
X41576140Y-86136000D01*
X43389860Y-86136000D01*
X43417928Y-86138764D01*
X43417928Y-86138764D01*
G37*
G36*
X65170250Y-86774220D02*
G01*
X63668710Y-86774220D01*
X63668710Y-86072780D01*
X65170250Y-86072780D01*
X65170250Y-86774220D01*
X65170250Y-86774220D01*
G37*
G36*
X59775290Y-86774220D02*
G01*
X58273750Y-86774220D01*
X58273750Y-86072780D01*
X59775290Y-86072780D01*
X59775290Y-86774220D01*
X59775290Y-86774220D01*
G37*
G36*
X66853000Y-86411000D02*
G01*
X65862000Y-86411000D01*
X65862000Y-85420000D01*
X66853000Y-85420000D01*
X66853000Y-86411000D01*
X66853000Y-86411000D01*
G37*
G36*
X70478000Y-85972000D02*
G01*
X69476000Y-85972000D01*
X69476000Y-84970000D01*
X70478000Y-84970000D01*
X70478000Y-85972000D01*
X70478000Y-85972000D01*
G37*
G36*
X50660500Y-85903000D02*
G01*
X49669500Y-85903000D01*
X49669500Y-84912000D01*
X50660500Y-84912000D01*
X50660500Y-85903000D01*
X50660500Y-85903000D01*
G37*
G36*
X57391500Y-85585500D02*
G01*
X56400500Y-85585500D01*
X56400500Y-84594500D01*
X57391500Y-84594500D01*
X57391500Y-85585500D01*
X57391500Y-85585500D01*
G37*
G36*
X55169000Y-85585500D02*
G01*
X54178000Y-85585500D01*
X54178000Y-84594500D01*
X55169000Y-84594500D01*
X55169000Y-85585500D01*
X55169000Y-85585500D01*
G37*
G36*
X48367928Y-84868764D02*
G01*
X48389009Y-84875160D01*
X48408445Y-84885548D01*
X48425476Y-84899524D01*
X48439452Y-84916555D01*
X48449840Y-84935991D01*
X48456236Y-84957072D01*
X48459000Y-84985140D01*
X48459000Y-85448860D01*
X48456236Y-85476928D01*
X48449840Y-85498009D01*
X48439452Y-85517445D01*
X48425476Y-85534476D01*
X48408445Y-85548452D01*
X48389009Y-85558840D01*
X48367928Y-85565236D01*
X48339860Y-85568000D01*
X46526140Y-85568000D01*
X46498072Y-85565236D01*
X46476991Y-85558840D01*
X46457555Y-85548452D01*
X46440524Y-85534476D01*
X46426548Y-85517445D01*
X46416160Y-85498009D01*
X46409764Y-85476928D01*
X46407000Y-85448860D01*
X46407000Y-84985140D01*
X46409764Y-84957072D01*
X46416160Y-84935991D01*
X46426548Y-84916555D01*
X46440524Y-84899524D01*
X46457555Y-84885548D01*
X46476991Y-84875160D01*
X46498072Y-84868764D01*
X46526140Y-84866000D01*
X48339860Y-84866000D01*
X48367928Y-84868764D01*
X48367928Y-84868764D01*
G37*
G36*
X43417928Y-84868764D02*
G01*
X43439009Y-84875160D01*
X43458445Y-84885548D01*
X43475476Y-84899524D01*
X43489452Y-84916555D01*
X43499840Y-84935991D01*
X43506236Y-84957072D01*
X43509000Y-84985140D01*
X43509000Y-85448860D01*
X43506236Y-85476928D01*
X43499840Y-85498009D01*
X43489452Y-85517445D01*
X43475476Y-85534476D01*
X43458445Y-85548452D01*
X43439009Y-85558840D01*
X43417928Y-85565236D01*
X43389860Y-85568000D01*
X41576140Y-85568000D01*
X41548072Y-85565236D01*
X41526991Y-85558840D01*
X41507555Y-85548452D01*
X41490524Y-85534476D01*
X41476548Y-85517445D01*
X41466160Y-85498009D01*
X41459764Y-85476928D01*
X41457000Y-85448860D01*
X41457000Y-84985140D01*
X41459764Y-84957072D01*
X41466160Y-84935991D01*
X41476548Y-84916555D01*
X41490524Y-84899524D01*
X41507555Y-84885548D01*
X41526991Y-84875160D01*
X41548072Y-84868764D01*
X41576140Y-84866000D01*
X43389860Y-84866000D01*
X43417928Y-84868764D01*
X43417928Y-84868764D01*
G37*
G36*
X59775290Y-85504220D02*
G01*
X58273750Y-85504220D01*
X58273750Y-84802780D01*
X59775290Y-84802780D01*
X59775290Y-85504220D01*
X59775290Y-85504220D01*
G37*
G36*
X65170250Y-85504220D02*
G01*
X63668710Y-85504220D01*
X63668710Y-84802780D01*
X65170250Y-84802780D01*
X65170250Y-85504220D01*
X65170250Y-85504220D01*
G37*
G36*
X70478000Y-84448000D02*
G01*
X69476000Y-84448000D01*
X69476000Y-83446000D01*
X70478000Y-83446000D01*
X70478000Y-84448000D01*
X70478000Y-84448000D01*
G37*
G36*
X67107000Y-84379000D02*
G01*
X66116000Y-84379000D01*
X66116000Y-83388000D01*
X67107000Y-83388000D01*
X67107000Y-84379000D01*
X67107000Y-84379000D01*
G37*
G36*
X68631000Y-84379000D02*
G01*
X67640000Y-84379000D01*
X67640000Y-83388000D01*
X68631000Y-83388000D01*
X68631000Y-84379000D01*
X68631000Y-84379000D01*
G37*
G36*
X52184500Y-84315500D02*
G01*
X51193500Y-84315500D01*
X51193500Y-83324500D01*
X52184500Y-83324500D01*
X52184500Y-84315500D01*
X52184500Y-84315500D01*
G37*
G36*
X50660500Y-84315500D02*
G01*
X49669500Y-84315500D01*
X49669500Y-83324500D01*
X50660500Y-83324500D01*
X50660500Y-84315500D01*
X50660500Y-84315500D01*
G37*
G36*
X43417928Y-83598764D02*
G01*
X43439009Y-83605160D01*
X43458445Y-83615548D01*
X43475476Y-83629524D01*
X43489452Y-83646555D01*
X43499840Y-83665991D01*
X43506236Y-83687072D01*
X43509000Y-83715140D01*
X43509000Y-84178860D01*
X43506236Y-84206928D01*
X43499840Y-84228009D01*
X43489452Y-84247445D01*
X43475476Y-84264476D01*
X43458445Y-84278452D01*
X43439009Y-84288840D01*
X43417928Y-84295236D01*
X43389860Y-84298000D01*
X41576140Y-84298000D01*
X41548072Y-84295236D01*
X41526991Y-84288840D01*
X41507555Y-84278452D01*
X41490524Y-84264476D01*
X41476548Y-84247445D01*
X41466160Y-84228009D01*
X41459764Y-84206928D01*
X41457000Y-84178860D01*
X41457000Y-83715140D01*
X41459764Y-83687072D01*
X41466160Y-83665991D01*
X41476548Y-83646555D01*
X41490524Y-83629524D01*
X41507555Y-83615548D01*
X41526991Y-83605160D01*
X41548072Y-83598764D01*
X41576140Y-83596000D01*
X43389860Y-83596000D01*
X43417928Y-83598764D01*
X43417928Y-83598764D01*
G37*
G36*
X48367928Y-83598764D02*
G01*
X48389009Y-83605160D01*
X48408445Y-83615548D01*
X48425476Y-83629524D01*
X48439452Y-83646555D01*
X48449840Y-83665991D01*
X48456236Y-83687072D01*
X48459000Y-83715140D01*
X48459000Y-84178860D01*
X48456236Y-84206928D01*
X48449840Y-84228009D01*
X48439452Y-84247445D01*
X48425476Y-84264476D01*
X48408445Y-84278452D01*
X48389009Y-84288840D01*
X48367928Y-84295236D01*
X48339860Y-84298000D01*
X46526140Y-84298000D01*
X46498072Y-84295236D01*
X46476991Y-84288840D01*
X46457555Y-84278452D01*
X46440524Y-84264476D01*
X46426548Y-84247445D01*
X46416160Y-84228009D01*
X46409764Y-84206928D01*
X46407000Y-84178860D01*
X46407000Y-83715140D01*
X46409764Y-83687072D01*
X46416160Y-83665991D01*
X46426548Y-83646555D01*
X46440524Y-83629524D01*
X46457555Y-83615548D01*
X46476991Y-83605160D01*
X46498072Y-83598764D01*
X46526140Y-83596000D01*
X48339860Y-83596000D01*
X48367928Y-83598764D01*
X48367928Y-83598764D01*
G37*
G36*
X65170250Y-84234220D02*
G01*
X63668710Y-84234220D01*
X63668710Y-83532780D01*
X65170250Y-83532780D01*
X65170250Y-84234220D01*
X65170250Y-84234220D01*
G37*
G36*
X59775290Y-84234220D02*
G01*
X58273750Y-84234220D01*
X58273750Y-83532780D01*
X59775290Y-83532780D01*
X59775290Y-84234220D01*
X59775290Y-84234220D01*
G37*
G36*
X43417928Y-82328764D02*
G01*
X43439009Y-82335160D01*
X43458445Y-82345548D01*
X43475476Y-82359524D01*
X43489452Y-82376555D01*
X43499840Y-82395991D01*
X43506236Y-82417072D01*
X43509000Y-82445140D01*
X43509000Y-82908860D01*
X43506236Y-82936928D01*
X43499840Y-82958009D01*
X43489452Y-82977445D01*
X43475476Y-82994476D01*
X43458445Y-83008452D01*
X43439009Y-83018840D01*
X43417928Y-83025236D01*
X43389860Y-83028000D01*
X41576140Y-83028000D01*
X41548072Y-83025236D01*
X41526991Y-83018840D01*
X41507555Y-83008452D01*
X41490524Y-82994476D01*
X41476548Y-82977445D01*
X41466160Y-82958009D01*
X41459764Y-82936928D01*
X41457000Y-82908860D01*
X41457000Y-82445140D01*
X41459764Y-82417072D01*
X41466160Y-82395991D01*
X41476548Y-82376555D01*
X41490524Y-82359524D01*
X41507555Y-82345548D01*
X41526991Y-82335160D01*
X41548072Y-82328764D01*
X41576140Y-82326000D01*
X43389860Y-82326000D01*
X43417928Y-82328764D01*
X43417928Y-82328764D01*
G37*
G36*
X48367928Y-82328764D02*
G01*
X48389009Y-82335160D01*
X48408445Y-82345548D01*
X48425476Y-82359524D01*
X48439452Y-82376555D01*
X48449840Y-82395991D01*
X48456236Y-82417072D01*
X48459000Y-82445140D01*
X48459000Y-82908860D01*
X48456236Y-82936928D01*
X48449840Y-82958009D01*
X48439452Y-82977445D01*
X48425476Y-82994476D01*
X48408445Y-83008452D01*
X48389009Y-83018840D01*
X48367928Y-83025236D01*
X48339860Y-83028000D01*
X46526140Y-83028000D01*
X46498072Y-83025236D01*
X46476991Y-83018840D01*
X46457555Y-83008452D01*
X46440524Y-82994476D01*
X46426548Y-82977445D01*
X46416160Y-82958009D01*
X46409764Y-82936928D01*
X46407000Y-82908860D01*
X46407000Y-82445140D01*
X46409764Y-82417072D01*
X46416160Y-82395991D01*
X46426548Y-82376555D01*
X46440524Y-82359524D01*
X46457555Y-82345548D01*
X46476991Y-82335160D01*
X46498072Y-82328764D01*
X46526140Y-82326000D01*
X48339860Y-82326000D01*
X48367928Y-82328764D01*
X48367928Y-82328764D01*
G37*
G36*
X59775290Y-82964220D02*
G01*
X58273750Y-82964220D01*
X58273750Y-82262780D01*
X59775290Y-82262780D01*
X59775290Y-82964220D01*
X59775290Y-82964220D01*
G37*
G36*
X65170250Y-82964220D02*
G01*
X63668710Y-82964220D01*
X63668710Y-82262780D01*
X65170250Y-82262780D01*
X65170250Y-82964220D01*
X65170250Y-82964220D01*
G37*
G36*
X52248000Y-82728000D02*
G01*
X51257000Y-82728000D01*
X51257000Y-81737000D01*
X52248000Y-81737000D01*
X52248000Y-82728000D01*
X52248000Y-82728000D01*
G37*
G36*
X53772000Y-82728000D02*
G01*
X52781000Y-82728000D01*
X52781000Y-81737000D01*
X53772000Y-81737000D01*
X53772000Y-82728000D01*
X53772000Y-82728000D01*
G37*
G36*
X43417928Y-81058764D02*
G01*
X43439009Y-81065160D01*
X43458445Y-81075548D01*
X43475476Y-81089524D01*
X43489452Y-81106555D01*
X43499840Y-81125991D01*
X43506236Y-81147072D01*
X43509000Y-81175140D01*
X43509000Y-81638860D01*
X43506236Y-81666928D01*
X43499840Y-81688009D01*
X43489452Y-81707445D01*
X43475476Y-81724476D01*
X43458445Y-81738452D01*
X43439009Y-81748840D01*
X43417928Y-81755236D01*
X43389860Y-81758000D01*
X41576140Y-81758000D01*
X41548072Y-81755236D01*
X41526991Y-81748840D01*
X41507555Y-81738452D01*
X41490524Y-81724476D01*
X41476548Y-81707445D01*
X41466160Y-81688009D01*
X41459764Y-81666928D01*
X41457000Y-81638860D01*
X41457000Y-81175140D01*
X41459764Y-81147072D01*
X41466160Y-81125991D01*
X41476548Y-81106555D01*
X41490524Y-81089524D01*
X41507555Y-81075548D01*
X41526991Y-81065160D01*
X41548072Y-81058764D01*
X41576140Y-81056000D01*
X43389860Y-81056000D01*
X43417928Y-81058764D01*
X43417928Y-81058764D01*
G37*
G36*
X48367928Y-81058764D02*
G01*
X48389009Y-81065160D01*
X48408445Y-81075548D01*
X48425476Y-81089524D01*
X48439452Y-81106555D01*
X48449840Y-81125991D01*
X48456236Y-81147072D01*
X48459000Y-81175140D01*
X48459000Y-81638860D01*
X48456236Y-81666928D01*
X48449840Y-81688009D01*
X48439452Y-81707445D01*
X48425476Y-81724476D01*
X48408445Y-81738452D01*
X48389009Y-81748840D01*
X48367928Y-81755236D01*
X48339860Y-81758000D01*
X46526140Y-81758000D01*
X46498072Y-81755236D01*
X46476991Y-81748840D01*
X46457555Y-81738452D01*
X46440524Y-81724476D01*
X46426548Y-81707445D01*
X46416160Y-81688009D01*
X46409764Y-81666928D01*
X46407000Y-81638860D01*
X46407000Y-81175140D01*
X46409764Y-81147072D01*
X46416160Y-81125991D01*
X46426548Y-81106555D01*
X46440524Y-81089524D01*
X46457555Y-81075548D01*
X46476991Y-81065160D01*
X46498072Y-81058764D01*
X46526140Y-81056000D01*
X48339860Y-81056000D01*
X48367928Y-81058764D01*
X48367928Y-81058764D01*
G37*
G36*
X64948000Y-81521500D02*
G01*
X63957000Y-81521500D01*
X63957000Y-80530500D01*
X64948000Y-80530500D01*
X64948000Y-81521500D01*
X64948000Y-81521500D01*
G37*
G36*
X66472000Y-81521500D02*
G01*
X65481000Y-81521500D01*
X65481000Y-80530500D01*
X66472000Y-80530500D01*
X66472000Y-81521500D01*
X66472000Y-81521500D01*
G37*
G36*
X58026500Y-81267500D02*
G01*
X57035500Y-81267500D01*
X57035500Y-80276500D01*
X58026500Y-80276500D01*
X58026500Y-81267500D01*
X58026500Y-81267500D01*
G37*
G36*
X59550500Y-81267500D02*
G01*
X58559500Y-81267500D01*
X58559500Y-80276500D01*
X59550500Y-80276500D01*
X59550500Y-81267500D01*
X59550500Y-81267500D01*
G37*
G36*
X55936500Y-81209500D02*
G01*
X54934500Y-81209500D01*
X54934500Y-80207500D01*
X55936500Y-80207500D01*
X55936500Y-81209500D01*
X55936500Y-81209500D01*
G37*
G36*
X51041500Y-80759500D02*
G01*
X50050500Y-80759500D01*
X50050500Y-79768500D01*
X51041500Y-79768500D01*
X51041500Y-80759500D01*
X51041500Y-80759500D01*
G37*
G36*
X40818000Y-80632500D02*
G01*
X39827000Y-80632500D01*
X39827000Y-79641500D01*
X40818000Y-79641500D01*
X40818000Y-80632500D01*
X40818000Y-80632500D01*
G37*
G36*
X43417928Y-79788764D02*
G01*
X43439009Y-79795160D01*
X43458445Y-79805548D01*
X43475476Y-79819524D01*
X43489452Y-79836555D01*
X43499840Y-79855991D01*
X43506236Y-79877072D01*
X43509000Y-79905140D01*
X43509000Y-80368860D01*
X43506236Y-80396928D01*
X43499840Y-80418009D01*
X43489452Y-80437445D01*
X43475476Y-80454476D01*
X43458445Y-80468452D01*
X43439009Y-80478840D01*
X43417928Y-80485236D01*
X43389860Y-80488000D01*
X41576140Y-80488000D01*
X41548072Y-80485236D01*
X41526991Y-80478840D01*
X41507555Y-80468452D01*
X41490524Y-80454476D01*
X41476548Y-80437445D01*
X41466160Y-80418009D01*
X41459764Y-80396928D01*
X41457000Y-80368860D01*
X41457000Y-79905140D01*
X41459764Y-79877072D01*
X41466160Y-79855991D01*
X41476548Y-79836555D01*
X41490524Y-79819524D01*
X41507555Y-79805548D01*
X41526991Y-79795160D01*
X41548072Y-79788764D01*
X41576140Y-79786000D01*
X43389860Y-79786000D01*
X43417928Y-79788764D01*
X43417928Y-79788764D01*
G37*
G36*
X48367928Y-79788764D02*
G01*
X48389009Y-79795160D01*
X48408445Y-79805548D01*
X48425476Y-79819524D01*
X48439452Y-79836555D01*
X48449840Y-79855991D01*
X48456236Y-79877072D01*
X48459000Y-79905140D01*
X48459000Y-80368860D01*
X48456236Y-80396928D01*
X48449840Y-80418009D01*
X48439452Y-80437445D01*
X48425476Y-80454476D01*
X48408445Y-80468452D01*
X48389009Y-80478840D01*
X48367928Y-80485236D01*
X48339860Y-80488000D01*
X46526140Y-80488000D01*
X46498072Y-80485236D01*
X46476991Y-80478840D01*
X46457555Y-80468452D01*
X46440524Y-80454476D01*
X46426548Y-80437445D01*
X46416160Y-80418009D01*
X46409764Y-80396928D01*
X46407000Y-80368860D01*
X46407000Y-79905140D01*
X46409764Y-79877072D01*
X46416160Y-79855991D01*
X46426548Y-79836555D01*
X46440524Y-79819524D01*
X46457555Y-79805548D01*
X46476991Y-79795160D01*
X46498072Y-79788764D01*
X46526140Y-79786000D01*
X48339860Y-79786000D01*
X48367928Y-79788764D01*
X48367928Y-79788764D01*
G37*
G36*
X69394564Y-77983389D02*
G01*
X69585833Y-78062615D01*
X69585835Y-78062616D01*
X69757973Y-78177635D01*
X69904365Y-78324027D01*
X69973105Y-78426903D01*
X70019385Y-78496167D01*
X70098611Y-78687436D01*
X70139000Y-78890484D01*
X70139000Y-79097516D01*
X70098611Y-79300564D01*
X70022726Y-79483766D01*
X70019384Y-79491835D01*
X69904365Y-79663973D01*
X69757973Y-79810365D01*
X69585835Y-79925384D01*
X69585834Y-79925385D01*
X69585833Y-79925385D01*
X69394564Y-80004611D01*
X69191516Y-80045000D01*
X68984484Y-80045000D01*
X68781436Y-80004611D01*
X68590167Y-79925385D01*
X68590166Y-79925385D01*
X68590165Y-79925384D01*
X68418027Y-79810365D01*
X68271635Y-79663973D01*
X68156616Y-79491835D01*
X68153274Y-79483766D01*
X68077389Y-79300564D01*
X68037000Y-79097516D01*
X68037000Y-78890484D01*
X68077389Y-78687436D01*
X68156615Y-78496167D01*
X68202896Y-78426903D01*
X68271635Y-78324027D01*
X68418027Y-78177635D01*
X68590165Y-78062616D01*
X68590167Y-78062615D01*
X68781436Y-77983389D01*
X68984484Y-77943000D01*
X69191516Y-77943000D01*
X69394564Y-77983389D01*
X69394564Y-77983389D01*
G37*
G36*
X55936500Y-79685500D02*
G01*
X54934500Y-79685500D01*
X54934500Y-78683500D01*
X55936500Y-78683500D01*
X55936500Y-79685500D01*
X55936500Y-79685500D01*
G37*
G36*
X66345000Y-79235500D02*
G01*
X65354000Y-79235500D01*
X65354000Y-78244500D01*
X66345000Y-78244500D01*
X66345000Y-79235500D01*
X66345000Y-79235500D01*
G37*
G36*
X64821000Y-79235500D02*
G01*
X63830000Y-79235500D01*
X63830000Y-78244500D01*
X64821000Y-78244500D01*
X64821000Y-79235500D01*
X64821000Y-79235500D01*
G37*
G36*
X51041500Y-79235500D02*
G01*
X50050500Y-79235500D01*
X50050500Y-78244500D01*
X51041500Y-78244500D01*
X51041500Y-79235500D01*
X51041500Y-79235500D01*
G37*
G36*
X48367928Y-78518764D02*
G01*
X48389009Y-78525160D01*
X48408445Y-78535548D01*
X48425476Y-78549524D01*
X48439452Y-78566555D01*
X48449840Y-78585991D01*
X48456236Y-78607072D01*
X48459000Y-78635140D01*
X48459000Y-79098860D01*
X48456236Y-79126928D01*
X48449840Y-79148009D01*
X48439452Y-79167445D01*
X48425476Y-79184476D01*
X48408445Y-79198452D01*
X48389009Y-79208840D01*
X48367928Y-79215236D01*
X48339860Y-79218000D01*
X46526140Y-79218000D01*
X46498072Y-79215236D01*
X46476991Y-79208840D01*
X46457555Y-79198452D01*
X46440524Y-79184476D01*
X46426548Y-79167445D01*
X46416160Y-79148009D01*
X46409764Y-79126928D01*
X46407000Y-79098860D01*
X46407000Y-78635140D01*
X46409764Y-78607072D01*
X46416160Y-78585991D01*
X46426548Y-78566555D01*
X46440524Y-78549524D01*
X46457555Y-78535548D01*
X46476991Y-78525160D01*
X46498072Y-78518764D01*
X46526140Y-78516000D01*
X48339860Y-78516000D01*
X48367928Y-78518764D01*
X48367928Y-78518764D01*
G37*
G36*
X43417928Y-78518764D02*
G01*
X43439009Y-78525160D01*
X43458445Y-78535548D01*
X43475476Y-78549524D01*
X43489452Y-78566555D01*
X43499840Y-78585991D01*
X43506236Y-78607072D01*
X43509000Y-78635140D01*
X43509000Y-79098860D01*
X43506236Y-79126928D01*
X43499840Y-79148009D01*
X43489452Y-79167445D01*
X43475476Y-79184476D01*
X43458445Y-79198452D01*
X43439009Y-79208840D01*
X43417928Y-79215236D01*
X43389860Y-79218000D01*
X41576140Y-79218000D01*
X41548072Y-79215236D01*
X41526991Y-79208840D01*
X41507555Y-79198452D01*
X41490524Y-79184476D01*
X41476548Y-79167445D01*
X41466160Y-79148009D01*
X41459764Y-79126928D01*
X41457000Y-79098860D01*
X41457000Y-78635140D01*
X41459764Y-78607072D01*
X41466160Y-78585991D01*
X41476548Y-78566555D01*
X41490524Y-78549524D01*
X41507555Y-78535548D01*
X41526991Y-78525160D01*
X41548072Y-78518764D01*
X41576140Y-78516000D01*
X43389860Y-78516000D01*
X43417928Y-78518764D01*
X43417928Y-78518764D01*
G37*
G36*
X40818000Y-79108500D02*
G01*
X39827000Y-79108500D01*
X39827000Y-78117500D01*
X40818000Y-78117500D01*
X40818000Y-79108500D01*
X40818000Y-79108500D01*
G37*
G36*
X57837564Y-76395889D02*
G01*
X57974235Y-76452500D01*
X58028835Y-76475116D01*
X58200973Y-76590135D01*
X58347365Y-76736527D01*
X58462385Y-76908667D01*
X58541611Y-77099936D01*
X58582000Y-77302984D01*
X58582000Y-77510016D01*
X58541611Y-77713064D01*
X58462385Y-77904333D01*
X58462384Y-77904335D01*
X58347365Y-78076473D01*
X58200973Y-78222865D01*
X58028835Y-78337884D01*
X58028834Y-78337885D01*
X58028833Y-78337885D01*
X57837564Y-78417111D01*
X57634516Y-78457500D01*
X57427484Y-78457500D01*
X57224436Y-78417111D01*
X57033167Y-78337885D01*
X57033166Y-78337885D01*
X57033165Y-78337884D01*
X56861027Y-78222865D01*
X56714635Y-78076473D01*
X56599616Y-77904335D01*
X56599615Y-77904333D01*
X56520389Y-77713064D01*
X56480000Y-77510016D01*
X56480000Y-77302984D01*
X56520389Y-77099936D01*
X56599615Y-76908667D01*
X56714635Y-76736527D01*
X56861027Y-76590135D01*
X57033165Y-76475116D01*
X57087765Y-76452500D01*
X57224436Y-76395889D01*
X57427484Y-76355500D01*
X57634516Y-76355500D01*
X57837564Y-76395889D01*
X57837564Y-76395889D01*
G37*
G36*
X49644500Y-77203500D02*
G01*
X48653500Y-77203500D01*
X48653500Y-76212500D01*
X49644500Y-76212500D01*
X49644500Y-77203500D01*
X49644500Y-77203500D01*
G37*
G36*
X40818000Y-77203500D02*
G01*
X39827000Y-77203500D01*
X39827000Y-76212500D01*
X40818000Y-76212500D01*
X40818000Y-77203500D01*
X40818000Y-77203500D01*
G37*
G36*
X42342000Y-77203500D02*
G01*
X41351000Y-77203500D01*
X41351000Y-76212500D01*
X42342000Y-76212500D01*
X42342000Y-77203500D01*
X42342000Y-77203500D01*
G37*
G36*
X51168500Y-77203500D02*
G01*
X50177500Y-77203500D01*
X50177500Y-76212500D01*
X51168500Y-76212500D01*
X51168500Y-77203500D01*
X51168500Y-77203500D01*
G37*
G36*
X67775000Y-76804500D02*
G01*
X66573000Y-76804500D01*
X66573000Y-74452500D01*
X67775000Y-74452500D01*
X67775000Y-76804500D01*
X67775000Y-76804500D01*
G37*
G36*
X63475000Y-76804500D02*
G01*
X62273000Y-76804500D01*
X62273000Y-74452500D01*
X63475000Y-74452500D01*
X63475000Y-76804500D01*
X63475000Y-76804500D01*
G37*
G36*
X46215500Y-76251000D02*
G01*
X45224500Y-76251000D01*
X45224500Y-75260000D01*
X46215500Y-75260000D01*
X46215500Y-76251000D01*
X46215500Y-76251000D01*
G37*
G36*
X44691500Y-76251000D02*
G01*
X43700500Y-76251000D01*
X43700500Y-75260000D01*
X44691500Y-75260000D01*
X44691500Y-76251000D01*
X44691500Y-76251000D01*
G37*
G36*
X64821000Y-73139500D02*
G01*
X63830000Y-73139500D01*
X63830000Y-72148500D01*
X64821000Y-72148500D01*
X64821000Y-73139500D01*
X64821000Y-73139500D01*
G37*
G36*
X66345000Y-73139500D02*
G01*
X65354000Y-73139500D01*
X65354000Y-72148500D01*
X66345000Y-72148500D01*
X66345000Y-73139500D01*
X66345000Y-73139500D01*
G37*
G36*
X76383122Y-67489233D02*
G01*
X76771593Y-67566504D01*
X77181249Y-67736189D01*
X77549929Y-67982534D01*
X77863466Y-68296071D01*
X78109811Y-68664751D01*
X78279496Y-69074407D01*
X78366000Y-69509296D01*
X78366000Y-69952704D01*
X78279496Y-70387593D01*
X78109811Y-70797249D01*
X77863466Y-71165929D01*
X77549929Y-71479466D01*
X77181249Y-71725811D01*
X76771593Y-71895496D01*
X76390880Y-71971224D01*
X76336705Y-71982000D01*
X75893295Y-71982000D01*
X75839120Y-71971224D01*
X75458407Y-71895496D01*
X75048751Y-71725811D01*
X74680071Y-71479466D01*
X74366534Y-71165929D01*
X74120189Y-70797249D01*
X73950504Y-70387593D01*
X73864000Y-69952704D01*
X73864000Y-69509296D01*
X73950504Y-69074407D01*
X74120189Y-68664751D01*
X74366534Y-68296071D01*
X74680071Y-67982534D01*
X75048751Y-67736189D01*
X75458407Y-67566504D01*
X75846878Y-67489233D01*
X75893295Y-67480000D01*
X76336705Y-67480000D01*
X76383122Y-67489233D01*
X76383122Y-67489233D01*
G37*
G36*
X31383122Y-67489233D02*
G01*
X31771593Y-67566504D01*
X32181249Y-67736189D01*
X32549929Y-67982534D01*
X32863466Y-68296071D01*
X33109811Y-68664751D01*
X33279496Y-69074407D01*
X33366000Y-69509296D01*
X33366000Y-69952704D01*
X33279496Y-70387593D01*
X33109811Y-70797249D01*
X32863466Y-71165929D01*
X32549929Y-71479466D01*
X32181249Y-71725811D01*
X31771593Y-71895496D01*
X31390880Y-71971224D01*
X31336705Y-71982000D01*
X30893295Y-71982000D01*
X30839120Y-71971224D01*
X30458407Y-71895496D01*
X30048751Y-71725811D01*
X29680071Y-71479466D01*
X29366534Y-71165929D01*
X29120189Y-70797249D01*
X28950504Y-70387593D01*
X28864000Y-69952704D01*
X28864000Y-69509296D01*
X28950504Y-69074407D01*
X29120189Y-68664751D01*
X29366534Y-68296071D01*
X29680071Y-67982534D01*
X30048751Y-67736189D01*
X30458407Y-67566504D01*
X30846878Y-67489233D01*
X30893295Y-67480000D01*
X31336705Y-67480000D01*
X31383122Y-67489233D01*
X31383122Y-67489233D01*
G37*
G36*
X56756500Y-69647000D02*
G01*
X55765500Y-69647000D01*
X55765500Y-68656000D01*
X56756500Y-68656000D01*
X56756500Y-69647000D01*
X56756500Y-69647000D01*
G37*
G36*
X55232500Y-69647000D02*
G01*
X54241500Y-69647000D01*
X54241500Y-68656000D01*
X55232500Y-68656000D01*
X55232500Y-69647000D01*
X55232500Y-69647000D01*
G37*
G36*
X61836500Y-69583500D02*
G01*
X60845500Y-69583500D01*
X60845500Y-68592500D01*
X61836500Y-68592500D01*
X61836500Y-69583500D01*
X61836500Y-69583500D01*
G37*
G36*
X60312500Y-69583500D02*
G01*
X59321500Y-69583500D01*
X59321500Y-68592500D01*
X60312500Y-68592500D01*
X60312500Y-69583500D01*
X60312500Y-69583500D01*
G37*
G36*
X66345000Y-67996000D02*
G01*
X65354000Y-67996000D01*
X65354000Y-67005000D01*
X66345000Y-67005000D01*
X66345000Y-67996000D01*
X66345000Y-67996000D01*
G37*
G36*
X70112199Y-65489954D02*
G01*
X70124450Y-65490556D01*
X70142869Y-65490556D01*
X70165149Y-65492750D01*
X70249233Y-65509476D01*
X70270660Y-65515976D01*
X70349858Y-65548780D01*
X70355303Y-65551691D01*
X70355309Y-65551693D01*
X70364169Y-65556429D01*
X70364173Y-65556432D01*
X70369614Y-65559340D01*
X70440899Y-65606971D01*
X70458204Y-65621172D01*
X70518828Y-65681796D01*
X70533029Y-65699101D01*
X70580660Y-65770386D01*
X70583568Y-65775827D01*
X70583571Y-65775831D01*
X70588307Y-65784691D01*
X70588309Y-65784697D01*
X70591220Y-65790142D01*
X70624024Y-65869340D01*
X70630524Y-65890767D01*
X70647250Y-65974851D01*
X70649444Y-65997131D01*
X70649444Y-66015550D01*
X70650046Y-66027801D01*
X70651852Y-66046139D01*
X70651852Y-66533860D01*
X70650263Y-66549999D01*
X70647348Y-66559608D01*
X70642610Y-66568472D01*
X70636237Y-66576237D01*
X70623794Y-66586448D01*
X70613425Y-66593378D01*
X70596098Y-66610705D01*
X70582485Y-66631080D01*
X70573109Y-66653720D01*
X70568329Y-66677753D01*
X70568330Y-66702257D01*
X70573112Y-66726290D01*
X70582490Y-66748929D01*
X70596105Y-66769302D01*
X70613432Y-66786629D01*
X70623802Y-66793558D01*
X70636237Y-66803763D01*
X70642610Y-66811528D01*
X70647348Y-66820392D01*
X70650263Y-66830001D01*
X70651852Y-66846140D01*
X70651852Y-67333862D01*
X70650046Y-67352199D01*
X70649444Y-67364450D01*
X70649444Y-67382869D01*
X70647250Y-67405149D01*
X70630524Y-67489233D01*
X70624024Y-67510660D01*
X70591220Y-67589858D01*
X70588309Y-67595303D01*
X70588307Y-67595309D01*
X70583571Y-67604169D01*
X70583568Y-67604173D01*
X70580660Y-67609614D01*
X70533029Y-67680899D01*
X70518828Y-67698204D01*
X70458204Y-67758828D01*
X70440899Y-67773029D01*
X70369614Y-67820660D01*
X70364173Y-67823568D01*
X70364169Y-67823571D01*
X70355309Y-67828307D01*
X70355303Y-67828309D01*
X70349858Y-67831220D01*
X70270660Y-67864024D01*
X70249233Y-67870524D01*
X70165149Y-67887250D01*
X70142869Y-67889444D01*
X70124450Y-67889444D01*
X70112199Y-67890046D01*
X70093862Y-67891852D01*
X69606138Y-67891852D01*
X69587801Y-67890046D01*
X69575550Y-67889444D01*
X69557131Y-67889444D01*
X69534851Y-67887250D01*
X69450767Y-67870524D01*
X69429340Y-67864024D01*
X69350142Y-67831220D01*
X69344697Y-67828309D01*
X69344691Y-67828307D01*
X69335831Y-67823571D01*
X69335827Y-67823568D01*
X69330386Y-67820660D01*
X69259101Y-67773029D01*
X69241796Y-67758828D01*
X69181172Y-67698204D01*
X69166971Y-67680899D01*
X69119340Y-67609614D01*
X69116432Y-67604173D01*
X69116429Y-67604169D01*
X69111693Y-67595309D01*
X69111691Y-67595303D01*
X69108780Y-67589858D01*
X69075976Y-67510660D01*
X69069476Y-67489233D01*
X69052750Y-67405149D01*
X69050556Y-67382869D01*
X69050556Y-67364450D01*
X69049954Y-67352199D01*
X69048148Y-67333862D01*
X69048148Y-66846140D01*
X69049737Y-66830001D01*
X69052652Y-66820392D01*
X69057390Y-66811528D01*
X69063763Y-66803763D01*
X69076206Y-66793552D01*
X69086575Y-66786622D01*
X69103902Y-66769295D01*
X69117515Y-66748920D01*
X69126891Y-66726280D01*
X69131671Y-66702247D01*
X69131670Y-66677743D01*
X69126888Y-66653710D01*
X69117510Y-66631071D01*
X69103895Y-66610698D01*
X69086568Y-66593371D01*
X69076198Y-66586442D01*
X69063763Y-66576237D01*
X69057390Y-66568472D01*
X69052652Y-66559608D01*
X69049737Y-66549999D01*
X69048148Y-66533860D01*
X69048148Y-66046139D01*
X69049954Y-66027801D01*
X69050556Y-66015550D01*
X69050556Y-65997131D01*
X69052750Y-65974851D01*
X69069476Y-65890767D01*
X69075976Y-65869340D01*
X69108780Y-65790142D01*
X69111691Y-65784697D01*
X69111693Y-65784691D01*
X69116429Y-65775831D01*
X69116432Y-65775827D01*
X69119340Y-65770386D01*
X69166971Y-65699101D01*
X69181172Y-65681796D01*
X69241796Y-65621172D01*
X69259101Y-65606971D01*
X69330386Y-65559340D01*
X69335827Y-65556432D01*
X69335831Y-65556429D01*
X69344691Y-65551693D01*
X69344697Y-65551691D01*
X69350142Y-65548780D01*
X69429340Y-65515976D01*
X69450767Y-65509476D01*
X69534851Y-65492750D01*
X69557131Y-65490556D01*
X69575550Y-65490556D01*
X69587801Y-65489954D01*
X69606139Y-65488148D01*
X70093861Y-65488148D01*
X70112199Y-65489954D01*
X70112199Y-65489954D01*
G37*
G36*
X55638000Y-67512500D02*
G01*
X53836000Y-67512500D01*
X53836000Y-65710500D01*
X55638000Y-65710500D01*
X55638000Y-67512500D01*
X55638000Y-67512500D01*
G37*
G36*
X57387442Y-65717018D02*
G01*
X57453627Y-65723537D01*
X57623466Y-65775057D01*
X57779991Y-65858722D01*
X57811840Y-65884860D01*
X57917186Y-65971314D01*
X57965349Y-66030002D01*
X58029778Y-66108509D01*
X58113443Y-66265034D01*
X58164963Y-66434873D01*
X58182359Y-66611500D01*
X58164963Y-66788127D01*
X58113443Y-66957966D01*
X58029778Y-67114491D01*
X58000448Y-67150229D01*
X57917186Y-67251686D01*
X57817053Y-67333862D01*
X57779991Y-67364278D01*
X57623466Y-67447943D01*
X57453627Y-67499463D01*
X57387442Y-67505982D01*
X57321260Y-67512500D01*
X57232740Y-67512500D01*
X57166558Y-67505982D01*
X57100373Y-67499463D01*
X56930534Y-67447943D01*
X56774009Y-67364278D01*
X56736947Y-67333862D01*
X56636814Y-67251686D01*
X56553552Y-67150229D01*
X56524222Y-67114491D01*
X56440557Y-66957966D01*
X56389037Y-66788127D01*
X56371641Y-66611500D01*
X56389037Y-66434873D01*
X56440557Y-66265034D01*
X56524222Y-66108509D01*
X56588651Y-66030002D01*
X56636814Y-65971314D01*
X56742160Y-65884860D01*
X56774009Y-65858722D01*
X56930534Y-65775057D01*
X57100373Y-65723537D01*
X57166558Y-65717018D01*
X57232740Y-65710500D01*
X57321260Y-65710500D01*
X57387442Y-65717018D01*
X57387442Y-65717018D01*
G37*
G36*
X59927442Y-65717018D02*
G01*
X59993627Y-65723537D01*
X60163466Y-65775057D01*
X60319991Y-65858722D01*
X60351840Y-65884860D01*
X60457186Y-65971314D01*
X60505349Y-66030002D01*
X60569778Y-66108509D01*
X60653443Y-66265034D01*
X60704963Y-66434873D01*
X60722359Y-66611500D01*
X60704963Y-66788127D01*
X60653443Y-66957966D01*
X60569778Y-67114491D01*
X60540448Y-67150229D01*
X60457186Y-67251686D01*
X60357053Y-67333862D01*
X60319991Y-67364278D01*
X60163466Y-67447943D01*
X59993627Y-67499463D01*
X59927442Y-67505982D01*
X59861260Y-67512500D01*
X59772740Y-67512500D01*
X59706558Y-67505982D01*
X59640373Y-67499463D01*
X59470534Y-67447943D01*
X59314009Y-67364278D01*
X59276947Y-67333862D01*
X59176814Y-67251686D01*
X59093552Y-67150229D01*
X59064222Y-67114491D01*
X58980557Y-66957966D01*
X58929037Y-66788127D01*
X58911641Y-66611500D01*
X58929037Y-66434873D01*
X58980557Y-66265034D01*
X59064222Y-66108509D01*
X59128651Y-66030002D01*
X59176814Y-65971314D01*
X59282160Y-65884860D01*
X59314009Y-65858722D01*
X59470534Y-65775057D01*
X59640373Y-65723537D01*
X59706558Y-65717018D01*
X59772740Y-65710500D01*
X59861260Y-65710500D01*
X59927442Y-65717018D01*
X59927442Y-65717018D01*
G37*
G36*
X62467442Y-65717018D02*
G01*
X62533627Y-65723537D01*
X62703466Y-65775057D01*
X62859991Y-65858722D01*
X62891840Y-65884860D01*
X62997186Y-65971314D01*
X63045349Y-66030002D01*
X63109778Y-66108509D01*
X63193443Y-66265034D01*
X63244963Y-66434873D01*
X63262359Y-66611500D01*
X63244963Y-66788127D01*
X63193443Y-66957966D01*
X63109778Y-67114491D01*
X63080448Y-67150229D01*
X62997186Y-67251686D01*
X62897053Y-67333862D01*
X62859991Y-67364278D01*
X62703466Y-67447943D01*
X62533627Y-67499463D01*
X62467442Y-67505982D01*
X62401260Y-67512500D01*
X62312740Y-67512500D01*
X62246558Y-67505982D01*
X62180373Y-67499463D01*
X62010534Y-67447943D01*
X61854009Y-67364278D01*
X61816947Y-67333862D01*
X61716814Y-67251686D01*
X61633552Y-67150229D01*
X61604222Y-67114491D01*
X61520557Y-66957966D01*
X61469037Y-66788127D01*
X61451641Y-66611500D01*
X61469037Y-66434873D01*
X61520557Y-66265034D01*
X61604222Y-66108509D01*
X61668651Y-66030002D01*
X61716814Y-65971314D01*
X61822160Y-65884860D01*
X61854009Y-65858722D01*
X62010534Y-65775057D01*
X62180373Y-65723537D01*
X62246558Y-65717018D01*
X62312740Y-65710500D01*
X62401260Y-65710500D01*
X62467442Y-65717018D01*
X62467442Y-65717018D01*
G37*
G36*
X66345000Y-66472000D02*
G01*
X65354000Y-66472000D01*
X65354000Y-65481000D01*
X66345000Y-65481000D01*
X66345000Y-66472000D01*
X66345000Y-66472000D01*
G37*
G36*
X38491000Y-66156500D02*
G01*
X36389000Y-66156500D01*
X36389000Y-64554500D01*
X38491000Y-64554500D01*
X38491000Y-66156500D01*
X38491000Y-66156500D01*
G37*
G36*
X40627500Y-65392500D02*
G01*
X39128500Y-65392500D01*
X39128500Y-64274500D01*
X40627500Y-64274500D01*
X40627500Y-65392500D01*
X40627500Y-65392500D01*
G37*
G36*
X32191000Y-65006500D02*
G01*
X30089000Y-65006500D01*
X30089000Y-61104500D01*
X32191000Y-61104500D01*
X32191000Y-65006500D01*
X32191000Y-65006500D01*
G37*
G36*
X38491000Y-63856500D02*
G01*
X36389000Y-63856500D01*
X36389000Y-62254500D01*
X38491000Y-62254500D01*
X38491000Y-63856500D01*
X38491000Y-63856500D01*
G37*
G36*
X40627500Y-63614500D02*
G01*
X39128500Y-63614500D01*
X39128500Y-62496500D01*
X40627500Y-62496500D01*
X40627500Y-63614500D01*
X40627500Y-63614500D01*
G37*
G36*
X53835500Y-63297000D02*
G01*
X52844500Y-63297000D01*
X52844500Y-62306000D01*
X53835500Y-62306000D01*
X53835500Y-63297000D01*
X53835500Y-63297000D01*
G37*
G36*
X55359500Y-63297000D02*
G01*
X54368500Y-63297000D01*
X54368500Y-62306000D01*
X55359500Y-62306000D01*
X55359500Y-63297000D01*
X55359500Y-63297000D01*
G37*
G36*
X65075000Y-63297000D02*
G01*
X64084000Y-63297000D01*
X64084000Y-62306000D01*
X65075000Y-62306000D01*
X65075000Y-63297000D01*
X65075000Y-63297000D01*
G37*
G36*
X66599000Y-63297000D02*
G01*
X65608000Y-63297000D01*
X65608000Y-62306000D01*
X66599000Y-62306000D01*
X66599000Y-63297000D01*
X66599000Y-63297000D01*
G37*
G36*
X77648000Y-62027000D02*
G01*
X76657000Y-62027000D01*
X76657000Y-61036000D01*
X77648000Y-61036000D01*
X77648000Y-62027000D01*
X77648000Y-62027000D01*
G37*
G36*
X57392795Y-60187823D02*
G01*
X57399809Y-60189951D01*
X57413577Y-60197310D01*
X57436216Y-60206687D01*
X57460249Y-60211467D01*
X57484753Y-60211467D01*
X57508786Y-60206686D01*
X57531423Y-60197310D01*
X57545191Y-60189951D01*
X57552205Y-60187823D01*
X57565640Y-60186500D01*
X57879360Y-60186500D01*
X57892795Y-60187823D01*
X57899809Y-60189951D01*
X57913577Y-60197310D01*
X57936216Y-60206687D01*
X57960249Y-60211467D01*
X57984753Y-60211467D01*
X58008786Y-60206686D01*
X58031423Y-60197310D01*
X58045191Y-60189951D01*
X58052205Y-60187823D01*
X58065640Y-60186500D01*
X58379360Y-60186500D01*
X58392795Y-60187823D01*
X58399809Y-60189951D01*
X58413577Y-60197310D01*
X58436216Y-60206687D01*
X58460249Y-60211467D01*
X58484753Y-60211467D01*
X58508786Y-60206686D01*
X58531423Y-60197310D01*
X58545191Y-60189951D01*
X58552205Y-60187823D01*
X58565640Y-60186500D01*
X58879360Y-60186500D01*
X58892795Y-60187823D01*
X58899809Y-60189951D01*
X58913577Y-60197310D01*
X58936216Y-60206687D01*
X58960249Y-60211467D01*
X58984753Y-60211467D01*
X59008786Y-60206686D01*
X59031423Y-60197310D01*
X59045191Y-60189951D01*
X59052205Y-60187823D01*
X59065640Y-60186500D01*
X59379360Y-60186500D01*
X59392795Y-60187823D01*
X59399809Y-60189951D01*
X59413577Y-60197310D01*
X59436216Y-60206687D01*
X59460249Y-60211467D01*
X59484753Y-60211467D01*
X59508786Y-60206686D01*
X59531423Y-60197310D01*
X59545191Y-60189951D01*
X59552205Y-60187823D01*
X59565640Y-60186500D01*
X59879360Y-60186500D01*
X59892795Y-60187823D01*
X59899809Y-60189951D01*
X59913577Y-60197310D01*
X59936216Y-60206687D01*
X59960249Y-60211467D01*
X59984753Y-60211467D01*
X60008786Y-60206686D01*
X60031423Y-60197310D01*
X60045191Y-60189951D01*
X60052205Y-60187823D01*
X60065640Y-60186500D01*
X60379360Y-60186500D01*
X60392795Y-60187823D01*
X60399809Y-60189951D01*
X60413577Y-60197310D01*
X60436216Y-60206687D01*
X60460249Y-60211467D01*
X60484753Y-60211467D01*
X60508786Y-60206686D01*
X60531423Y-60197310D01*
X60545191Y-60189951D01*
X60552205Y-60187823D01*
X60565640Y-60186500D01*
X60879360Y-60186500D01*
X60892795Y-60187823D01*
X60899809Y-60189951D01*
X60913577Y-60197310D01*
X60936216Y-60206687D01*
X60960249Y-60211467D01*
X60984753Y-60211467D01*
X61008786Y-60206686D01*
X61031423Y-60197310D01*
X61045191Y-60189951D01*
X61052205Y-60187823D01*
X61065640Y-60186500D01*
X61379360Y-60186500D01*
X61392795Y-60187823D01*
X61399809Y-60189951D01*
X61413577Y-60197310D01*
X61436216Y-60206687D01*
X61460249Y-60211467D01*
X61484753Y-60211467D01*
X61508786Y-60206686D01*
X61531423Y-60197310D01*
X61545191Y-60189951D01*
X61552205Y-60187823D01*
X61565640Y-60186500D01*
X61879360Y-60186500D01*
X61892795Y-60187823D01*
X61899809Y-60189951D01*
X61913577Y-60197310D01*
X61936216Y-60206687D01*
X61960249Y-60211467D01*
X61984753Y-60211467D01*
X62008786Y-60206686D01*
X62031423Y-60197310D01*
X62045191Y-60189951D01*
X62052205Y-60187823D01*
X62065640Y-60186500D01*
X62379360Y-60186500D01*
X62392795Y-60187823D01*
X62399809Y-60189951D01*
X62413577Y-60197310D01*
X62436216Y-60206687D01*
X62460249Y-60211467D01*
X62484753Y-60211467D01*
X62508786Y-60206686D01*
X62531423Y-60197310D01*
X62545191Y-60189951D01*
X62552205Y-60187823D01*
X62565640Y-60186500D01*
X62879360Y-60186500D01*
X62892795Y-60187823D01*
X62899810Y-60189951D01*
X62906276Y-60193408D01*
X62911942Y-60198058D01*
X62916592Y-60203724D01*
X62920049Y-60210190D01*
X62922177Y-60217205D01*
X62923500Y-60230640D01*
X62923500Y-61719360D01*
X62922177Y-61732795D01*
X62920049Y-61739810D01*
X62916592Y-61746276D01*
X62911942Y-61751942D01*
X62906276Y-61756592D01*
X62899810Y-61760049D01*
X62892795Y-61762177D01*
X62879360Y-61763500D01*
X62565640Y-61763500D01*
X62552205Y-61762177D01*
X62545191Y-61760049D01*
X62531423Y-61752690D01*
X62508784Y-61743313D01*
X62484751Y-61738533D01*
X62460247Y-61738533D01*
X62436214Y-61743314D01*
X62413577Y-61752690D01*
X62399809Y-61760049D01*
X62392795Y-61762177D01*
X62379360Y-61763500D01*
X62065640Y-61763500D01*
X62052205Y-61762177D01*
X62045191Y-61760049D01*
X62031423Y-61752690D01*
X62008784Y-61743313D01*
X61984751Y-61738533D01*
X61960247Y-61738533D01*
X61936214Y-61743314D01*
X61913577Y-61752690D01*
X61899809Y-61760049D01*
X61892795Y-61762177D01*
X61879360Y-61763500D01*
X61565640Y-61763500D01*
X61552205Y-61762177D01*
X61545191Y-61760049D01*
X61531423Y-61752690D01*
X61508784Y-61743313D01*
X61484751Y-61738533D01*
X61460247Y-61738533D01*
X61436214Y-61743314D01*
X61413577Y-61752690D01*
X61399809Y-61760049D01*
X61392795Y-61762177D01*
X61379360Y-61763500D01*
X61065640Y-61763500D01*
X61052205Y-61762177D01*
X61045191Y-61760049D01*
X61031423Y-61752690D01*
X61008784Y-61743313D01*
X60984751Y-61738533D01*
X60960247Y-61738533D01*
X60936214Y-61743314D01*
X60913577Y-61752690D01*
X60899809Y-61760049D01*
X60892795Y-61762177D01*
X60879360Y-61763500D01*
X60565640Y-61763500D01*
X60552205Y-61762177D01*
X60545191Y-61760049D01*
X60531423Y-61752690D01*
X60508784Y-61743313D01*
X60484751Y-61738533D01*
X60460247Y-61738533D01*
X60436214Y-61743314D01*
X60413577Y-61752690D01*
X60399809Y-61760049D01*
X60392795Y-61762177D01*
X60379360Y-61763500D01*
X60065640Y-61763500D01*
X60052205Y-61762177D01*
X60045191Y-61760049D01*
X60031423Y-61752690D01*
X60008784Y-61743313D01*
X59984751Y-61738533D01*
X59960247Y-61738533D01*
X59936214Y-61743314D01*
X59913577Y-61752690D01*
X59899809Y-61760049D01*
X59892795Y-61762177D01*
X59879360Y-61763500D01*
X59565640Y-61763500D01*
X59552205Y-61762177D01*
X59545191Y-61760049D01*
X59531423Y-61752690D01*
X59508784Y-61743313D01*
X59484751Y-61738533D01*
X59460247Y-61738533D01*
X59436214Y-61743314D01*
X59413577Y-61752690D01*
X59399809Y-61760049D01*
X59392795Y-61762177D01*
X59379360Y-61763500D01*
X59065640Y-61763500D01*
X59052205Y-61762177D01*
X59045191Y-61760049D01*
X59031423Y-61752690D01*
X59008784Y-61743313D01*
X58984751Y-61738533D01*
X58960247Y-61738533D01*
X58936214Y-61743314D01*
X58913577Y-61752690D01*
X58899809Y-61760049D01*
X58892795Y-61762177D01*
X58879360Y-61763500D01*
X58565640Y-61763500D01*
X58552205Y-61762177D01*
X58545191Y-61760049D01*
X58531423Y-61752690D01*
X58508784Y-61743313D01*
X58484751Y-61738533D01*
X58460247Y-61738533D01*
X58436214Y-61743314D01*
X58413577Y-61752690D01*
X58399809Y-61760049D01*
X58392795Y-61762177D01*
X58379360Y-61763500D01*
X58065640Y-61763500D01*
X58052205Y-61762177D01*
X58045191Y-61760049D01*
X58031423Y-61752690D01*
X58008784Y-61743313D01*
X57984751Y-61738533D01*
X57960247Y-61738533D01*
X57936214Y-61743314D01*
X57913577Y-61752690D01*
X57899809Y-61760049D01*
X57892795Y-61762177D01*
X57879360Y-61763500D01*
X57565640Y-61763500D01*
X57552205Y-61762177D01*
X57545191Y-61760049D01*
X57531423Y-61752690D01*
X57508784Y-61743313D01*
X57484751Y-61738533D01*
X57460247Y-61738533D01*
X57436214Y-61743314D01*
X57413577Y-61752690D01*
X57399809Y-61760049D01*
X57392795Y-61762177D01*
X57379360Y-61763500D01*
X57065640Y-61763500D01*
X57052205Y-61762177D01*
X57045190Y-61760049D01*
X57038724Y-61756592D01*
X57033058Y-61751942D01*
X57028408Y-61746276D01*
X57024951Y-61739810D01*
X57022823Y-61732795D01*
X57021500Y-61719360D01*
X57021500Y-60230640D01*
X57022823Y-60217205D01*
X57024951Y-60210190D01*
X57028408Y-60203724D01*
X57033058Y-60198058D01*
X57038724Y-60193408D01*
X57045190Y-60189951D01*
X57052205Y-60187823D01*
X57065640Y-60186500D01*
X57379360Y-60186500D01*
X57392795Y-60187823D01*
X57392795Y-60187823D01*
G37*
G36*
X55359500Y-61646000D02*
G01*
X54368500Y-61646000D01*
X54368500Y-60655000D01*
X55359500Y-60655000D01*
X55359500Y-61646000D01*
X55359500Y-61646000D01*
G37*
G36*
X53835500Y-61646000D02*
G01*
X52844500Y-61646000D01*
X52844500Y-60655000D01*
X53835500Y-60655000D01*
X53835500Y-61646000D01*
X53835500Y-61646000D01*
G37*
G36*
X38491000Y-61556500D02*
G01*
X36389000Y-61556500D01*
X36389000Y-59954500D01*
X38491000Y-59954500D01*
X38491000Y-61556500D01*
X38491000Y-61556500D01*
G37*
G36*
X66599000Y-61519000D02*
G01*
X65608000Y-61519000D01*
X65608000Y-60528000D01*
X66599000Y-60528000D01*
X66599000Y-61519000D01*
X66599000Y-61519000D01*
G37*
G36*
X65075000Y-61519000D02*
G01*
X64084000Y-61519000D01*
X64084000Y-60528000D01*
X65075000Y-60528000D01*
X65075000Y-61519000D01*
X65075000Y-61519000D01*
G37*
G36*
X73804007Y-59323438D02*
G01*
X73933473Y-59377065D01*
X74049990Y-59454919D01*
X74149081Y-59554010D01*
X74226935Y-59670527D01*
X74280562Y-59799993D01*
X74307900Y-59937432D01*
X74307900Y-60077568D01*
X74280562Y-60215007D01*
X74226935Y-60344473D01*
X74149081Y-60460990D01*
X74049990Y-60560081D01*
X73933473Y-60637935D01*
X73804007Y-60691562D01*
X73666568Y-60718900D01*
X73526432Y-60718900D01*
X73388993Y-60691562D01*
X73259527Y-60637935D01*
X73143010Y-60560081D01*
X73043919Y-60460990D01*
X72966065Y-60344473D01*
X72912438Y-60215007D01*
X72885100Y-60077568D01*
X72885100Y-59937432D01*
X72912438Y-59799993D01*
X72966065Y-59670527D01*
X73043919Y-59554010D01*
X73143010Y-59454919D01*
X73259527Y-59377065D01*
X73388993Y-59323438D01*
X73526432Y-59296100D01*
X73666568Y-59296100D01*
X73804007Y-59323438D01*
X73804007Y-59323438D01*
G37*
G36*
X41897500Y-60630000D02*
G01*
X40906500Y-60630000D01*
X40906500Y-59639000D01*
X41897500Y-59639000D01*
X41897500Y-60630000D01*
X41897500Y-60630000D01*
G37*
G36*
X40373500Y-60630000D02*
G01*
X39382500Y-60630000D01*
X39382500Y-59639000D01*
X40373500Y-59639000D01*
X40373500Y-60630000D01*
X40373500Y-60630000D01*
G37*
G36*
X77648000Y-60503000D02*
G01*
X76657000Y-60503000D01*
X76657000Y-59512000D01*
X77648000Y-59512000D01*
X77648000Y-60503000D01*
X77648000Y-60503000D01*
G37*
G36*
X49910091Y-58977585D02*
G01*
X49944069Y-58987893D01*
X49975390Y-59004634D01*
X50002839Y-59027161D01*
X50025366Y-59054610D01*
X50042107Y-59085931D01*
X50052415Y-59119909D01*
X50056500Y-59161390D01*
X50056500Y-59837610D01*
X50052415Y-59879091D01*
X50042107Y-59913069D01*
X50025366Y-59944390D01*
X50002839Y-59971839D01*
X49975390Y-59994366D01*
X49944069Y-60011107D01*
X49910091Y-60021415D01*
X49868610Y-60025500D01*
X49267390Y-60025500D01*
X49225909Y-60021415D01*
X49191931Y-60011107D01*
X49160610Y-59994366D01*
X49133161Y-59971839D01*
X49110634Y-59944390D01*
X49093893Y-59913069D01*
X49083585Y-59879091D01*
X49079500Y-59837610D01*
X49079500Y-59161390D01*
X49083585Y-59119909D01*
X49093893Y-59085931D01*
X49110634Y-59054610D01*
X49133161Y-59027161D01*
X49160610Y-59004634D01*
X49191931Y-58987893D01*
X49225909Y-58977585D01*
X49267390Y-58973500D01*
X49868610Y-58973500D01*
X49910091Y-58977585D01*
X49910091Y-58977585D01*
G37*
G36*
X51485091Y-58977585D02*
G01*
X51519069Y-58987893D01*
X51550390Y-59004634D01*
X51577839Y-59027161D01*
X51600366Y-59054610D01*
X51617107Y-59085931D01*
X51627415Y-59119909D01*
X51631500Y-59161390D01*
X51631500Y-59837610D01*
X51627415Y-59879091D01*
X51617107Y-59913069D01*
X51600366Y-59944390D01*
X51577839Y-59971839D01*
X51550390Y-59994366D01*
X51519069Y-60011107D01*
X51485091Y-60021415D01*
X51443610Y-60025500D01*
X50842390Y-60025500D01*
X50800909Y-60021415D01*
X50766931Y-60011107D01*
X50735610Y-59994366D01*
X50708161Y-59971839D01*
X50685634Y-59944390D01*
X50668893Y-59913069D01*
X50658585Y-59879091D01*
X50654500Y-59837610D01*
X50654500Y-59161390D01*
X50658585Y-59119909D01*
X50668893Y-59085931D01*
X50685634Y-59054610D01*
X50708161Y-59027161D01*
X50735610Y-59004634D01*
X50766931Y-58987893D01*
X50800909Y-58977585D01*
X50842390Y-58973500D01*
X51443610Y-58973500D01*
X51485091Y-58977585D01*
X51485091Y-58977585D01*
G37*
G36*
X46596500Y-59995000D02*
G01*
X45605500Y-59995000D01*
X45605500Y-59004000D01*
X46596500Y-59004000D01*
X46596500Y-59995000D01*
X46596500Y-59995000D01*
G37*
G36*
X48120500Y-59995000D02*
G01*
X47129500Y-59995000D01*
X47129500Y-59004000D01*
X48120500Y-59004000D01*
X48120500Y-59995000D01*
X48120500Y-59995000D01*
G37*
G36*
X64892795Y-53862823D02*
G01*
X64899810Y-53864951D01*
X64906276Y-53868408D01*
X64911942Y-53873058D01*
X64916592Y-53878724D01*
X64920049Y-53885190D01*
X64922177Y-53892205D01*
X64923500Y-53905640D01*
X64923500Y-54219360D01*
X64922177Y-54232795D01*
X64920049Y-54239809D01*
X64912690Y-54253577D01*
X64903313Y-54276216D01*
X64898533Y-54300249D01*
X64898533Y-54324753D01*
X64903314Y-54348786D01*
X64912690Y-54371423D01*
X64920049Y-54385191D01*
X64922177Y-54392205D01*
X64923500Y-54405640D01*
X64923500Y-54719360D01*
X64922177Y-54732795D01*
X64920049Y-54739809D01*
X64912690Y-54753577D01*
X64903313Y-54776216D01*
X64898533Y-54800249D01*
X64898533Y-54824753D01*
X64903314Y-54848786D01*
X64912690Y-54871423D01*
X64920049Y-54885191D01*
X64922177Y-54892205D01*
X64923500Y-54905640D01*
X64923500Y-55219360D01*
X64922177Y-55232795D01*
X64920049Y-55239809D01*
X64912690Y-55253577D01*
X64903313Y-55276216D01*
X64898533Y-55300249D01*
X64898533Y-55324753D01*
X64903314Y-55348786D01*
X64912690Y-55371423D01*
X64920049Y-55385191D01*
X64922177Y-55392205D01*
X64923500Y-55405640D01*
X64923500Y-55719360D01*
X64922177Y-55732795D01*
X64920049Y-55739809D01*
X64912690Y-55753577D01*
X64903313Y-55776216D01*
X64898533Y-55800249D01*
X64898533Y-55824753D01*
X64903314Y-55848786D01*
X64912690Y-55871423D01*
X64920049Y-55885191D01*
X64922177Y-55892205D01*
X64923500Y-55905640D01*
X64923500Y-56219360D01*
X64922177Y-56232795D01*
X64920049Y-56239809D01*
X64912690Y-56253577D01*
X64903313Y-56276216D01*
X64898533Y-56300249D01*
X64898533Y-56324753D01*
X64903314Y-56348786D01*
X64912690Y-56371423D01*
X64920049Y-56385191D01*
X64922177Y-56392205D01*
X64923500Y-56405640D01*
X64923500Y-56719360D01*
X64922177Y-56732795D01*
X64920049Y-56739809D01*
X64912690Y-56753577D01*
X64903313Y-56776216D01*
X64898533Y-56800249D01*
X64898533Y-56824753D01*
X64903314Y-56848786D01*
X64912690Y-56871423D01*
X64920049Y-56885191D01*
X64922177Y-56892205D01*
X64923500Y-56905640D01*
X64923500Y-57219360D01*
X64922177Y-57232795D01*
X64920049Y-57239809D01*
X64912690Y-57253577D01*
X64903313Y-57276216D01*
X64898533Y-57300249D01*
X64898533Y-57324753D01*
X64903314Y-57348786D01*
X64912690Y-57371423D01*
X64920049Y-57385191D01*
X64922177Y-57392205D01*
X64923500Y-57405640D01*
X64923500Y-57719360D01*
X64922177Y-57732795D01*
X64920049Y-57739809D01*
X64912690Y-57753577D01*
X64903313Y-57776216D01*
X64898533Y-57800249D01*
X64898533Y-57824753D01*
X64903314Y-57848786D01*
X64912690Y-57871423D01*
X64920049Y-57885191D01*
X64922177Y-57892205D01*
X64923500Y-57905640D01*
X64923500Y-58219360D01*
X64922177Y-58232795D01*
X64920049Y-58239809D01*
X64912690Y-58253577D01*
X64903313Y-58276216D01*
X64898533Y-58300249D01*
X64898533Y-58324753D01*
X64903314Y-58348786D01*
X64912690Y-58371423D01*
X64920049Y-58385191D01*
X64922177Y-58392205D01*
X64923500Y-58405640D01*
X64923500Y-58719360D01*
X64922177Y-58732795D01*
X64920049Y-58739809D01*
X64912690Y-58753577D01*
X64903313Y-58776216D01*
X64898533Y-58800249D01*
X64898533Y-58824753D01*
X64903314Y-58848786D01*
X64912690Y-58871423D01*
X64920049Y-58885191D01*
X64922177Y-58892205D01*
X64923500Y-58905640D01*
X64923500Y-59219360D01*
X64922177Y-59232795D01*
X64920049Y-59239809D01*
X64912690Y-59253577D01*
X64903313Y-59276216D01*
X64898533Y-59300249D01*
X64898533Y-59324753D01*
X64903314Y-59348786D01*
X64912690Y-59371423D01*
X64920049Y-59385191D01*
X64922177Y-59392205D01*
X64923500Y-59405640D01*
X64923500Y-59719360D01*
X64922177Y-59732795D01*
X64920049Y-59739810D01*
X64916592Y-59746276D01*
X64911942Y-59751942D01*
X64906276Y-59756592D01*
X64899810Y-59760049D01*
X64892795Y-59762177D01*
X64879360Y-59763500D01*
X63390640Y-59763500D01*
X63377205Y-59762177D01*
X63370190Y-59760049D01*
X63363724Y-59756592D01*
X63358058Y-59751942D01*
X63353408Y-59746276D01*
X63349951Y-59739810D01*
X63347823Y-59732795D01*
X63346500Y-59719360D01*
X63346500Y-59405640D01*
X63347823Y-59392205D01*
X63349951Y-59385191D01*
X63357310Y-59371423D01*
X63366687Y-59348784D01*
X63371467Y-59324751D01*
X63371467Y-59300247D01*
X63366686Y-59276214D01*
X63357310Y-59253577D01*
X63349951Y-59239809D01*
X63347823Y-59232795D01*
X63346500Y-59219360D01*
X63346500Y-58905640D01*
X63347823Y-58892205D01*
X63349951Y-58885191D01*
X63357310Y-58871423D01*
X63366687Y-58848784D01*
X63371467Y-58824751D01*
X63371467Y-58800247D01*
X63366686Y-58776214D01*
X63357310Y-58753577D01*
X63349951Y-58739809D01*
X63347823Y-58732795D01*
X63346500Y-58719360D01*
X63346500Y-58405640D01*
X63347823Y-58392205D01*
X63349951Y-58385191D01*
X63357310Y-58371423D01*
X63366687Y-58348784D01*
X63371467Y-58324751D01*
X63371467Y-58300247D01*
X63366686Y-58276214D01*
X63357310Y-58253577D01*
X63349951Y-58239809D01*
X63347823Y-58232795D01*
X63346500Y-58219360D01*
X63346500Y-57905640D01*
X63347823Y-57892205D01*
X63349951Y-57885191D01*
X63357310Y-57871423D01*
X63366687Y-57848784D01*
X63371467Y-57824751D01*
X63371467Y-57800247D01*
X63366686Y-57776214D01*
X63357310Y-57753577D01*
X63349951Y-57739809D01*
X63347823Y-57732795D01*
X63346500Y-57719360D01*
X63346500Y-57405640D01*
X63347823Y-57392205D01*
X63349951Y-57385191D01*
X63357310Y-57371423D01*
X63366687Y-57348784D01*
X63371467Y-57324751D01*
X63371467Y-57300247D01*
X63366686Y-57276214D01*
X63357310Y-57253577D01*
X63349951Y-57239809D01*
X63347823Y-57232795D01*
X63346500Y-57219360D01*
X63346500Y-56905640D01*
X63347823Y-56892205D01*
X63349951Y-56885191D01*
X63357310Y-56871423D01*
X63366687Y-56848784D01*
X63371467Y-56824751D01*
X63371467Y-56800247D01*
X63366686Y-56776214D01*
X63357310Y-56753577D01*
X63349951Y-56739809D01*
X63347823Y-56732795D01*
X63346500Y-56719360D01*
X63346500Y-56405640D01*
X63347823Y-56392205D01*
X63349951Y-56385191D01*
X63357310Y-56371423D01*
X63366687Y-56348784D01*
X63371467Y-56324751D01*
X63371467Y-56300247D01*
X63366686Y-56276214D01*
X63357310Y-56253577D01*
X63349951Y-56239809D01*
X63347823Y-56232795D01*
X63346500Y-56219360D01*
X63346500Y-55905640D01*
X63347823Y-55892205D01*
X63349951Y-55885191D01*
X63357310Y-55871423D01*
X63366687Y-55848784D01*
X63371467Y-55824751D01*
X63371467Y-55800247D01*
X63366686Y-55776214D01*
X63357310Y-55753577D01*
X63349951Y-55739809D01*
X63347823Y-55732795D01*
X63346500Y-55719360D01*
X63346500Y-55405640D01*
X63347823Y-55392205D01*
X63349951Y-55385191D01*
X63357310Y-55371423D01*
X63366687Y-55348784D01*
X63371467Y-55324751D01*
X63371467Y-55300247D01*
X63366686Y-55276214D01*
X63357310Y-55253577D01*
X63349951Y-55239809D01*
X63347823Y-55232795D01*
X63346500Y-55219360D01*
X63346500Y-54905640D01*
X63347823Y-54892205D01*
X63349951Y-54885191D01*
X63357310Y-54871423D01*
X63366687Y-54848784D01*
X63371467Y-54824751D01*
X63371467Y-54800247D01*
X63366686Y-54776214D01*
X63357310Y-54753577D01*
X63349951Y-54739809D01*
X63347823Y-54732795D01*
X63346500Y-54719360D01*
X63346500Y-54405640D01*
X63347823Y-54392205D01*
X63349951Y-54385191D01*
X63357310Y-54371423D01*
X63366687Y-54348784D01*
X63371467Y-54324751D01*
X63371467Y-54300247D01*
X63366686Y-54276214D01*
X63357310Y-54253577D01*
X63349951Y-54239809D01*
X63347823Y-54232795D01*
X63346500Y-54219360D01*
X63346500Y-53905640D01*
X63347823Y-53892205D01*
X63349951Y-53885190D01*
X63353408Y-53878724D01*
X63358058Y-53873058D01*
X63363724Y-53868408D01*
X63370190Y-53864951D01*
X63377205Y-53862823D01*
X63390640Y-53861500D01*
X64879360Y-53861500D01*
X64892795Y-53862823D01*
X64892795Y-53862823D01*
G37*
G36*
X56567795Y-53862823D02*
G01*
X56574810Y-53864951D01*
X56581276Y-53868408D01*
X56586942Y-53873058D01*
X56591592Y-53878724D01*
X56595049Y-53885190D01*
X56597177Y-53892205D01*
X56598500Y-53905640D01*
X56598500Y-54219360D01*
X56597177Y-54232795D01*
X56595049Y-54239809D01*
X56587690Y-54253577D01*
X56578313Y-54276216D01*
X56573533Y-54300249D01*
X56573533Y-54324753D01*
X56578314Y-54348786D01*
X56587690Y-54371423D01*
X56595049Y-54385191D01*
X56597177Y-54392205D01*
X56598500Y-54405640D01*
X56598500Y-54719360D01*
X56597177Y-54732795D01*
X56595049Y-54739809D01*
X56587690Y-54753577D01*
X56578313Y-54776216D01*
X56573533Y-54800249D01*
X56573533Y-54824753D01*
X56578314Y-54848786D01*
X56587690Y-54871423D01*
X56595049Y-54885191D01*
X56597177Y-54892205D01*
X56598500Y-54905640D01*
X56598500Y-55219360D01*
X56597177Y-55232795D01*
X56595049Y-55239809D01*
X56587690Y-55253577D01*
X56578313Y-55276216D01*
X56573533Y-55300249D01*
X56573533Y-55324753D01*
X56578314Y-55348786D01*
X56587690Y-55371423D01*
X56595049Y-55385191D01*
X56597177Y-55392205D01*
X56598500Y-55405640D01*
X56598500Y-55719360D01*
X56597177Y-55732795D01*
X56595049Y-55739809D01*
X56587690Y-55753577D01*
X56578313Y-55776216D01*
X56573533Y-55800249D01*
X56573533Y-55824753D01*
X56578314Y-55848786D01*
X56587690Y-55871423D01*
X56595049Y-55885191D01*
X56597177Y-55892205D01*
X56598500Y-55905640D01*
X56598500Y-56219360D01*
X56597177Y-56232795D01*
X56595049Y-56239809D01*
X56587690Y-56253577D01*
X56578313Y-56276216D01*
X56573533Y-56300249D01*
X56573533Y-56324753D01*
X56578314Y-56348786D01*
X56587690Y-56371423D01*
X56595049Y-56385191D01*
X56597177Y-56392205D01*
X56598500Y-56405640D01*
X56598500Y-56719360D01*
X56597177Y-56732795D01*
X56595049Y-56739809D01*
X56587690Y-56753577D01*
X56578313Y-56776216D01*
X56573533Y-56800249D01*
X56573533Y-56824753D01*
X56578314Y-56848786D01*
X56587690Y-56871423D01*
X56595049Y-56885191D01*
X56597177Y-56892205D01*
X56598500Y-56905640D01*
X56598500Y-57219360D01*
X56597177Y-57232795D01*
X56595049Y-57239809D01*
X56587690Y-57253577D01*
X56578313Y-57276216D01*
X56573533Y-57300249D01*
X56573533Y-57324753D01*
X56578314Y-57348786D01*
X56587690Y-57371423D01*
X56595049Y-57385191D01*
X56597177Y-57392205D01*
X56598500Y-57405640D01*
X56598500Y-57719360D01*
X56597177Y-57732795D01*
X56595049Y-57739809D01*
X56587690Y-57753577D01*
X56578313Y-57776216D01*
X56573533Y-57800249D01*
X56573533Y-57824753D01*
X56578314Y-57848786D01*
X56587690Y-57871423D01*
X56595049Y-57885191D01*
X56597177Y-57892205D01*
X56598500Y-57905640D01*
X56598500Y-58219360D01*
X56597177Y-58232795D01*
X56595049Y-58239809D01*
X56587690Y-58253577D01*
X56578313Y-58276216D01*
X56573533Y-58300249D01*
X56573533Y-58324753D01*
X56578314Y-58348786D01*
X56587690Y-58371423D01*
X56595049Y-58385191D01*
X56597177Y-58392205D01*
X56598500Y-58405640D01*
X56598500Y-58719360D01*
X56597177Y-58732795D01*
X56595049Y-58739809D01*
X56587690Y-58753577D01*
X56578313Y-58776216D01*
X56573533Y-58800249D01*
X56573533Y-58824753D01*
X56578314Y-58848786D01*
X56587690Y-58871423D01*
X56595049Y-58885191D01*
X56597177Y-58892205D01*
X56598500Y-58905640D01*
X56598500Y-59219360D01*
X56597177Y-59232795D01*
X56595049Y-59239809D01*
X56587690Y-59253577D01*
X56578313Y-59276216D01*
X56573533Y-59300249D01*
X56573533Y-59324753D01*
X56578314Y-59348786D01*
X56587690Y-59371423D01*
X56595049Y-59385191D01*
X56597177Y-59392205D01*
X56598500Y-59405640D01*
X56598500Y-59719360D01*
X56597177Y-59732795D01*
X56595049Y-59739810D01*
X56591592Y-59746276D01*
X56586942Y-59751942D01*
X56581276Y-59756592D01*
X56574810Y-59760049D01*
X56567795Y-59762177D01*
X56554360Y-59763500D01*
X55065640Y-59763500D01*
X55052205Y-59762177D01*
X55045190Y-59760049D01*
X55038724Y-59756592D01*
X55033058Y-59751942D01*
X55028408Y-59746276D01*
X55024951Y-59739810D01*
X55022823Y-59732795D01*
X55021500Y-59719360D01*
X55021500Y-59405640D01*
X55022823Y-59392205D01*
X55024951Y-59385191D01*
X55032310Y-59371423D01*
X55041687Y-59348784D01*
X55046467Y-59324751D01*
X55046467Y-59300247D01*
X55041686Y-59276214D01*
X55032310Y-59253577D01*
X55024951Y-59239809D01*
X55022823Y-59232795D01*
X55021500Y-59219360D01*
X55021500Y-58905640D01*
X55022823Y-58892205D01*
X55024951Y-58885191D01*
X55032310Y-58871423D01*
X55041687Y-58848784D01*
X55046467Y-58824751D01*
X55046467Y-58800247D01*
X55041686Y-58776214D01*
X55032310Y-58753577D01*
X55024951Y-58739809D01*
X55022823Y-58732795D01*
X55021500Y-58719360D01*
X55021500Y-58405640D01*
X55022823Y-58392205D01*
X55024951Y-58385191D01*
X55032310Y-58371423D01*
X55041687Y-58348784D01*
X55046467Y-58324751D01*
X55046467Y-58300247D01*
X55041686Y-58276214D01*
X55032310Y-58253577D01*
X55024951Y-58239809D01*
X55022823Y-58232795D01*
X55021500Y-58219360D01*
X55021500Y-57905640D01*
X55022823Y-57892205D01*
X55024951Y-57885191D01*
X55032310Y-57871423D01*
X55041687Y-57848784D01*
X55046467Y-57824751D01*
X55046467Y-57800247D01*
X55041686Y-57776214D01*
X55032310Y-57753577D01*
X55024951Y-57739809D01*
X55022823Y-57732795D01*
X55021500Y-57719360D01*
X55021500Y-57405640D01*
X55022823Y-57392205D01*
X55024951Y-57385191D01*
X55032310Y-57371423D01*
X55041687Y-57348784D01*
X55046467Y-57324751D01*
X55046467Y-57300247D01*
X55041686Y-57276214D01*
X55032310Y-57253577D01*
X55024951Y-57239809D01*
X55022823Y-57232795D01*
X55021500Y-57219360D01*
X55021500Y-56905640D01*
X55022823Y-56892205D01*
X55024951Y-56885191D01*
X55032310Y-56871423D01*
X55041687Y-56848784D01*
X55046467Y-56824751D01*
X55046467Y-56800247D01*
X55041686Y-56776214D01*
X55032310Y-56753577D01*
X55024951Y-56739809D01*
X55022823Y-56732795D01*
X55021500Y-56719360D01*
X55021500Y-56405640D01*
X55022823Y-56392205D01*
X55024951Y-56385191D01*
X55032310Y-56371423D01*
X55041687Y-56348784D01*
X55046467Y-56324751D01*
X55046467Y-56300247D01*
X55041686Y-56276214D01*
X55032310Y-56253577D01*
X55024951Y-56239809D01*
X55022823Y-56232795D01*
X55021500Y-56219360D01*
X55021500Y-55905640D01*
X55022823Y-55892205D01*
X55024951Y-55885191D01*
X55032310Y-55871423D01*
X55041687Y-55848784D01*
X55046467Y-55824751D01*
X55046467Y-55800247D01*
X55041686Y-55776214D01*
X55032310Y-55753577D01*
X55024951Y-55739809D01*
X55022823Y-55732795D01*
X55021500Y-55719360D01*
X55021500Y-55405640D01*
X55022823Y-55392205D01*
X55024951Y-55385191D01*
X55032310Y-55371423D01*
X55041687Y-55348784D01*
X55046467Y-55324751D01*
X55046467Y-55300247D01*
X55041686Y-55276214D01*
X55032310Y-55253577D01*
X55024951Y-55239809D01*
X55022823Y-55232795D01*
X55021500Y-55219360D01*
X55021500Y-54905640D01*
X55022823Y-54892205D01*
X55024951Y-54885191D01*
X55032310Y-54871423D01*
X55041687Y-54848784D01*
X55046467Y-54824751D01*
X55046467Y-54800247D01*
X55041686Y-54776214D01*
X55032310Y-54753577D01*
X55024951Y-54739809D01*
X55022823Y-54732795D01*
X55021500Y-54719360D01*
X55021500Y-54405640D01*
X55022823Y-54392205D01*
X55024951Y-54385191D01*
X55032310Y-54371423D01*
X55041687Y-54348784D01*
X55046467Y-54324751D01*
X55046467Y-54300247D01*
X55041686Y-54276214D01*
X55032310Y-54253577D01*
X55024951Y-54239809D01*
X55022823Y-54232795D01*
X55021500Y-54219360D01*
X55021500Y-53905640D01*
X55022823Y-53892205D01*
X55024951Y-53885190D01*
X55028408Y-53878724D01*
X55033058Y-53873058D01*
X55038724Y-53868408D01*
X55045190Y-53864951D01*
X55052205Y-53862823D01*
X55065640Y-53861500D01*
X56554360Y-53861500D01*
X56567795Y-53862823D01*
X56567795Y-53862823D01*
G37*
G36*
X51485091Y-57199585D02*
G01*
X51519069Y-57209893D01*
X51550390Y-57226634D01*
X51577839Y-57249161D01*
X51600366Y-57276610D01*
X51617107Y-57307931D01*
X51627415Y-57341909D01*
X51631500Y-57383390D01*
X51631500Y-58059610D01*
X51627415Y-58101091D01*
X51617107Y-58135069D01*
X51600366Y-58166390D01*
X51577839Y-58193839D01*
X51550390Y-58216366D01*
X51519069Y-58233107D01*
X51485091Y-58243415D01*
X51443610Y-58247500D01*
X50842390Y-58247500D01*
X50800909Y-58243415D01*
X50766931Y-58233107D01*
X50735610Y-58216366D01*
X50708161Y-58193839D01*
X50685634Y-58166390D01*
X50668893Y-58135069D01*
X50658585Y-58101091D01*
X50654500Y-58059610D01*
X50654500Y-57383390D01*
X50658585Y-57341909D01*
X50668893Y-57307931D01*
X50685634Y-57276610D01*
X50708161Y-57249161D01*
X50735610Y-57226634D01*
X50766931Y-57209893D01*
X50800909Y-57199585D01*
X50842390Y-57195500D01*
X51443610Y-57195500D01*
X51485091Y-57199585D01*
X51485091Y-57199585D01*
G37*
G36*
X49910091Y-57199585D02*
G01*
X49944069Y-57209893D01*
X49975390Y-57226634D01*
X50002839Y-57249161D01*
X50025366Y-57276610D01*
X50042107Y-57307931D01*
X50052415Y-57341909D01*
X50056500Y-57383390D01*
X50056500Y-58059610D01*
X50052415Y-58101091D01*
X50042107Y-58135069D01*
X50025366Y-58166390D01*
X50002839Y-58193839D01*
X49975390Y-58216366D01*
X49944069Y-58233107D01*
X49910091Y-58243415D01*
X49868610Y-58247500D01*
X49267390Y-58247500D01*
X49225909Y-58243415D01*
X49191931Y-58233107D01*
X49160610Y-58216366D01*
X49133161Y-58193839D01*
X49110634Y-58166390D01*
X49093893Y-58135069D01*
X49083585Y-58101091D01*
X49079500Y-58059610D01*
X49079500Y-57383390D01*
X49083585Y-57341909D01*
X49093893Y-57307931D01*
X49110634Y-57276610D01*
X49133161Y-57249161D01*
X49160610Y-57226634D01*
X49191931Y-57209893D01*
X49225909Y-57199585D01*
X49267390Y-57195500D01*
X49868610Y-57195500D01*
X49910091Y-57199585D01*
X49910091Y-57199585D01*
G37*
G36*
X46596500Y-58217000D02*
G01*
X45605500Y-58217000D01*
X45605500Y-57226000D01*
X46596500Y-57226000D01*
X46596500Y-58217000D01*
X46596500Y-58217000D01*
G37*
G36*
X48120500Y-58217000D02*
G01*
X47129500Y-58217000D01*
X47129500Y-57226000D01*
X48120500Y-57226000D01*
X48120500Y-58217000D01*
X48120500Y-58217000D01*
G37*
G36*
X36309500Y-58026500D02*
G01*
X35318500Y-58026500D01*
X35318500Y-57035500D01*
X36309500Y-57035500D01*
X36309500Y-58026500D01*
X36309500Y-58026500D01*
G37*
G36*
X37833500Y-58026500D02*
G01*
X36842500Y-58026500D01*
X36842500Y-57035500D01*
X37833500Y-57035500D01*
X37833500Y-58026500D01*
X37833500Y-58026500D01*
G37*
G36*
X41897500Y-57963000D02*
G01*
X40906500Y-57963000D01*
X40906500Y-56972000D01*
X41897500Y-56972000D01*
X41897500Y-57963000D01*
X41897500Y-57963000D01*
G37*
G36*
X43612000Y-57899500D02*
G01*
X42621000Y-57899500D01*
X42621000Y-56908500D01*
X43612000Y-56908500D01*
X43612000Y-57899500D01*
X43612000Y-57899500D01*
G37*
G36*
X32170000Y-57462000D02*
G01*
X30568000Y-57462000D01*
X30568000Y-55060000D01*
X32170000Y-55060000D01*
X32170000Y-57462000D01*
X32170000Y-57462000D01*
G37*
G36*
X41897500Y-56439000D02*
G01*
X40906500Y-56439000D01*
X40906500Y-55448000D01*
X41897500Y-55448000D01*
X41897500Y-56439000D01*
X41897500Y-56439000D01*
G37*
G36*
X51485091Y-55358085D02*
G01*
X51519069Y-55368393D01*
X51550390Y-55385134D01*
X51577839Y-55407661D01*
X51600366Y-55435110D01*
X51617107Y-55466431D01*
X51627415Y-55500409D01*
X51631500Y-55541890D01*
X51631500Y-56218110D01*
X51627415Y-56259591D01*
X51617107Y-56293569D01*
X51600366Y-56324890D01*
X51577839Y-56352339D01*
X51550390Y-56374866D01*
X51519069Y-56391607D01*
X51485091Y-56401915D01*
X51443610Y-56406000D01*
X50842390Y-56406000D01*
X50800909Y-56401915D01*
X50766931Y-56391607D01*
X50735610Y-56374866D01*
X50708161Y-56352339D01*
X50685634Y-56324890D01*
X50668893Y-56293569D01*
X50658585Y-56259591D01*
X50654500Y-56218110D01*
X50654500Y-55541890D01*
X50658585Y-55500409D01*
X50668893Y-55466431D01*
X50685634Y-55435110D01*
X50708161Y-55407661D01*
X50735610Y-55385134D01*
X50766931Y-55368393D01*
X50800909Y-55358085D01*
X50842390Y-55354000D01*
X51443610Y-55354000D01*
X51485091Y-55358085D01*
X51485091Y-55358085D01*
G37*
G36*
X49910091Y-55358085D02*
G01*
X49944069Y-55368393D01*
X49975390Y-55385134D01*
X50002839Y-55407661D01*
X50025366Y-55435110D01*
X50042107Y-55466431D01*
X50052415Y-55500409D01*
X50056500Y-55541890D01*
X50056500Y-56218110D01*
X50052415Y-56259591D01*
X50042107Y-56293569D01*
X50025366Y-56324890D01*
X50002839Y-56352339D01*
X49975390Y-56374866D01*
X49944069Y-56391607D01*
X49910091Y-56401915D01*
X49868610Y-56406000D01*
X49267390Y-56406000D01*
X49225909Y-56401915D01*
X49191931Y-56391607D01*
X49160610Y-56374866D01*
X49133161Y-56352339D01*
X49110634Y-56324890D01*
X49093893Y-56293569D01*
X49083585Y-56259591D01*
X49079500Y-56218110D01*
X49079500Y-55541890D01*
X49083585Y-55500409D01*
X49093893Y-55466431D01*
X49110634Y-55435110D01*
X49133161Y-55407661D01*
X49160610Y-55385134D01*
X49191931Y-55368393D01*
X49225909Y-55358085D01*
X49267390Y-55354000D01*
X49868610Y-55354000D01*
X49910091Y-55358085D01*
X49910091Y-55358085D01*
G37*
G36*
X43612000Y-56375500D02*
G01*
X42621000Y-56375500D01*
X42621000Y-55384500D01*
X43612000Y-55384500D01*
X43612000Y-56375500D01*
X43612000Y-56375500D01*
G37*
G36*
X48120500Y-56375500D02*
G01*
X47129500Y-56375500D01*
X47129500Y-55384500D01*
X48120500Y-55384500D01*
X48120500Y-56375500D01*
X48120500Y-56375500D01*
G37*
G36*
X46596500Y-56375500D02*
G01*
X45605500Y-56375500D01*
X45605500Y-55384500D01*
X46596500Y-55384500D01*
X46596500Y-56375500D01*
X46596500Y-56375500D01*
G37*
G36*
X73804007Y-54497438D02*
G01*
X73933473Y-54551065D01*
X74049990Y-54628919D01*
X74149081Y-54728010D01*
X74226935Y-54844527D01*
X74280562Y-54973993D01*
X74307900Y-55111432D01*
X74307900Y-55251568D01*
X74280562Y-55389007D01*
X74226935Y-55518473D01*
X74149081Y-55634990D01*
X74049990Y-55734081D01*
X73933473Y-55811935D01*
X73804007Y-55865562D01*
X73666568Y-55892900D01*
X73526432Y-55892900D01*
X73388993Y-55865562D01*
X73259527Y-55811935D01*
X73143010Y-55734081D01*
X73043919Y-55634990D01*
X72966065Y-55518473D01*
X72912438Y-55389007D01*
X72885100Y-55251568D01*
X72885100Y-55111432D01*
X72912438Y-54973993D01*
X72966065Y-54844527D01*
X73043919Y-54728010D01*
X73143010Y-54628919D01*
X73259527Y-54551065D01*
X73388993Y-54497438D01*
X73526432Y-54470100D01*
X73666568Y-54470100D01*
X73804007Y-54497438D01*
X73804007Y-54497438D01*
G37*
G36*
X66599000Y-55677000D02*
G01*
X65608000Y-55677000D01*
X65608000Y-54686000D01*
X66599000Y-54686000D01*
X66599000Y-55677000D01*
X66599000Y-55677000D01*
G37*
G36*
X68250000Y-55677000D02*
G01*
X67259000Y-55677000D01*
X67259000Y-54686000D01*
X68250000Y-54686000D01*
X68250000Y-55677000D01*
X68250000Y-55677000D01*
G37*
G36*
X77648000Y-55677000D02*
G01*
X76657000Y-55677000D01*
X76657000Y-54686000D01*
X77648000Y-54686000D01*
X77648000Y-55677000D01*
X77648000Y-55677000D01*
G37*
G36*
X69964500Y-55677000D02*
G01*
X68973500Y-55677000D01*
X68973500Y-54686000D01*
X69964500Y-54686000D01*
X69964500Y-55677000D01*
X69964500Y-55677000D01*
G37*
G36*
X51485091Y-53516585D02*
G01*
X51519069Y-53526893D01*
X51550390Y-53543634D01*
X51577839Y-53566161D01*
X51600366Y-53593610D01*
X51617107Y-53624931D01*
X51627415Y-53658909D01*
X51631500Y-53700390D01*
X51631500Y-54376610D01*
X51627415Y-54418091D01*
X51617107Y-54452069D01*
X51600366Y-54483390D01*
X51577839Y-54510839D01*
X51550390Y-54533366D01*
X51519069Y-54550107D01*
X51485091Y-54560415D01*
X51443610Y-54564500D01*
X50842390Y-54564500D01*
X50800909Y-54560415D01*
X50766931Y-54550107D01*
X50735610Y-54533366D01*
X50708161Y-54510839D01*
X50685634Y-54483390D01*
X50668893Y-54452069D01*
X50658585Y-54418091D01*
X50654500Y-54376610D01*
X50654500Y-53700390D01*
X50658585Y-53658909D01*
X50668893Y-53624931D01*
X50685634Y-53593610D01*
X50708161Y-53566161D01*
X50735610Y-53543634D01*
X50766931Y-53526893D01*
X50800909Y-53516585D01*
X50842390Y-53512500D01*
X51443610Y-53512500D01*
X51485091Y-53516585D01*
X51485091Y-53516585D01*
G37*
G36*
X49910091Y-53516585D02*
G01*
X49944069Y-53526893D01*
X49975390Y-53543634D01*
X50002839Y-53566161D01*
X50025366Y-53593610D01*
X50042107Y-53624931D01*
X50052415Y-53658909D01*
X50056500Y-53700390D01*
X50056500Y-54376610D01*
X50052415Y-54418091D01*
X50042107Y-54452069D01*
X50025366Y-54483390D01*
X50002839Y-54510839D01*
X49975390Y-54533366D01*
X49944069Y-54550107D01*
X49910091Y-54560415D01*
X49868610Y-54564500D01*
X49267390Y-54564500D01*
X49225909Y-54560415D01*
X49191931Y-54550107D01*
X49160610Y-54533366D01*
X49133161Y-54510839D01*
X49110634Y-54483390D01*
X49093893Y-54452069D01*
X49083585Y-54418091D01*
X49079500Y-54376610D01*
X49079500Y-53700390D01*
X49083585Y-53658909D01*
X49093893Y-53624931D01*
X49110634Y-53593610D01*
X49133161Y-53566161D01*
X49160610Y-53543634D01*
X49191931Y-53526893D01*
X49225909Y-53516585D01*
X49267390Y-53512500D01*
X49868610Y-53512500D01*
X49910091Y-53516585D01*
X49910091Y-53516585D01*
G37*
G36*
X48120500Y-54534000D02*
G01*
X47129500Y-54534000D01*
X47129500Y-53543000D01*
X48120500Y-53543000D01*
X48120500Y-54534000D01*
X48120500Y-54534000D01*
G37*
G36*
X46596500Y-54534000D02*
G01*
X45605500Y-54534000D01*
X45605500Y-53543000D01*
X46596500Y-53543000D01*
X46596500Y-54534000D01*
X46596500Y-54534000D01*
G37*
G36*
X77648000Y-54153000D02*
G01*
X76657000Y-54153000D01*
X76657000Y-53162000D01*
X77648000Y-53162000D01*
X77648000Y-54153000D01*
X77648000Y-54153000D01*
G37*
G36*
X66599000Y-54153000D02*
G01*
X65608000Y-54153000D01*
X65608000Y-53162000D01*
X66599000Y-53162000D01*
X66599000Y-54153000D01*
X66599000Y-54153000D01*
G37*
G36*
X69964500Y-54153000D02*
G01*
X68973500Y-54153000D01*
X68973500Y-53162000D01*
X69964500Y-53162000D01*
X69964500Y-54153000D01*
X69964500Y-54153000D01*
G37*
G36*
X68250000Y-54153000D02*
G01*
X67259000Y-54153000D01*
X67259000Y-53162000D01*
X68250000Y-53162000D01*
X68250000Y-54153000D01*
X68250000Y-54153000D01*
G37*
G36*
X31418385Y-52677617D02*
G01*
X31451979Y-52680926D01*
X31527894Y-52703954D01*
X31581295Y-52720153D01*
X31700464Y-52783851D01*
X31804923Y-52869577D01*
X31890649Y-52974036D01*
X31954347Y-53093205D01*
X31954348Y-53093209D01*
X31993574Y-53222521D01*
X32006819Y-53357000D01*
X31993574Y-53491479D01*
X31977945Y-53543000D01*
X31954347Y-53620795D01*
X31890649Y-53739964D01*
X31804923Y-53844423D01*
X31700464Y-53930149D01*
X31581295Y-53993847D01*
X31527894Y-54010046D01*
X31451979Y-54033074D01*
X31418385Y-54036383D01*
X31351200Y-54043000D01*
X30013800Y-54043000D01*
X29946615Y-54036383D01*
X29913021Y-54033074D01*
X29837106Y-54010046D01*
X29783705Y-53993847D01*
X29664536Y-53930149D01*
X29560077Y-53844423D01*
X29474351Y-53739964D01*
X29410653Y-53620795D01*
X29387055Y-53543000D01*
X29371426Y-53491479D01*
X29358181Y-53357000D01*
X29371426Y-53222521D01*
X29410652Y-53093209D01*
X29410653Y-53093205D01*
X29474351Y-52974036D01*
X29560077Y-52869577D01*
X29664536Y-52783851D01*
X29783705Y-52720153D01*
X29837106Y-52703954D01*
X29913021Y-52680926D01*
X29946615Y-52677617D01*
X30013800Y-52671000D01*
X31351200Y-52671000D01*
X31418385Y-52677617D01*
X31418385Y-52677617D01*
G37*
G36*
X36168385Y-52677617D02*
G01*
X36201979Y-52680926D01*
X36277894Y-52703954D01*
X36331295Y-52720153D01*
X36450464Y-52783851D01*
X36554923Y-52869577D01*
X36640649Y-52974036D01*
X36704347Y-53093205D01*
X36704348Y-53093209D01*
X36743574Y-53222521D01*
X36756819Y-53357000D01*
X36743574Y-53491479D01*
X36727945Y-53543000D01*
X36704347Y-53620795D01*
X36640649Y-53739964D01*
X36554923Y-53844423D01*
X36450464Y-53930149D01*
X36331295Y-53993847D01*
X36277894Y-54010046D01*
X36201979Y-54033074D01*
X36168385Y-54036383D01*
X36101200Y-54043000D01*
X34763800Y-54043000D01*
X34696615Y-54036383D01*
X34663021Y-54033074D01*
X34587106Y-54010046D01*
X34533705Y-53993847D01*
X34414536Y-53930149D01*
X34310077Y-53844423D01*
X34224351Y-53739964D01*
X34160653Y-53620795D01*
X34137055Y-53543000D01*
X34121426Y-53491479D01*
X34108181Y-53357000D01*
X34121426Y-53222521D01*
X34160652Y-53093209D01*
X34160653Y-53093205D01*
X34224351Y-52974036D01*
X34310077Y-52869577D01*
X34414536Y-52783851D01*
X34533705Y-52720153D01*
X34587106Y-52703954D01*
X34663021Y-52680926D01*
X34696615Y-52677617D01*
X34763800Y-52671000D01*
X36101200Y-52671000D01*
X36168385Y-52677617D01*
X36168385Y-52677617D01*
G37*
G36*
X57392795Y-51862823D02*
G01*
X57399809Y-51864951D01*
X57413577Y-51872310D01*
X57436216Y-51881687D01*
X57460249Y-51886467D01*
X57484753Y-51886467D01*
X57508786Y-51881686D01*
X57531423Y-51872310D01*
X57545191Y-51864951D01*
X57552205Y-51862823D01*
X57565640Y-51861500D01*
X57879360Y-51861500D01*
X57892795Y-51862823D01*
X57899809Y-51864951D01*
X57913577Y-51872310D01*
X57936216Y-51881687D01*
X57960249Y-51886467D01*
X57984753Y-51886467D01*
X58008786Y-51881686D01*
X58031423Y-51872310D01*
X58045191Y-51864951D01*
X58052205Y-51862823D01*
X58065640Y-51861500D01*
X58379360Y-51861500D01*
X58392795Y-51862823D01*
X58399809Y-51864951D01*
X58413577Y-51872310D01*
X58436216Y-51881687D01*
X58460249Y-51886467D01*
X58484753Y-51886467D01*
X58508786Y-51881686D01*
X58531423Y-51872310D01*
X58545191Y-51864951D01*
X58552205Y-51862823D01*
X58565640Y-51861500D01*
X58879360Y-51861500D01*
X58892795Y-51862823D01*
X58899809Y-51864951D01*
X58913577Y-51872310D01*
X58936216Y-51881687D01*
X58960249Y-51886467D01*
X58984753Y-51886467D01*
X59008786Y-51881686D01*
X59031423Y-51872310D01*
X59045191Y-51864951D01*
X59052205Y-51862823D01*
X59065640Y-51861500D01*
X59379360Y-51861500D01*
X59392795Y-51862823D01*
X59399809Y-51864951D01*
X59413577Y-51872310D01*
X59436216Y-51881687D01*
X59460249Y-51886467D01*
X59484753Y-51886467D01*
X59508786Y-51881686D01*
X59531423Y-51872310D01*
X59545191Y-51864951D01*
X59552205Y-51862823D01*
X59565640Y-51861500D01*
X59879360Y-51861500D01*
X59892795Y-51862823D01*
X59899809Y-51864951D01*
X59913577Y-51872310D01*
X59936216Y-51881687D01*
X59960249Y-51886467D01*
X59984753Y-51886467D01*
X60008786Y-51881686D01*
X60031423Y-51872310D01*
X60045191Y-51864951D01*
X60052205Y-51862823D01*
X60065640Y-51861500D01*
X60379360Y-51861500D01*
X60392795Y-51862823D01*
X60399809Y-51864951D01*
X60413577Y-51872310D01*
X60436216Y-51881687D01*
X60460249Y-51886467D01*
X60484753Y-51886467D01*
X60508786Y-51881686D01*
X60531423Y-51872310D01*
X60545191Y-51864951D01*
X60552205Y-51862823D01*
X60565640Y-51861500D01*
X60879360Y-51861500D01*
X60892795Y-51862823D01*
X60899809Y-51864951D01*
X60913577Y-51872310D01*
X60936216Y-51881687D01*
X60960249Y-51886467D01*
X60984753Y-51886467D01*
X61008786Y-51881686D01*
X61031423Y-51872310D01*
X61045191Y-51864951D01*
X61052205Y-51862823D01*
X61065640Y-51861500D01*
X61379360Y-51861500D01*
X61392795Y-51862823D01*
X61399809Y-51864951D01*
X61413577Y-51872310D01*
X61436216Y-51881687D01*
X61460249Y-51886467D01*
X61484753Y-51886467D01*
X61508786Y-51881686D01*
X61531423Y-51872310D01*
X61545191Y-51864951D01*
X61552205Y-51862823D01*
X61565640Y-51861500D01*
X61879360Y-51861500D01*
X61892795Y-51862823D01*
X61899809Y-51864951D01*
X61913577Y-51872310D01*
X61936216Y-51881687D01*
X61960249Y-51886467D01*
X61984753Y-51886467D01*
X62008786Y-51881686D01*
X62031423Y-51872310D01*
X62045191Y-51864951D01*
X62052205Y-51862823D01*
X62065640Y-51861500D01*
X62379360Y-51861500D01*
X62392795Y-51862823D01*
X62399809Y-51864951D01*
X62413577Y-51872310D01*
X62436216Y-51881687D01*
X62460249Y-51886467D01*
X62484753Y-51886467D01*
X62508786Y-51881686D01*
X62531423Y-51872310D01*
X62545191Y-51864951D01*
X62552205Y-51862823D01*
X62565640Y-51861500D01*
X62879360Y-51861500D01*
X62892795Y-51862823D01*
X62899810Y-51864951D01*
X62906276Y-51868408D01*
X62911942Y-51873058D01*
X62916592Y-51878724D01*
X62920049Y-51885190D01*
X62922177Y-51892205D01*
X62923500Y-51905640D01*
X62923500Y-53394360D01*
X62922177Y-53407795D01*
X62920049Y-53414810D01*
X62916592Y-53421276D01*
X62911942Y-53426942D01*
X62906276Y-53431592D01*
X62899810Y-53435049D01*
X62892795Y-53437177D01*
X62879360Y-53438500D01*
X62565640Y-53438500D01*
X62552205Y-53437177D01*
X62545191Y-53435049D01*
X62531423Y-53427690D01*
X62508784Y-53418313D01*
X62484751Y-53413533D01*
X62460247Y-53413533D01*
X62436214Y-53418314D01*
X62413577Y-53427690D01*
X62399809Y-53435049D01*
X62392795Y-53437177D01*
X62379360Y-53438500D01*
X62065640Y-53438500D01*
X62052205Y-53437177D01*
X62045191Y-53435049D01*
X62031423Y-53427690D01*
X62008784Y-53418313D01*
X61984751Y-53413533D01*
X61960247Y-53413533D01*
X61936214Y-53418314D01*
X61913577Y-53427690D01*
X61899809Y-53435049D01*
X61892795Y-53437177D01*
X61879360Y-53438500D01*
X61565640Y-53438500D01*
X61552205Y-53437177D01*
X61545191Y-53435049D01*
X61531423Y-53427690D01*
X61508784Y-53418313D01*
X61484751Y-53413533D01*
X61460247Y-53413533D01*
X61436214Y-53418314D01*
X61413577Y-53427690D01*
X61399809Y-53435049D01*
X61392795Y-53437177D01*
X61379360Y-53438500D01*
X61065640Y-53438500D01*
X61052205Y-53437177D01*
X61045191Y-53435049D01*
X61031423Y-53427690D01*
X61008784Y-53418313D01*
X60984751Y-53413533D01*
X60960247Y-53413533D01*
X60936214Y-53418314D01*
X60913577Y-53427690D01*
X60899809Y-53435049D01*
X60892795Y-53437177D01*
X60879360Y-53438500D01*
X60565640Y-53438500D01*
X60552205Y-53437177D01*
X60545191Y-53435049D01*
X60531423Y-53427690D01*
X60508784Y-53418313D01*
X60484751Y-53413533D01*
X60460247Y-53413533D01*
X60436214Y-53418314D01*
X60413577Y-53427690D01*
X60399809Y-53435049D01*
X60392795Y-53437177D01*
X60379360Y-53438500D01*
X60065640Y-53438500D01*
X60052205Y-53437177D01*
X60045191Y-53435049D01*
X60031423Y-53427690D01*
X60008784Y-53418313D01*
X59984751Y-53413533D01*
X59960247Y-53413533D01*
X59936214Y-53418314D01*
X59913577Y-53427690D01*
X59899809Y-53435049D01*
X59892795Y-53437177D01*
X59879360Y-53438500D01*
X59565640Y-53438500D01*
X59552205Y-53437177D01*
X59545191Y-53435049D01*
X59531423Y-53427690D01*
X59508784Y-53418313D01*
X59484751Y-53413533D01*
X59460247Y-53413533D01*
X59436214Y-53418314D01*
X59413577Y-53427690D01*
X59399809Y-53435049D01*
X59392795Y-53437177D01*
X59379360Y-53438500D01*
X59065640Y-53438500D01*
X59052205Y-53437177D01*
X59045191Y-53435049D01*
X59031423Y-53427690D01*
X59008784Y-53418313D01*
X58984751Y-53413533D01*
X58960247Y-53413533D01*
X58936214Y-53418314D01*
X58913577Y-53427690D01*
X58899809Y-53435049D01*
X58892795Y-53437177D01*
X58879360Y-53438500D01*
X58565640Y-53438500D01*
X58552205Y-53437177D01*
X58545191Y-53435049D01*
X58531423Y-53427690D01*
X58508784Y-53418313D01*
X58484751Y-53413533D01*
X58460247Y-53413533D01*
X58436214Y-53418314D01*
X58413577Y-53427690D01*
X58399809Y-53435049D01*
X58392795Y-53437177D01*
X58379360Y-53438500D01*
X58065640Y-53438500D01*
X58052205Y-53437177D01*
X58045191Y-53435049D01*
X58031423Y-53427690D01*
X58008784Y-53418313D01*
X57984751Y-53413533D01*
X57960247Y-53413533D01*
X57936214Y-53418314D01*
X57913577Y-53427690D01*
X57899809Y-53435049D01*
X57892795Y-53437177D01*
X57879360Y-53438500D01*
X57565640Y-53438500D01*
X57552205Y-53437177D01*
X57545191Y-53435049D01*
X57531423Y-53427690D01*
X57508784Y-53418313D01*
X57484751Y-53413533D01*
X57460247Y-53413533D01*
X57436214Y-53418314D01*
X57413577Y-53427690D01*
X57399809Y-53435049D01*
X57392795Y-53437177D01*
X57379360Y-53438500D01*
X57065640Y-53438500D01*
X57052205Y-53437177D01*
X57045190Y-53435049D01*
X57038724Y-53431592D01*
X57033058Y-53426942D01*
X57028408Y-53421276D01*
X57024951Y-53414810D01*
X57022823Y-53407795D01*
X57021500Y-53394360D01*
X57021500Y-51905640D01*
X57022823Y-51892205D01*
X57024951Y-51885190D01*
X57028408Y-51878724D01*
X57033058Y-51873058D01*
X57038724Y-51868408D01*
X57045190Y-51864951D01*
X57052205Y-51862823D01*
X57065640Y-51861500D01*
X57379360Y-51861500D01*
X57392795Y-51862823D01*
X57392795Y-51862823D01*
G37*
G36*
X54915000Y-52438500D02*
G01*
X53924000Y-52438500D01*
X53924000Y-51447500D01*
X54915000Y-51447500D01*
X54915000Y-52438500D01*
X54915000Y-52438500D01*
G37*
G36*
X56439000Y-52438500D02*
G01*
X55448000Y-52438500D01*
X55448000Y-51447500D01*
X56439000Y-51447500D01*
X56439000Y-52438500D01*
X56439000Y-52438500D01*
G37*
G36*
X36633500Y-51558000D02*
G01*
X34231500Y-51558000D01*
X34231500Y-47756000D01*
X36633500Y-47756000D01*
X36633500Y-51558000D01*
X36633500Y-51558000D01*
G37*
G36*
X48878443Y-48889519D02*
G01*
X48944627Y-48896037D01*
X49114466Y-48947557D01*
X49270991Y-49031222D01*
X49306729Y-49060552D01*
X49408186Y-49143814D01*
X49491448Y-49245271D01*
X49520778Y-49281009D01*
X49604443Y-49437534D01*
X49655963Y-49607373D01*
X49673359Y-49784000D01*
X49655963Y-49960627D01*
X49604443Y-50130466D01*
X49520778Y-50286991D01*
X49491448Y-50322729D01*
X49408186Y-50424186D01*
X49306729Y-50507448D01*
X49270991Y-50536778D01*
X49114466Y-50620443D01*
X48944627Y-50671963D01*
X48878443Y-50678481D01*
X48812260Y-50685000D01*
X48723740Y-50685000D01*
X48657557Y-50678481D01*
X48591373Y-50671963D01*
X48421534Y-50620443D01*
X48265009Y-50536778D01*
X48229271Y-50507448D01*
X48127814Y-50424186D01*
X48044552Y-50322729D01*
X48015222Y-50286991D01*
X47931557Y-50130466D01*
X47880037Y-49960627D01*
X47862641Y-49784000D01*
X47880037Y-49607373D01*
X47931557Y-49437534D01*
X48015222Y-49281009D01*
X48044552Y-49245271D01*
X48127814Y-49143814D01*
X48229271Y-49060552D01*
X48265009Y-49031222D01*
X48421534Y-48947557D01*
X48591373Y-48896037D01*
X48657557Y-48889519D01*
X48723740Y-48883000D01*
X48812260Y-48883000D01*
X48878443Y-48889519D01*
X48878443Y-48889519D01*
G37*
G36*
X41770500Y-50343000D02*
G01*
X40779500Y-50343000D01*
X40779500Y-49352000D01*
X41770500Y-49352000D01*
X41770500Y-50343000D01*
X41770500Y-50343000D01*
G37*
G36*
X41770500Y-48819000D02*
G01*
X40779500Y-48819000D01*
X40779500Y-47828000D01*
X41770500Y-47828000D01*
X41770500Y-48819000D01*
X41770500Y-48819000D01*
G37*
G36*
X59990943Y-46349519D02*
G01*
X60057127Y-46356037D01*
X60226966Y-46407557D01*
X60383491Y-46491222D01*
X60419229Y-46520552D01*
X60520686Y-46603814D01*
X60603948Y-46705271D01*
X60633278Y-46741009D01*
X60716943Y-46897534D01*
X60768463Y-47067373D01*
X60785859Y-47244000D01*
X60768463Y-47420627D01*
X60716943Y-47590466D01*
X60633278Y-47746991D01*
X60625884Y-47756000D01*
X60520686Y-47884186D01*
X60419229Y-47967448D01*
X60383491Y-47996778D01*
X60226966Y-48080443D01*
X60057127Y-48131963D01*
X59990943Y-48138481D01*
X59924760Y-48145000D01*
X59836240Y-48145000D01*
X59770058Y-48138482D01*
X59703873Y-48131963D01*
X59534034Y-48080443D01*
X59377509Y-47996778D01*
X59341771Y-47967448D01*
X59240314Y-47884186D01*
X59135116Y-47756000D01*
X59127722Y-47746991D01*
X59044057Y-47590466D01*
X58992537Y-47420627D01*
X58975141Y-47244000D01*
X58992537Y-47067373D01*
X59044057Y-46897534D01*
X59127722Y-46741009D01*
X59157052Y-46705271D01*
X59240314Y-46603814D01*
X59341771Y-46520552D01*
X59377509Y-46491222D01*
X59534034Y-46407557D01*
X59703873Y-46356037D01*
X59770057Y-46349519D01*
X59836240Y-46343000D01*
X59924760Y-46343000D01*
X59990943Y-46349519D01*
X59990943Y-46349519D01*
G37*
G36*
X57450943Y-46349519D02*
G01*
X57517127Y-46356037D01*
X57686966Y-46407557D01*
X57843491Y-46491222D01*
X57879229Y-46520552D01*
X57980686Y-46603814D01*
X58063948Y-46705271D01*
X58093278Y-46741009D01*
X58176943Y-46897534D01*
X58228463Y-47067373D01*
X58245859Y-47244000D01*
X58228463Y-47420627D01*
X58176943Y-47590466D01*
X58093278Y-47746991D01*
X58085884Y-47756000D01*
X57980686Y-47884186D01*
X57879229Y-47967448D01*
X57843491Y-47996778D01*
X57686966Y-48080443D01*
X57517127Y-48131963D01*
X57450943Y-48138481D01*
X57384760Y-48145000D01*
X57296240Y-48145000D01*
X57230058Y-48138482D01*
X57163873Y-48131963D01*
X56994034Y-48080443D01*
X56837509Y-47996778D01*
X56801771Y-47967448D01*
X56700314Y-47884186D01*
X56595116Y-47756000D01*
X56587722Y-47746991D01*
X56504057Y-47590466D01*
X56452537Y-47420627D01*
X56435141Y-47244000D01*
X56452537Y-47067373D01*
X56504057Y-46897534D01*
X56587722Y-46741009D01*
X56617052Y-46705271D01*
X56700314Y-46603814D01*
X56801771Y-46520552D01*
X56837509Y-46491222D01*
X56994034Y-46407557D01*
X57163873Y-46356037D01*
X57230057Y-46349519D01*
X57296240Y-46343000D01*
X57384760Y-46343000D01*
X57450943Y-46349519D01*
X57450943Y-46349519D01*
G37*
G36*
X54910943Y-46349519D02*
G01*
X54977127Y-46356037D01*
X55146966Y-46407557D01*
X55303491Y-46491222D01*
X55339229Y-46520552D01*
X55440686Y-46603814D01*
X55523948Y-46705271D01*
X55553278Y-46741009D01*
X55636943Y-46897534D01*
X55688463Y-47067373D01*
X55705859Y-47244000D01*
X55688463Y-47420627D01*
X55636943Y-47590466D01*
X55553278Y-47746991D01*
X55545884Y-47756000D01*
X55440686Y-47884186D01*
X55339229Y-47967448D01*
X55303491Y-47996778D01*
X55146966Y-48080443D01*
X54977127Y-48131963D01*
X54910943Y-48138481D01*
X54844760Y-48145000D01*
X54756240Y-48145000D01*
X54690058Y-48138482D01*
X54623873Y-48131963D01*
X54454034Y-48080443D01*
X54297509Y-47996778D01*
X54261771Y-47967448D01*
X54160314Y-47884186D01*
X54055116Y-47756000D01*
X54047722Y-47746991D01*
X53964057Y-47590466D01*
X53912537Y-47420627D01*
X53895141Y-47244000D01*
X53912537Y-47067373D01*
X53964057Y-46897534D01*
X54047722Y-46741009D01*
X54077052Y-46705271D01*
X54160314Y-46603814D01*
X54261771Y-46520552D01*
X54297509Y-46491222D01*
X54454034Y-46407557D01*
X54623873Y-46356037D01*
X54690057Y-46349519D01*
X54756240Y-46343000D01*
X54844760Y-46343000D01*
X54910943Y-46349519D01*
X54910943Y-46349519D01*
G37*
G36*
X53161500Y-48145000D02*
G01*
X51359500Y-48145000D01*
X51359500Y-46343000D01*
X53161500Y-46343000D01*
X53161500Y-48145000D01*
X53161500Y-48145000D01*
G37*
G36*
X62530943Y-46349519D02*
G01*
X62597127Y-46356037D01*
X62766966Y-46407557D01*
X62923491Y-46491222D01*
X62959229Y-46520552D01*
X63060686Y-46603814D01*
X63143948Y-46705271D01*
X63173278Y-46741009D01*
X63256943Y-46897534D01*
X63308463Y-47067373D01*
X63325859Y-47244000D01*
X63308463Y-47420627D01*
X63256943Y-47590466D01*
X63173278Y-47746991D01*
X63165884Y-47756000D01*
X63060686Y-47884186D01*
X62959229Y-47967448D01*
X62923491Y-47996778D01*
X62766966Y-48080443D01*
X62597127Y-48131963D01*
X62530943Y-48138481D01*
X62464760Y-48145000D01*
X62376240Y-48145000D01*
X62310058Y-48138482D01*
X62243873Y-48131963D01*
X62074034Y-48080443D01*
X61917509Y-47996778D01*
X61881771Y-47967448D01*
X61780314Y-47884186D01*
X61675116Y-47756000D01*
X61667722Y-47746991D01*
X61584057Y-47590466D01*
X61532537Y-47420627D01*
X61515141Y-47244000D01*
X61532537Y-47067373D01*
X61584057Y-46897534D01*
X61667722Y-46741009D01*
X61697052Y-46705271D01*
X61780314Y-46603814D01*
X61881771Y-46520552D01*
X61917509Y-46491222D01*
X62074034Y-46407557D01*
X62243873Y-46356037D01*
X62310057Y-46349519D01*
X62376240Y-46343000D01*
X62464760Y-46343000D01*
X62530943Y-46349519D01*
X62530943Y-46349519D01*
G37*
G36*
X65070943Y-46349519D02*
G01*
X65137127Y-46356037D01*
X65306966Y-46407557D01*
X65463491Y-46491222D01*
X65499229Y-46520552D01*
X65600686Y-46603814D01*
X65683948Y-46705271D01*
X65713278Y-46741009D01*
X65796943Y-46897534D01*
X65848463Y-47067373D01*
X65865859Y-47244000D01*
X65848463Y-47420627D01*
X65796943Y-47590466D01*
X65713278Y-47746991D01*
X65705884Y-47756000D01*
X65600686Y-47884186D01*
X65499229Y-47967448D01*
X65463491Y-47996778D01*
X65306966Y-48080443D01*
X65137127Y-48131963D01*
X65070943Y-48138481D01*
X65004760Y-48145000D01*
X64916240Y-48145000D01*
X64850058Y-48138482D01*
X64783873Y-48131963D01*
X64614034Y-48080443D01*
X64457509Y-47996778D01*
X64421771Y-47967448D01*
X64320314Y-47884186D01*
X64215116Y-47756000D01*
X64207722Y-47746991D01*
X64124057Y-47590466D01*
X64072537Y-47420627D01*
X64055141Y-47244000D01*
X64072537Y-47067373D01*
X64124057Y-46897534D01*
X64207722Y-46741009D01*
X64237052Y-46705271D01*
X64320314Y-46603814D01*
X64421771Y-46520552D01*
X64457509Y-46491222D01*
X64614034Y-46407557D01*
X64783873Y-46356037D01*
X64850057Y-46349519D01*
X64916240Y-46343000D01*
X65004760Y-46343000D01*
X65070943Y-46349519D01*
X65070943Y-46349519D01*
G37*
G36*
X49669000Y-48145000D02*
G01*
X47867000Y-48145000D01*
X47867000Y-46343000D01*
X49669000Y-46343000D01*
X49669000Y-48145000D01*
X49669000Y-48145000D01*
G37*
G36*
X31418385Y-45277617D02*
G01*
X31451979Y-45280926D01*
X31527894Y-45303954D01*
X31581295Y-45320153D01*
X31700464Y-45383851D01*
X31804923Y-45469577D01*
X31890649Y-45574036D01*
X31954347Y-45693205D01*
X31993574Y-45822522D01*
X32006819Y-45957000D01*
X31993574Y-46091478D01*
X31954347Y-46220795D01*
X31890649Y-46339964D01*
X31804923Y-46444423D01*
X31700464Y-46530149D01*
X31581295Y-46593847D01*
X31548437Y-46603814D01*
X31451979Y-46633074D01*
X31418385Y-46636383D01*
X31351200Y-46643000D01*
X30013800Y-46643000D01*
X29946615Y-46636383D01*
X29913021Y-46633074D01*
X29816563Y-46603814D01*
X29783705Y-46593847D01*
X29664536Y-46530149D01*
X29560077Y-46444423D01*
X29474351Y-46339964D01*
X29410653Y-46220795D01*
X29371426Y-46091478D01*
X29358181Y-45957000D01*
X29371426Y-45822522D01*
X29410653Y-45693205D01*
X29474351Y-45574036D01*
X29560077Y-45469577D01*
X29664536Y-45383851D01*
X29783705Y-45320153D01*
X29837106Y-45303954D01*
X29913021Y-45280926D01*
X29946615Y-45277617D01*
X30013800Y-45271000D01*
X31351200Y-45271000D01*
X31418385Y-45277617D01*
X31418385Y-45277617D01*
G37*
G36*
X36168385Y-45277617D02*
G01*
X36201979Y-45280926D01*
X36277894Y-45303954D01*
X36331295Y-45320153D01*
X36450464Y-45383851D01*
X36554923Y-45469577D01*
X36640649Y-45574036D01*
X36704347Y-45693205D01*
X36743574Y-45822522D01*
X36756819Y-45957000D01*
X36743574Y-46091478D01*
X36704347Y-46220795D01*
X36640649Y-46339964D01*
X36554923Y-46444423D01*
X36450464Y-46530149D01*
X36331295Y-46593847D01*
X36298437Y-46603814D01*
X36201979Y-46633074D01*
X36168385Y-46636383D01*
X36101200Y-46643000D01*
X34763800Y-46643000D01*
X34696615Y-46636383D01*
X34663021Y-46633074D01*
X34566563Y-46603814D01*
X34533705Y-46593847D01*
X34414536Y-46530149D01*
X34310077Y-46444423D01*
X34224351Y-46339964D01*
X34160653Y-46220795D01*
X34121426Y-46091478D01*
X34108181Y-45957000D01*
X34121426Y-45822522D01*
X34160653Y-45693205D01*
X34224351Y-45574036D01*
X34310077Y-45469577D01*
X34414536Y-45383851D01*
X34533705Y-45320153D01*
X34587106Y-45303954D01*
X34663021Y-45280926D01*
X34696615Y-45277617D01*
X34763800Y-45271000D01*
X36101200Y-45271000D01*
X36168385Y-45277617D01*
X36168385Y-45277617D01*
G37*
M02*
